<svg width="16" height="16" viewBox="0 0 16 16" fill="none" xmlns="http://www.w3.org/2000/svg">
<path fill-rule="evenodd" clip-rule="evenodd" d="M5.64405 3.49099C5.49534 3.69184 5.51242 3.97834 5.7003 4.16016C5.9003 4.36016 6.22696 4.36016 6.42696 4.16016L7.48696 3.0935V5.8535H8.51363V3.0935L9.57363 4.16016L9.63112 4.20975C9.83198 4.35851 10.1185 4.34198 10.3003 4.16016C10.4003 4.06016 10.4536 3.92683 10.4536 3.7935C10.4536 3.66683 10.4003 3.5335 10.3003 3.4335L8.3603 1.48683L8.29982 1.43248C8.21363 1.36763 8.10696 1.3335 8.0003 1.3335C7.8603 1.3335 7.73363 1.38683 7.63363 1.48683L5.69363 3.4335L5.64405 3.49099ZM4.15427 5.85691C2.58544 5.93101 1.3335 7.25072 1.3335 8.85847V12.1686L1.33672 12.3102C1.40956 13.9068 2.70702 15.187 4.30016 15.187H11.7068L11.8461 15.1837C13.4149 15.1096 14.6668 13.7897 14.6668 12.1753V8.87204L14.6636 8.72982C14.5904 7.12741 13.2868 5.85363 11.7002 5.85363H8.5135V9.9234L8.50874 9.99494C8.47428 10.2519 8.25683 10.4457 8.00016 10.4457C7.7135 10.4457 7.48683 10.2151 7.48683 9.9234V5.85363H4.2935L4.15427 5.85691Z" fill="#2E90FA"/>
</svg>
