<svg width="25" height="25" viewBox="0 0 25 25" fill="none" xmlns="http://www.w3.org/2000/svg">
<path fill-rule="evenodd" clip-rule="evenodd" d="M19.9277 12.501C19.9277 13.3145 20.5957 13.9764 21.4167 13.9764C21.8307 13.9764 22.1667 14.3093 22.1667 14.7195V17.3958C22.1667 19.659 20.3087 21.5 18.0247 21.5H6.30969C4.02569 21.5 2.16669 19.659 2.16669 17.3958V14.7195C2.16669 14.3093 2.50269 13.9764 2.91669 13.9764C3.73869 13.9764 4.40669 13.3145 4.40669 12.501C4.40669 11.7083 3.76569 11.1118 2.91669 11.1118C2.71769 11.1118 2.52769 11.0335 2.38669 10.8938C2.24569 10.7541 2.16669 10.5648 2.16669 10.3687L2.16869 7.60514C2.16869 5.34201 4.02669 3.5 6.31069 3.5H18.0227C20.3067 3.5 22.1657 5.34201 22.1657 7.60514L22.1667 10.2825C22.1667 10.4786 22.0877 10.6689 21.9477 10.8076C21.8067 10.9473 21.6167 11.0256 21.4167 11.0256C20.5957 11.0256 19.9277 11.6875 19.9277 12.501ZM14.4187 13.148L15.5977 12.0105C15.8027 11.8143 15.8737 11.525 15.7847 11.2575C15.6967 10.9899 15.4667 10.7997 15.1887 10.761L13.5597 10.5252L12.8307 9.0627C12.7057 8.81102 12.4517 8.65446 12.1687 8.65347H12.1667C11.8847 8.65347 11.6307 8.81003 11.5037 9.06171L10.7747 10.5252L9.14869 10.76C8.86769 10.7997 8.63769 10.9899 8.54869 11.2575C8.46069 11.525 8.53169 11.8143 8.73569 12.0105L9.91469 13.148L9.63669 14.7562C9.58869 15.0336 9.70169 15.3091 9.93169 15.4746C10.0617 15.5667 10.2127 15.6143 10.3657 15.6143C10.4827 15.6143 10.6007 15.5855 10.7087 15.5291L12.1667 14.7701L13.6217 15.5271C13.8737 15.6608 14.1727 15.64 14.4017 15.4736C14.6327 15.3091 14.7457 15.0336 14.6977 14.7562L14.4187 13.148Z" fill="#2970FF"/>
</svg>
