<svg width="25" height="25" viewBox="0 0 25 25" fill="none" xmlns="http://www.w3.org/2000/svg">
<path fill-rule="evenodd" clip-rule="evenodd" d="M18.024 20.917C19.899 20.917 21.417 19.398 21.417 17.524V14.824C20.177 14.824 19.177 13.824 19.177 12.585C19.177 11.345 20.177 10.346 21.417 10.346L21.415 7.643C21.415 5.769 19.897 4.25 18.023 4.25H6.31099C4.43699 4.25 2.91799 5.769 2.91799 7.643L2.91699 10.433C4.15599 10.433 5.15599 11.345 5.15599 12.585C5.15599 13.824 4.15599 14.824 2.91699 14.824V17.524C2.91699 19.398 4.43499 20.917 6.30899 20.917H18.024Z" stroke="#758494" stroke-width="1.5" stroke-linecap="round" stroke-linejoin="round"/>
<path fill-rule="evenodd" clip-rule="evenodd" d="M12.1665 14.3545L13.9065 15.2695C14.0695 15.3545 14.2605 15.2165 14.2295 15.0355L13.8965 13.0965L15.3055 11.7255C15.4375 11.5965 15.3645 11.3735 15.1825 11.3465L13.2365 11.0635L12.3655 9.29953C12.2845 9.13453 12.0495 9.13453 11.9675 9.29953L11.0965 11.0635L9.1515 11.3465C8.9695 11.3735 8.8965 11.5965 9.0285 11.7255L10.4365 13.0965L10.1035 15.0355C10.0725 15.2165 10.2635 15.3545 10.4265 15.2695L12.1665 14.3545Z" stroke="#758494" stroke-width="1.5" stroke-linecap="round" stroke-linejoin="round"/>
</svg>
