<svg width="16" height="16" viewBox="0 0 16 16" fill="none" xmlns="http://www.w3.org/2000/svg">
<path fill-rule="evenodd" clip-rule="evenodd" d="M11.6268 4.1576C11.6535 4.20422 11.7002 4.23751 11.7602 4.23751C13.3602 4.23751 14.6668 5.54273 14.6668 7.14095V11.0966C14.6668 12.6948 13.3602 14 11.7602 14H4.24016C2.6335 14 1.3335 12.6948 1.3335 11.0966V7.14095C1.3335 5.54273 2.6335 4.23751 4.24016 4.23751C4.2935 4.23751 4.34683 4.21088 4.36683 4.1576L4.40683 4.07769C4.42981 4.02932 4.4534 3.97963 4.47735 3.92919C4.6479 3.56996 4.83658 3.17253 4.9535 2.93896C5.26016 2.33962 5.78016 2.00666 6.42683 2H9.56683C10.2135 2.00666 10.7402 2.33962 11.0468 2.93896C11.1518 3.14872 11.3118 3.48661 11.466 3.81228C11.4978 3.87948 11.5294 3.94617 11.5602 4.0111L11.6268 4.1576ZM11.1402 6.71476C11.1402 7.04772 11.4068 7.3141 11.7402 7.3141C12.0735 7.3141 12.3468 7.04772 12.3468 6.71476C12.3468 6.3818 12.0735 6.10877 11.7402 6.10877C11.4068 6.10877 11.1402 6.3818 11.1402 6.71476ZM6.84683 7.74695C7.16016 7.43396 7.56683 7.26748 8.00016 7.26748C8.4335 7.26748 8.84016 7.43396 9.14683 7.74029C9.4535 8.04661 9.62016 8.45283 9.62016 8.88568C9.6135 9.77802 8.8935 10.5039 8.00016 10.5039C7.56683 10.5039 7.16016 10.3374 6.8535 10.0311C6.54683 9.72475 6.38016 9.31853 6.38016 8.88568V8.87902C6.3735 8.45949 6.54016 8.05327 6.84683 7.74695ZM9.84683 10.737C9.3735 11.2098 8.72016 11.5028 8.00016 11.5028C7.30016 11.5028 6.64683 11.2297 6.14683 10.737C5.6535 10.2375 5.38016 9.58491 5.38016 8.88568C5.3735 8.19312 5.64683 7.54051 6.14016 7.04107C6.64016 6.54162 7.30016 6.26859 8.00016 6.26859C8.70016 6.26859 9.36016 6.54162 9.8535 7.03441C10.3468 7.53385 10.6202 8.19312 10.6202 8.88568C10.6135 9.61154 10.3202 10.2642 9.84683 10.737Z" fill="#758494"/>
</svg>
