<svg width="139" height="141" viewBox="0 0 139 141" fill="none" xmlns="http://www.w3.org/2000/svg">
<g opacity="0.535623">
<path d="M84.1013 17.7404C84.1013 19.6539 82.509 21.2051 80.545 21.2051C78.5809 21.2051 76.9888 19.6539 76.9888 17.7404C76.9888 15.827 78.5809 14.2759 80.545 14.2759C82.509 14.2759 84.1013 15.827 84.1013 17.7404Z" fill="#9AA3C4"/>
</g>
<g opacity="0.883812">
<path d="M55.9801 27.6765L53.8681 28.8644C53.4857 29.0795 52.9968 28.9518 52.776 28.5794L48.9625 22.1443C48.7417 21.7718 48.8728 21.2955 49.255 21.0805L51.3671 19.8925C51.7494 19.6775 52.2383 19.8051 52.4591 20.1775L56.2726 26.6127C56.4934 26.9852 56.3623 27.4614 55.9801 27.6765Z" fill="#9AA3C4"/>
</g>
<g opacity="0.883812">
<path d="M20.0712 38.4236L20.5463 38.5806C21.0849 38.7585 21.679 38.6668 22.1349 38.3354L22.537 38.0431C23.6851 37.2084 25.3173 38.0186 25.299 39.4141L25.2926 39.9028C25.2853 40.4569 25.5583 40.9791 26.0227 41.2991L26.4324 41.5813C27.6019 42.3871 27.3153 44.1496 25.9474 44.5639L25.4683 44.709C24.9251 44.8734 24.5 45.2879 24.3311 45.8171L24.1821 46.2838C23.7569 47.6165 21.9477 47.8956 21.1206 46.7561L20.8308 46.3572C20.5023 45.9047 19.9664 45.6386 19.3977 45.6458L18.8959 45.6519C17.4636 45.6697 16.632 44.0798 17.4888 42.9612L17.7889 42.5695C18.1292 42.1254 18.2232 41.5466 18.0405 41.0218L17.8793 40.559C17.4193 39.2372 18.7145 37.9754 20.0712 38.4236Z" fill="#46AC7C"/>
</g>
<g opacity="0.883812">
<path d="M18.899 63.2521L19.4324 65.5705C19.529 65.9902 19.2581 66.4067 18.8272 66.5007L11.3848 68.1261C10.9541 68.2201 10.5266 67.9562 10.4299 67.5365L9.89645 65.218C9.79998 64.7984 10.0709 64.3819 10.5016 64.2879L17.9442 62.6626C18.3749 62.5686 18.8024 62.8325 18.899 63.2521Z" fill="#2E90FA"/>
</g>
<g opacity="0.883812">
<path d="M26.3042 91.9694C26.3042 93.8827 24.712 95.4339 22.7481 95.4339C20.784 95.4339 19.1919 93.8827 19.1919 91.9694C19.1919 90.056 20.784 88.5049 22.7481 88.5049C24.712 88.5049 26.3042 90.056 26.3042 91.9694Z" fill="#2E90FA"/>
</g>
<g opacity="0.883812">
<path d="M19.8073 109.567L20.2823 109.724C20.821 109.902 21.4151 109.81 21.871 109.478L22.2731 109.186C23.4211 108.352 25.0534 109.162 25.0351 110.557L25.0287 111.046C25.0214 111.6 25.2944 112.122 25.7588 112.442L26.1685 112.724C27.338 113.53 27.0514 115.293 25.6835 115.707L25.2044 115.852C24.6612 116.017 24.236 116.431 24.0672 116.96L23.9182 117.427C23.493 118.76 21.6838 119.039 20.8566 117.899L20.5669 117.5C20.2384 117.048 19.7024 116.782 19.1337 116.789L18.632 116.795C17.1997 116.813 16.3681 115.223 17.2249 114.104L17.525 113.713C17.8652 113.268 17.9593 112.69 17.7766 112.165L17.6154 111.702C17.1554 110.38 18.4506 109.119 19.8073 109.567Z" fill="#2E90FA"/>
</g>
<g opacity="0.883812">
<path d="M111.345 35.0059C110.268 33.6376 110.601 31.5992 112.085 30.4904C113.568 29.3817 115.675 29.5952 116.753 30.9636C116.755 30.9662 116.757 30.9688 116.759 30.9713" stroke="#2E90FA" stroke-width="3.29638" stroke-linecap="round" stroke-linejoin="round"/>
</g>
<g opacity="0.883812">
<path d="M119.764 54.5134L120.239 54.6704C120.778 54.8484 121.372 54.7567 121.828 54.4252L122.23 54.1329C123.378 53.2983 125.01 54.1084 124.992 55.5039L124.986 55.9926C124.978 56.5468 125.252 57.0689 125.716 57.3889L126.126 57.6711C127.295 58.4769 127.009 60.2394 125.641 60.6537L125.161 60.7988C124.618 60.9633 124.193 61.3777 124.024 61.9069L123.875 62.3737C123.45 63.7063 121.641 63.9854 120.814 62.846L120.524 62.447C120.195 61.9945 119.66 61.7285 119.091 61.7356L118.589 61.7419C117.157 61.7596 116.325 60.1696 117.182 59.0512L117.482 58.6594C117.822 58.2153 117.916 57.6365 117.734 57.1116L117.572 56.6488C117.112 55.3271 118.408 54.0653 119.764 54.5134Z" fill="#9AA3C4"/>
</g>
<g opacity="0.883812">
<path d="M124.262 94.9351C126.68 95.2453 128.393 97.5479 128.057 100.036C127.721 102.524 125.454 104.316 123.036 104.005C123.032 104.005 123.027 104.004 123.022 104.004" stroke="#DE3E3E" stroke-width="2.47229" stroke-linecap="round" stroke-linejoin="round"/>
</g>
<g opacity="0.883812">
<path d="M116.641 124.168L114.529 125.356C114.147 125.571 113.658 125.444 113.437 125.071L109.623 118.636C109.403 118.263 109.534 117.787 109.916 117.572L112.028 116.384C112.41 116.169 112.899 116.297 113.12 116.669L116.933 123.104C117.154 123.477 117.023 123.953 116.641 124.168Z" fill="#2E90FA"/>
</g>
<path d="M2.07642 72.9766C3.10109 74.8348 6.44296 83.3616 10.2628 82.0773C11.6321 81.6169 12.4829 79.165 12.6383 77.9346C12.7905 76.73 12.2041 75.3197 11.9976 74.1339C11.8957 73.5486 11.0608 72.0883 11.6075 72.3925C13.7296 73.5733 16.7668 80.6028 19.1729 80.3688C21.7041 80.1226 22.936 74.8639 22.6907 72.9885C22.5199 71.6832 21.6749 67.8559 22.2222 69.0676C23.4442 71.7737 24.9437 77.5274 28.2195 78.7119C32.4719 80.2495 37.5167 76.6345 40.4645 74.4839" stroke="url(#paint0_linear_94_1809)" stroke-width="4" stroke-linecap="round"/>
<g opacity="0.883812">
<path d="M47.4235 127.923C45.9388 126.037 46.3984 123.229 48.442 121.702C50.4856 120.174 53.3889 120.468 54.8736 122.353L54.8821 122.364" stroke="#9AA3C4" stroke-width="3.29638" stroke-linecap="round" stroke-linejoin="round"/>
</g>
<g opacity="0.2">
<path d="M138.924 73.8631C138.924 110.625 109.122 140.427 72.3598 140.427C35.5977 140.427 5.7959 110.625 5.7959 73.8631C5.7959 37.1008 35.5977 7.29932 72.3598 7.29932C109.122 7.29932 138.924 37.1008 138.924 73.8631Z" fill="#2E90FA"/>
</g>
<path d="M119.229 73.6474C119.229 99.3809 98.3676 120.242 72.634 120.242C46.9006 120.242 26.0393 99.3809 26.0393 73.6474C26.0393 47.9138 46.9006 27.0527 72.634 27.0527C98.3676 27.0527 119.229 47.9138 119.229 73.6474Z" fill="#2E90FA"/>
<path d="M53.7697 74.6094L66.7969 86.3936C66.7969 86.3936 88.7846 63.6282 91.2132 61.1137" stroke="white" stroke-width="8.78723" stroke-linecap="round" stroke-linejoin="round"/>
<path d="M102.502 122.404C93.5422 118.843 85.8544 114.015 80.5802 107.232C78.0759 104.012 75.2784 99.984 74.9058 96.088" stroke="#2E90FA" stroke-width="4" stroke-linecap="round"/>
<path d="M97.2915 131.337C87.3137 129.117 73.9935 124.024 70.3124 117.231" stroke="#2E90FA" stroke-width="4" stroke-linecap="round"/>
<path d="M100.196 127.112C92.9619 125.669 86.6184 121.804 81.0135 118.166C79.1797 116.976 77.2633 115.367 75.6531 113.987C74.23 112.767 72.8817 111.247 71.6803 109.907C69.2571 107.205 68.8022 105.738 67.8583 104.525" stroke="#2E90FA" stroke-width="4" stroke-linecap="round"/>
<path d="M61.5003 28.8118C52.541 25.251 44.8531 20.4226 39.579 13.6402C37.0747 10.4198 34.2772 6.39174 33.9046 2.49574" stroke="#2E90FA" stroke-width="4" stroke-linecap="round"/>
<path d="M56.2903 37.7446C46.3125 35.5251 32.9923 30.4316 29.3111 23.6389" stroke="#2E90FA" stroke-width="4" stroke-linecap="round"/>
<path d="M59.1947 33.5199C51.9607 32.0762 45.6172 28.2115 40.0123 24.574C38.1785 23.384 36.2621 21.7752 34.6519 20.3947C33.2287 19.1746 31.8804 17.6551 30.679 16.3152C28.2559 13.6126 27.8009 12.1461 26.8571 10.9324" stroke="#2E90FA" stroke-width="4" stroke-linecap="round"/>
<path d="M105.289 84.4898C107.26 79.6656 108.525 77.6129 114.479 80.3887C116.898 81.5164 117.979 83.8307 120.842 83.8307C123.701 83.8307 126.273 80.3776 128.068 78.7044C130.101 76.8089 133.643 81.051 134.98 78.5579" stroke="#2E90FA" stroke-width="4" stroke-linecap="round"/>
<path d="M81.4304 38.3035C80.1732 33.276 79.9911 30.9149 86.5929 30.114C89.2747 29.7886 91.5578 31.1449 93.9321 29.6529C96.3032 28.163 96.3663 23.9592 96.8515 21.6365C97.4011 19.0053 102.881 20.6773 102.496 17.9133" stroke="#2E90FA" stroke-width="4" stroke-linecap="round"/>
<defs>
<linearGradient id="paint0_linear_94_1809" x1="4.67067" y1="71.9582" x2="34.6304" y2="64.0716" gradientUnits="userSpaceOnUse">
<stop stop-color="#2E90FA"/>
<stop offset="1" stop-color="#FD4141"/>
</linearGradient>
</defs>
</svg>
