<svg width="20" height="20" viewBox="0 0 20 20" fill="none" xmlns="http://www.w3.org/2000/svg">
<path fill-rule="evenodd" clip-rule="evenodd" d="M16.9059 4.36898C17.2301 4.36898 17.5 4.63814 17.5 4.98064V5.2973C17.5 5.63146 17.2301 5.90896 16.9059 5.90896H3.09488C2.76988 5.90896 2.5 5.63146 2.5 5.2973V4.98064C2.5 4.63814 2.76988 4.36898 3.09488 4.36898H5.52464C6.01821 4.36898 6.44775 4.01815 6.55879 3.52315L6.68603 2.95482C6.88378 2.18067 7.53458 1.6665 8.27939 1.6665H11.7206C12.4573 1.6665 13.1154 2.18067 13.3059 2.91399L13.442 3.52232C13.5522 4.01815 13.9818 4.36898 14.4762 4.36898H16.9059ZM15.6715 15.9449C15.9252 13.5807 16.3693 7.96411 16.3693 7.90744C16.3855 7.73578 16.3296 7.57328 16.2186 7.44245C16.0994 7.31995 15.9487 7.24745 15.7826 7.24745H4.22377C4.05681 7.24745 3.89796 7.31995 3.78774 7.44245C3.6759 7.57328 3.62079 7.73578 3.62889 7.90744C3.63038 7.91785 3.64632 8.1157 3.67296 8.44646C3.79132 9.91582 4.12097 14.0083 4.33399 15.9449C4.48474 17.3715 5.42082 18.2682 6.77672 18.3007C7.82302 18.3248 8.90094 18.3332 10.0032 18.3332C11.0414 18.3332 12.0958 18.3248 13.1745 18.3007C14.5774 18.2765 15.5127 17.3957 15.6715 15.9449Z" fill="#FF0000"/>
</svg>
