<svg width="48" height="48" viewBox="0 0 48 48" fill="none" xmlns="http://www.w3.org/2000/svg">
<g clip-path="url(#clip0_217_3887)">
<path d="M48 23.9999C48 37.2557 37.2543 48 23.9999 48C10.7449 48 0 37.2557 0 23.9999C0 10.7455 10.7449 0 23.9999 0C37.2543 0 48 10.7455 48 23.9999Z" fill="#DBA111"/>
<path d="M47.1993 24C47.1993 36.813 36.813 47.1994 23.9999 47.1994C11.1867 47.1994 0.800171 36.8131 0.800171 24C0.800171 11.1868 11.1867 0.800293 23.9999 0.800293C36.8128 0.800293 47.1993 11.1868 47.1993 24" fill="#034694"/>
<path d="M40.5326 23.9997C40.5326 33.1306 33.1306 40.5314 23.9999 40.5314C14.8686 40.5314 7.46643 33.1306 7.46643 23.9997C7.46643 14.8681 14.8686 7.46631 23.9999 7.46631C33.1308 7.46621 40.5326 14.8681 40.5326 23.9997" fill="#DBA111"/>
<path d="M40.0324 23.9999C40.0324 32.8544 32.8533 40.0322 23.9999 40.0322C15.1454 40.0322 7.96747 32.8543 7.96747 23.9999C7.96747 15.1454 15.1454 7.96729 23.9999 7.96729C32.8535 7.96729 40.0324 15.1453 40.0324 23.9999" fill="white"/>
<path d="M10.2625 37.8314C10.4399 38.0007 10.8764 38.4163 10.8764 38.4163L11.2947 37.9759L10.0468 36.7861L9.88628 36.9546L8.21075 38.7111L8.84692 39.3165C8.84692 39.3165 9.38422 38.7531 9.58082 38.5478C9.74511 38.7038 10.1393 39.0797 10.1393 39.0797L10.558 38.6401C10.558 38.6401 10.1644 38.2646 10.0003 38.1074C10.1044 37.9977 10.1573 37.9421 10.2625 37.8314" fill="#DBA111"/>
<path d="M13.272 39.8377C13.2155 39.5009 13.0264 39.2033 12.7402 38.9999C12.4554 38.7975 12.1134 38.7177 11.7766 38.7729C11.4138 38.8346 11.0878 39.0461 10.8582 39.3674C10.6294 39.6908 10.537 40.0677 10.5986 40.432C10.6552 40.7678 10.843 41.0635 11.1283 41.2669C11.4138 41.4698 11.7582 41.551 12.0946 41.4945C12.4572 41.4334 12.7833 41.2215 13.0122 40.8992C13.1953 40.6436 13.2909 40.3509 13.2909 40.0583C13.291 39.9853 13.2848 39.9104 13.272 39.8377H13.272ZM11.48 40.7708C11.1884 40.5645 11.4291 40.1332 11.599 39.8961C11.7684 39.6571 12.0969 39.2875 12.3885 39.4936C12.6929 39.7113 12.4085 40.1817 12.272 40.3726C12.1351 40.5657 11.785 40.9884 11.48 40.7708V40.7708Z" fill="#DBA111"/>
<path d="M15.2333 40.5036C14.5618 40.1638 13.7851 40.4423 13.4283 41.1494C13.2496 41.5028 13.2147 41.8908 13.3298 42.2399C13.4361 42.5643 13.6666 42.829 13.9792 42.9862C14.2917 43.1453 14.6434 43.173 14.9684 43.0663C15.3173 42.9525 15.6083 42.6947 15.786 42.3414C16.1442 41.6331 15.9061 40.8434 15.2333 40.5036V40.5036ZM14.4906 42.4686C14.4119 42.4944 14.3371 42.4863 14.2523 42.4441C14.1191 42.3763 14.0723 42.255 14.0723 42.1195C14.0723 41.932 14.1624 41.711 14.2389 41.5604C14.3714 41.2984 14.6404 40.8847 14.9596 41.0458C15.0438 41.0888 15.0942 41.1446 15.1197 41.2225C15.1731 41.3837 15.1195 41.6483 14.9755 41.9317C14.8323 42.2151 14.6512 42.4155 14.4906 42.4686V42.4686Z" fill="#DBA111"/>
<path d="M16.6202 41.476L16.4966 41.8302C16.4966 41.8302 16.8126 41.9411 16.9086 41.9728C16.7876 42.3187 16.23 43.9104 16.23 43.9104L17.0579 44.2007C17.0579 44.2007 17.6164 42.6105 17.7371 42.2645C17.8336 42.2982 18.1498 42.4081 18.1498 42.4081L18.3504 41.8364L16.6971 41.2563L16.6202 41.476" fill="#DBA111"/>
<path d="M20.0577 42.2441L18.9388 42.0078L18.891 42.2354L18.3909 44.61L19.5296 44.8515C19.8935 44.9266 20.1331 44.8372 20.2697 44.7489C20.4432 44.6357 20.5648 44.4501 20.6115 44.2282C20.6244 44.1678 20.6305 44.1093 20.6305 44.0519C20.6305 43.8916 20.5797 43.747 20.4879 43.6228C20.6161 43.521 20.7076 43.3772 20.7457 43.1977C20.7553 43.1514 20.7611 43.0991 20.7611 43.0445C20.7611 42.7405 20.5875 42.3546 20.0577 42.2441H20.0577ZM19.7497 44.057C19.7378 44.1112 19.716 44.183 19.6749 44.2098C19.6369 44.2345 19.5639 44.2376 19.4694 44.2171C19.4694 44.2171 19.4264 44.2076 19.3755 44.1976C19.4118 44.0262 19.4362 43.9122 19.4716 43.7407C19.5203 43.7521 19.5825 43.7643 19.5825 43.7643C19.7293 43.7953 19.7575 43.904 19.7575 43.9828C19.7576 44.0145 19.7535 44.0414 19.7497 44.0569L19.7497 44.057ZM19.6733 42.786C19.7715 42.8084 19.8437 42.8444 19.8715 42.8864C19.8842 42.9057 19.8905 42.9328 19.8905 42.9647C19.8905 42.984 19.8878 43.0063 19.8828 43.0331C19.8677 43.1027 19.8473 43.1993 19.6538 43.1596C19.6538 43.1596 19.6296 43.1532 19.5964 43.1461C19.6273 43.0024 19.6419 42.9307 19.6732 42.7861L19.6733 42.786Z" fill="#DBA111"/>
<path d="M22.1232 42.6308L20.9079 45.1194L21.6019 45.1726C21.6019 45.1726 21.7897 44.7761 21.8648 44.6182C22.0116 44.6304 22.1587 44.6407 22.3026 44.6523C22.3564 44.8185 22.492 45.2404 22.492 45.2404L23.4154 45.3122L22.3837 42.1143L22.1232 42.6308" fill="#DBA111"/>
<path d="M24.8634 44.617C24.8481 44.2533 24.7782 42.5977 24.7782 42.5977L23.9013 42.6345L24.0122 45.2916L25.7695 45.2186L25.7431 44.5811C25.7431 44.5812 25.1155 44.6079 24.8634 44.617" fill="#DBA111"/>
<path d="M27.2687 44.3626C27.2122 44.0031 26.9556 42.3662 26.9556 42.3662L26.7257 42.4031L26.0878 42.5024L26.4996 45.1306L28.2379 44.8576L28.1383 44.2271C28.1383 44.2271 27.5182 44.325 27.2687 44.3626Z" fill="#DBA111"/>
<path d="M32.3011 42.595C32.294 42.8228 32.1597 43.019 31.9502 43.1019C31.8341 43.1481 31.7232 43.1481 31.6121 43.101C31.4417 43.028 31.2837 42.8434 31.1889 42.6062C31.0773 42.3264 31.0546 42.0887 31.1278 41.9217C31.1781 41.8047 31.2768 41.7174 31.4274 41.657C31.5907 41.5921 31.7457 41.6518 31.9582 41.777L32.1531 41.892L32.4767 41.3815L32.2846 41.2553C31.9316 41.0234 31.4946 40.976 31.1165 41.1271C30.7656 41.2669 30.4936 41.5287 30.3498 41.8633C30.2039 42.2027 30.2039 42.5911 30.3518 42.9594C30.6311 43.6576 31.4204 44.0015 32.1105 43.7252C32.6092 43.526 32.8914 43.1471 32.9274 42.6296L32.9438 42.3987L32.3085 42.3515L32.301 42.5951" fill="#DBA111"/>
<path d="M34.3481 41.869C34.1685 41.5497 33.3614 40.1021 33.3614 40.1021L33.1593 40.2161L32.5946 40.5314L33.8924 42.8533L35.4267 41.9962L35.1161 41.4388C35.1162 41.4388 34.567 41.745 34.3481 41.869" fill="#DBA111"/>
<path d="M36.0546 38.2881L35.8665 38.4257L35.5369 38.668L36.614 40.136C36.6632 40.2024 36.6632 40.2469 36.6589 40.2727C36.6486 40.3484 36.5697 40.4305 36.4999 40.4808C36.467 40.5043 36.3909 40.5363 36.3129 40.524C36.2573 40.516 36.2134 40.4858 36.1743 40.433L35.1099 38.9814L34.4005 39.5007L35.4598 40.945C35.617 41.1588 35.8122 41.2852 36.04 41.32C36.2956 41.3598 36.5861 41.2728 36.8561 41.0733C37.4115 40.6672 37.4024 40.128 37.16 39.7976L36.0546 38.2881" fill="#DBA111"/>
<path d="M39.2863 37.7547C39.123 37.5852 38.9217 37.5091 38.7102 37.5206C38.6978 37.3563 38.6341 37.1993 38.507 37.0678C38.2852 36.8388 37.7892 36.6604 37.3326 37.1049L36.5111 37.8993L38.362 39.8102L39.1976 39.0001C39.4647 38.7414 39.5235 38.4909 39.526 38.3289C39.5305 38.1211 39.445 37.9177 39.2863 37.7547ZM37.888 37.6902C37.9155 37.7196 37.9492 37.7539 37.9492 37.8017C37.9492 37.8409 37.9279 37.8893 37.8638 37.9506C37.8638 37.9506 37.8464 37.9681 37.823 37.9916C37.7193 37.8841 37.6701 37.8336 37.565 37.7256C37.7503 37.5556 37.8273 37.6282 37.888 37.6902V37.6902ZM38.3262 38.3481C38.4762 38.2033 38.6206 38.3305 38.6618 38.3738C38.7017 38.4137 38.7471 38.4702 38.7471 38.5191C38.7471 38.5191 38.7471 38.5191 38.7471 38.5207C38.7462 38.5658 38.708 38.6283 38.6392 38.6951C38.6392 38.6951 38.6073 38.7261 38.5695 38.7617C38.4484 38.6365 38.3665 38.5525 38.2452 38.428C38.2811 38.3923 38.3262 38.3481 38.3262 38.3481V38.3481Z" fill="#DBA111"/>
<path d="M10.2567 37.5851C10.3291 37.6547 10.8696 38.1702 10.8696 38.1702L11.0478 37.9823L10.052 37.0327L10.012 37.0747L8.4577 38.7051L8.84061 39.0705C8.84061 39.0705 9.50283 38.3765 9.57411 38.3006C9.64652 38.3695 10.1337 38.8335 10.1337 38.8335L10.3123 38.6461C10.3123 38.6461 9.82505 38.1824 9.75264 38.1136C9.81727 38.0459 10.1927 37.652 10.2567 37.5851" fill="white"/>
<path d="M12.6385 39.1416C12.3917 38.9659 12.0964 38.8957 11.8065 38.9442C11.4882 38.9988 11.2027 39.1846 11.0007 39.4689C10.798 39.7542 10.7167 40.0849 10.7707 40.402C10.8193 40.6927 10.9827 40.9493 11.2297 41.1244C11.478 41.3011 11.7746 41.3702 12.0658 41.3214C12.3824 41.2682 12.6682 41.0816 12.87 40.7991C13.0312 40.5713 13.1165 40.3133 13.1165 40.0577C13.1165 39.994 13.1109 39.9295 13.1005 39.8659C13.0511 39.5756 12.8875 39.3183 12.6385 39.1416H12.6385ZM12.4139 40.4742C12.2469 40.7077 11.8121 41.221 11.3794 40.9132C10.9483 40.6072 11.2906 40.0285 11.4569 39.7934C11.6237 39.5583 12.0586 39.0459 12.4892 39.352C12.922 39.6608 12.5807 40.2398 12.4139 40.4742V40.4742Z" fill="white"/>
<path d="M15.1547 40.6599C14.5721 40.3652 13.897 40.6104 13.584 41.2295C13.4264 41.5407 13.3953 41.8794 13.4953 42.1865C13.5872 42.4654 13.7869 42.6935 14.0579 42.8298C14.3294 42.9686 14.6338 42.9933 14.9143 42.901C15.2193 42.8002 15.474 42.5742 15.6316 42.2632C15.9437 41.6442 15.739 40.9543 15.1547 40.6599V40.6599ZM14.1738 42.5988C13.702 42.3615 13.9531 41.7373 14.0834 41.4809C14.2134 41.2233 14.5665 40.6512 15.0376 40.8906C15.163 40.9533 15.2467 41.0466 15.2866 41.1687C15.3791 41.4513 15.229 41.8166 15.1311 42.0107C15.0336 42.2033 14.8278 42.5412 14.5449 42.6339C14.4238 42.6749 14.2986 42.6625 14.1738 42.5988Z" fill="white"/>
<path d="M16.7855 41.533L16.7186 41.7221C16.7186 41.7221 17.0483 41.838 17.1309 41.8671C17.0943 41.9706 16.4517 43.803 16.4517 43.803L16.9512 43.9785C16.9512 43.9785 17.5943 42.1462 17.6302 42.0424C17.7128 42.0712 18.0425 42.1864 18.0425 42.1864L18.1287 41.943L16.8038 41.478L16.7855 41.533" fill="white"/>
<path d="M20.0224 42.414L19.0742 42.2139L19.0614 42.2714L18.598 44.4766L19.5655 44.6797C19.8115 44.7312 20.0162 44.7056 20.1745 44.6019C20.3115 44.5125 20.4033 44.3699 20.4409 44.1924C20.4505 44.144 20.4563 44.0977 20.4563 44.0526C20.4563 43.8597 20.3606 43.6964 20.1899 43.5794C20.3876 43.5225 20.5292 43.377 20.5747 43.161C20.5825 43.1273 20.5871 43.0874 20.5871 43.0423C20.587 42.8217 20.471 42.5086 20.0225 42.414H20.0224ZM19.6909 42.6092C19.8504 42.6429 19.9608 42.7039 20.0169 42.7907C20.0492 42.8399 20.0652 42.8976 20.0652 42.9646C20.0652 42.9974 20.0609 43.0313 20.0533 43.0681C19.9917 43.3618 19.7545 43.3587 19.618 43.3289C19.618 43.3289 19.4736 43.2991 19.3899 43.2815C19.4094 43.191 19.5195 42.6676 19.5385 42.5774C19.5991 42.5897 19.6909 42.6092 19.6909 42.6092V42.6092ZM19.618 43.5935C19.8874 43.6502 19.93 43.8627 19.93 43.9919C19.93 44.0473 19.9213 44.0869 19.9202 44.0935C19.893 44.2209 19.8444 44.307 19.7698 44.3552C19.691 44.4078 19.5774 44.4179 19.4337 44.3881C19.4337 44.3881 19.2612 44.3513 19.1688 44.3329C19.1887 44.2381 19.3176 43.6273 19.3371 43.5342C19.4161 43.5506 19.618 43.5935 19.618 43.5935H19.618Z" fill="white"/>
<path d="M22.2804 42.7076L21.1774 44.9653L21.4951 44.989C21.4951 44.989 21.7286 44.4983 21.7595 44.4356C21.8266 44.4407 22.3665 44.4828 22.4328 44.4881C22.4539 44.5528 22.6223 45.0762 22.6223 45.0762L23.1694 45.1184L22.3502 42.5786L22.2804 42.7076V42.7076ZM22.1593 43.6154C22.2127 43.7859 22.3153 44.1147 22.3492 44.222C22.2402 44.2139 21.9893 44.1945 21.8815 44.1863C21.9309 44.0848 22.0813 43.7757 22.1593 43.6154Z" fill="white"/>
<path d="M24.6959 44.7991C24.6916 44.6891 24.6105 42.7798 24.6105 42.7798L24.5541 42.7818L24.082 42.8011L24.179 45.111L25.5882 45.0512L25.5757 44.7629C25.576 44.763 24.7978 44.7959 24.6959 44.7992" fill="white"/>
<path d="M27.1239 44.5638C27.1063 44.4549 26.8099 42.5649 26.8099 42.5649L26.7533 42.574L26.2874 42.6478L26.6456 44.9312L28.0388 44.7112L27.9938 44.4259C27.9937 44.4261 27.2236 44.547 27.1239 44.5638" fill="white"/>
<path d="M32.4746 42.5989C32.4663 42.8997 32.2898 43.1545 32.0147 43.2653C31.8545 43.3291 31.6964 43.3268 31.5435 43.2612C31.3281 43.1701 31.14 42.9543 31.026 42.6711C30.8976 42.3476 30.8769 42.0644 30.9666 41.8526C31.0364 41.6925 31.169 41.5726 31.3628 41.4957C31.6165 41.3941 31.8493 41.5099 32.0465 41.6269L32.0957 41.6556L32.2375 41.433L32.19 41.401C31.8842 41.2006 31.5064 41.1588 31.1813 41.289C30.8732 41.4125 30.634 41.6403 30.5098 41.9319C30.3823 42.2274 30.3836 42.5703 30.5139 42.8935C30.7571 43.5035 31.4436 43.8031 32.0466 43.5629C32.4838 43.3874 32.7211 43.0702 32.7528 42.6175L32.757 42.5591L32.4779 42.5398L32.4746 42.5989" fill="white"/>
<path d="M34.2804 42.106C34.226 42.0106 33.2938 40.3403 33.2938 40.3403L33.2425 40.3689L32.8319 40.5988L33.958 42.6155L35.189 41.9281L35.049 41.6757C35.0492 41.6759 34.3676 42.0556 34.2804 42.106" fill="white"/>
<path d="M36.0165 38.5317L35.969 38.5667L35.7802 38.7053L36.7545 40.0327C36.8197 40.122 36.8453 40.2112 36.8314 40.2985C36.8082 40.4567 36.6642 40.5781 36.6038 40.6212C36.5347 40.6733 36.4083 40.7164 36.2872 40.6967C36.1844 40.6816 36.1002 40.6272 36.0327 40.5368L35.0709 39.2249L34.6448 39.539L35.6004 40.8416C35.7289 41.0173 35.886 41.1209 36.0664 41.1477C36.351 41.1907 36.618 41.0322 36.7523 40.9343C37.2134 40.5953 37.2196 40.1712 37.0203 39.9014L36.0165 38.5317" fill="white"/>
<path d="M39.1609 37.8758C38.982 37.6908 38.7532 37.6486 38.5159 37.7399C38.5347 37.6846 38.5459 37.6281 38.5459 37.5717C38.5459 37.4345 38.4913 37.3006 38.3814 37.1876C38.2327 37.0346 37.8475 36.8456 37.4536 37.2286L36.7574 37.9031L38.3648 39.5625L39.0765 38.8724C39.256 38.7 39.3497 38.5142 39.3519 38.3263C39.3547 38.1622 39.2881 38.007 39.1609 37.8758V37.8758ZM38.1229 37.8037C38.1229 37.92 38.0472 38.0154 37.9862 38.075C37.9862 38.075 37.8795 38.1787 37.8192 38.238C37.7542 38.1714 37.3817 37.7876 37.318 37.7195C37.3612 37.6777 37.4293 37.6129 37.4293 37.6129C37.6468 37.401 37.8378 37.387 38.013 37.5687C38.0933 37.6521 38.1229 37.7308 38.1229 37.8037V37.8037ZM38.5656 39.0079C38.4998 38.94 38.0655 38.4906 37.9988 38.4227C38.0562 38.3675 38.2049 38.2228 38.2049 38.2228C38.4886 37.9495 38.776 38.2392 38.7883 38.2526C38.8776 38.3449 38.9215 38.4322 38.9215 38.5191C38.9215 38.5207 38.9215 38.5216 38.9215 38.5224C38.9204 38.6178 38.8651 38.7177 38.7602 38.8214C38.7604 38.8214 38.6218 38.9546 38.5656 39.0079V39.0079Z" fill="white"/>
<path d="M13.3372 8.18937L12.3671 8.451L12.4784 8.79847C12.6124 9.21975 12.4912 9.66082 12.1628 9.94881C11.9801 10.109 11.7692 10.1825 11.5365 10.1665C11.183 10.1428 10.7839 9.91397 10.4695 9.55408C10.0989 9.12957 9.91401 8.72091 9.93754 8.37456C9.9539 8.12201 10.0767 7.90016 10.3123 7.69376C10.5725 7.46586 10.9025 7.47474 11.3501 7.5635L11.6821 7.62914L11.8968 6.70004L11.5626 6.61855C10.8439 6.44073 10.0945 6.61541 9.55978 7.08345C8.51264 7.99973 8.42721 9.49612 9.36116 10.5642C10.2291 11.5564 11.7349 11.6645 12.7165 10.806C13.4234 10.1885 13.6697 9.39848 13.4296 8.5237L13.3372 8.18937" fill="#DBA111"/>
<path d="M15.9715 3.32393L14.9806 3.79055C14.9806 3.79055 15.5337 4.96281 15.7239 5.36682C15.4412 5.49971 15.1675 5.62906 14.8846 5.76265C14.6937 5.35894 14.1402 4.18618 14.1402 4.18618L12.8355 4.80215L14.8226 9.01697L16.1284 8.40131C16.1284 8.40131 15.5127 7.09768 15.3147 6.67499C15.5976 6.54261 15.8711 6.41335 16.1546 6.27986C16.3532 6.70135 16.968 8.00517 16.968 8.00517L18.2736 7.38911L16.2871 3.17529L15.9715 3.32393" fill="#DBA111"/>
<path d="M20.3893 5.93477C20.3257 5.62093 20.261 5.30164 20.1982 4.9882C20.6013 4.90712 21.6725 4.69082 21.6725 4.69082L21.4841 3.75465C21.4841 3.75465 20.4124 3.97125 20.009 4.05274C19.9509 3.76576 19.9029 3.52473 19.8444 3.23815C20.263 3.15373 21.4094 2.92209 21.4094 2.92209L21.2204 1.98633L20.8775 2.05519L18.2407 2.58846L19.1625 7.1564L22.1664 6.54912L21.9777 5.61386C21.9777 5.61386 20.8108 5.84904 20.3893 5.93477" fill="#DBA111"/>
<path d="M24.65 1.87813L23.2054 1.84814L23.1982 2.19652L23.1079 6.50686L26.1403 6.57048L26.162 5.56121C26.162 5.56121 24.9978 5.53616 24.5724 5.52748C24.5845 4.95695 24.6499 1.87813 24.6499 1.87813" fill="#DBA111"/>
<path d="M29.3311 4.22806C28.9563 3.9528 28.8467 3.84243 28.8845 3.69207C28.9031 3.61412 28.988 3.36521 29.2572 3.43185C29.4192 3.47346 29.5804 3.55878 29.6522 3.90736L29.731 4.29431L30.6849 3.97198L30.6255 3.67168C30.5082 3.08186 30.0093 2.5798 29.3832 2.42339C28.9347 2.31201 28.4852 2.37158 28.1162 2.59323C27.7775 2.7961 27.5393 3.1163 27.4451 3.49527C27.2057 4.45052 27.8496 4.91047 28.2753 5.21523C28.7119 5.52735 28.8228 5.64953 28.7562 5.91026C28.7353 5.99175 28.6873 6.05607 28.6122 6.10161C28.5248 6.15301 28.4152 6.17159 28.326 6.14836C28.0967 6.09192 27.9974 5.98357 27.9008 5.687L27.7837 5.33145L26.8266 5.72284L26.9193 6.02669C27.0987 6.6171 27.5271 6.98921 28.2281 7.16481C29.0159 7.36192 29.9717 6.99961 30.2098 6.05365C30.4582 5.05689 29.7798 4.55745 29.3311 4.22806" fill="#DBA111"/>
<path d="M32.7774 6.71346C33.145 6.89926 34.1195 7.39203 34.1195 7.39203L34.5504 6.53998C34.5504 6.53998 33.5752 6.04721 33.2088 5.86201C33.3399 5.60068 33.4511 5.38095 33.5821 5.12013C33.9624 5.31219 35.0076 5.84041 35.0076 5.84041L35.4373 4.98835L32.725 3.61768L32.5681 3.92818L30.6225 7.77636L33.3576 9.15774L33.7889 8.30619C33.7889 8.30619 32.7261 7.76929 32.3421 7.57591C32.4858 7.28994 32.6336 6.99953 32.7774 6.71346" fill="#DBA111"/>
<path d="M38.1793 7.14873L33.8331 9.39761L34.6645 10.1207C34.6645 10.1207 35.3819 9.73932 35.6426 9.6024C35.8365 9.77123 36.1222 10.0198 36.313 10.1855C36.2195 10.4628 35.9538 11.2425 35.9538 11.2425L37.0993 12.2391L38.9575 6.75977L38.1793 7.14873" fill="#DBA111"/>
<path d="M13.1743 8.47283L12.662 8.61208L12.6996 8.728C12.8624 9.23936 12.7155 9.77424 12.3152 10.1243C12.0852 10.3261 11.8171 10.4185 11.521 10.3994C11.1011 10.3712 10.6546 10.1192 10.2942 9.70699C9.8821 9.23522 9.67783 8.7688 9.70489 8.35802C9.72611 8.0461 9.87897 7.76356 10.1593 7.51839C10.5274 7.19657 10.9907 7.25544 11.3954 7.33552L11.5065 7.35704L11.6186 6.87143L11.5072 6.84366C10.8614 6.68513 10.1912 6.84013 9.71277 7.25899C8.7662 8.08802 8.69016 9.44203 9.53656 10.4106C10.3199 11.3063 11.6777 11.4044 12.5641 10.6303C13.2068 10.0667 13.4228 9.37942 13.2051 8.58543L13.1743 8.47284" fill="white"/>
<path d="M16.0704 3.53276L15.2909 3.90133C15.2909 3.90133 15.9471 5.29392 16.0335 5.47699C15.8667 5.55606 14.9407 5.99299 14.7727 6.07145C14.6865 5.88807 14.0307 4.49559 14.0307 4.49559L13.1446 4.91303L14.9334 8.70627L15.8189 8.28943C15.8189 8.28943 15.0927 6.75002 15.0052 6.56372C15.1731 6.48465 16.098 6.04883 16.2659 5.96946C16.3532 6.15526 17.0796 7.69558 17.0796 7.69558L17.964 7.27773L16.1752 3.48389L16.0704 3.53276" fill="white"/>
<path d="M20.2067 6.20897C20.1704 6.0267 19.9607 4.98885 19.9244 4.80658C20.1184 4.7676 21.3985 4.5089 21.3985 4.5089L21.3016 4.02966C21.3016 4.02966 20.0219 4.28725 19.8268 4.32673C19.7914 4.148 19.6067 3.23486 19.5713 3.05633C19.7668 3.01624 21.1353 2.74067 21.1353 2.74067L21.0383 2.26123L18.5148 2.77046L19.3449 6.88188L21.8924 6.3676L21.7956 5.88816C21.7954 5.88826 20.4038 6.16908 20.2067 6.20897" fill="white"/>
<path d="M24.4121 2.10616L23.4339 2.08496L23.4318 2.20048L23.3452 6.27868L25.9133 6.33311L25.9247 5.78873C25.9247 5.78873 24.5345 5.75935 24.3353 5.75511C24.3404 5.5375 24.4122 2.10617 24.4122 2.10617" fill="white"/>
<path d="M29.3137 3.20706C29.6247 3.28491 29.8044 3.49273 29.8805 3.86079L29.907 3.98944L30.4172 3.81697L30.3979 3.71629C30.2971 3.21373 29.8672 2.78437 29.3271 2.64855C28.9389 2.55171 28.5521 2.60251 28.2368 2.79184C27.9515 2.9633 27.7504 3.23342 27.6711 3.552C27.4701 4.35326 27.9924 4.72648 28.4113 5.02588C28.8353 5.32911 29.0908 5.53612 28.982 5.96618C28.9388 6.14522 28.8218 6.24751 28.7317 6.30133C28.5919 6.38504 28.4205 6.41119 28.2698 6.37423C27.9605 6.29668 27.8013 6.13037 27.6805 5.75938L27.6411 5.64083L27.1116 5.85682L27.1424 5.95851C27.2963 6.46451 27.6704 6.78532 28.286 6.93941C28.9624 7.10835 29.782 6.80228 29.984 5.99658C30.1944 5.1521 29.6401 4.74344 29.1914 4.41546C28.8106 4.13434 28.5806 3.94642 28.6589 3.63581C28.7274 3.35812 28.9574 3.1178 29.3137 3.20706" fill="white"/>
<path d="M33.4797 4.808C33.6582 4.89776 34.9036 5.52716 34.9036 5.52716L35.1253 5.09023L32.828 3.92969L32.7754 4.03329L30.9359 7.67365L33.2547 8.8455L33.4756 8.40877C33.4756 8.40877 32.2096 7.76867 32.0303 7.67769C32.1139 7.51148 32.5916 6.56764 32.6747 6.40133C32.8514 6.49059 34.0163 7.07929 34.0163 7.07929L34.2384 6.64236C34.2384 6.64236 33.0722 6.05416 32.8955 5.96439C32.9777 5.80222 33.3977 4.97016 33.4797 4.808" fill="white"/>
<path d="M38.2862 7.35577L34.2446 9.44743L34.6962 9.84013C34.6962 9.84013 35.5533 9.38573 35.6746 9.32151C35.7752 9.40936 36.4856 10.0273 36.584 10.1131C36.5412 10.2408 36.2237 11.169 36.2237 11.169L36.9908 11.8359L38.5524 7.23096L38.2862 7.35577ZM36.1426 9.08088C36.3337 8.98202 36.8221 8.72826 37.12 8.57326C37.0091 8.88993 36.8264 9.41138 36.7563 9.61434C36.6013 9.47863 36.2978 9.21487 36.1426 9.08088Z" fill="white"/>
<path d="M35.4659 23.3701C35.1344 22.4922 33.993 22.1108 32.9141 22.518C32.4642 22.6873 32.0957 22.9702 31.8445 23.3043C32.5569 21.271 35.4588 20.8395 35.4588 18.9479C35.4588 15.7773 30.9562 16.6654 31.6113 18.9483C31.6113 17.9125 33.2599 17.7227 33.2599 18.9483C33.2599 20.1742 30.3854 20.9781 30.3854 23.049C30.3854 25.3321 32.6688 25.5433 32.4376 27.6313C32.3984 27.9913 32.0112 28.4644 31.4508 28.4644C27.9534 28.4644 29.2019 24.1591 27.9799 22.849L28.0438 21.9644C28.7502 22.3976 30.6245 21.3828 29.3906 19.8358C29.3906 20.5966 27.8065 20.5545 27.8065 19.1172C27.8065 17.1723 29.6247 18.1872 29.7131 18.6166C29.6259 17.9084 29.593 17.4589 29.7099 17.0508C28.7297 17.3668 28.638 16.8002 28.762 16.581C28.904 16.3274 29.094 16.0313 29.4759 16.0313C29.6823 16.0313 29.8062 16.0601 29.8792 16.1103C30.0012 16.1939 30.0905 16.0031 30.073 16.1805C30.178 16.0209 30.1359 16.2202 30.2371 16.0601C30.3402 15.901 30.4791 15.7212 30.723 15.4816L30.7125 15.1228L30.9981 15.2275L31.2723 14.7841C30.9764 14.1707 30.5749 14.4661 30.2792 13.7056C30.0319 13.6413 26.1805 14.0602 26.2922 12.5238C25.9782 12.5238 25.2343 12.6959 25.6946 13.3214C25.3367 13.3646 25.0787 12.958 24.539 14.0576C25.215 13.9308 24.8651 14.6865 24.8651 14.9014C24.8651 16.2945 23.0105 16.271 23.0105 15.6185C22.5636 16.0528 22.8172 17.0025 23.4931 17.2365C23.4931 17.2365 23.236 18.2523 22.6015 18.8963C21.6596 18.8588 20.1484 18.6951 19.2791 17.8733C18.9042 17.5192 18.6065 17.3262 18.3529 17.2271V16.7666C18.7241 16.5849 19.1312 16.2634 19.5542 15.7261C19.8842 15.3231 20.0628 14.8063 20.0147 14.2575C20.0085 14.192 19.9988 14.1272 19.9873 14.0641C19.9837 14.044 19.9788 14.0245 19.9741 14.0045C19.9648 13.9603 19.9541 13.9179 19.9413 13.8742C19.9351 13.8531 19.9294 13.8315 19.9227 13.8106C19.9084 13.7667 19.8926 13.7248 19.8756 13.6832C19.8684 13.6658 19.8634 13.6472 19.855 13.6308C19.8314 13.5748 19.8052 13.5221 19.7768 13.469C19.7647 13.4474 19.7519 13.4274 19.7401 13.4076C19.7206 13.3757 19.7021 13.3433 19.6816 13.3125C19.665 13.2881 19.6477 13.2634 19.6302 13.2387C19.6122 13.2152 19.5932 13.1911 19.5748 13.1674C19.5542 13.1422 19.5341 13.1154 19.5122 13.0904C19.4976 13.0738 19.4819 13.0579 19.4665 13.0426C19.4116 12.9819 19.352 12.9255 19.2898 12.8716C19.2846 12.8671 19.2785 12.8614 19.2724 12.8567C19.2377 12.827 19.2006 12.7987 19.1642 12.7716C19.1549 12.7645 19.1452 12.7577 19.1348 12.7504C19.0958 12.7229 19.0559 12.6961 19.0143 12.6704C19.0118 12.6688 19.0095 12.6678 19.0077 12.666C18.6118 12.4236 18.1335 12.2968 17.6283 12.3369C16.4119 12.4337 15.5078 13.4501 15.6093 14.6071C15.6884 15.5085 16.3533 16.2285 17.2176 16.4581C16.9144 16.6274 16.6582 16.725 16.6003 16.725C16.6099 16.7312 16.6225 16.7383 16.6361 16.7471C16.6396 16.7487 16.6438 16.7513 16.648 16.7534C16.6597 16.7609 16.6737 16.7687 16.6879 16.7764C16.6914 16.7785 16.6958 16.7804 16.6992 16.7826C16.7187 16.7924 16.7388 16.8026 16.7614 16.8134C16.7649 16.815 16.7692 16.8163 16.7727 16.818C16.7927 16.8273 16.8131 16.837 16.8347 16.8453C16.8409 16.8481 16.8476 16.8506 16.8542 16.8529C16.9071 16.875 16.9667 16.8949 17.0318 16.9134C17.0411 16.916 17.0509 16.9181 17.0589 16.9206C17.0853 16.9273 17.112 16.9334 17.1397 16.9401C17.1488 16.9417 17.1581 16.9436 17.1679 16.9456C17.2028 16.9519 17.2393 16.9581 17.276 16.9625C17.2791 16.9625 17.2823 16.9641 17.2853 16.9641V17.2259C17.2716 17.229 17.2591 17.2304 17.2463 17.2324C16.8507 17.2975 16.5936 17.4193 16.4774 17.7715C16.3618 18.125 16.4805 18.2528 16.6658 18.5008C16.5093 18.7806 16.0991 18.8852 16.6344 19.5034C16.5954 19.7369 16.6448 20.1087 16.9846 20.2214C17.0954 20.259 17.1878 20.279 17.2853 20.2959L17.2848 24.9304C16.9459 25.1099 16.7787 25.3339 16.6862 25.5426C16.6862 25.5426 16.4142 24.9386 16.4322 26.135C16.7413 25.8952 16.6196 26.4127 16.6196 26.4127C16.1987 26.958 16.7333 26.9284 16.7333 26.9284C17.0958 26.5663 17.0219 27.0925 17.0219 27.0925C17.0219 27.7342 17.2825 27.9853 17.2847 27.9864V31.517L16.9768 31.518L16.9798 32.4922L17.5182 32.4913C17.2161 32.6167 17.0167 32.9151 17.0458 33.2449C17.0824 33.6606 17.4664 33.9695 17.9037 33.9358C18.3407 33.9006 18.6654 33.5362 18.6281 33.1195C18.6034 32.8319 18.4129 32.5972 18.1537 32.4894L18.6506 32.488L18.6485 31.5138L18.3522 31.5151L18.3527 28.3826C18.4138 28.4161 18.4798 28.4393 18.5515 28.455C18.5801 28.4604 18.6085 28.4643 18.6376 28.4662C18.6505 28.4683 18.6638 28.4683 18.6766 28.4686C18.5969 28.0568 18.8429 27.7839 18.8429 27.7839C18.9692 27.5938 19.1519 27.4455 19.3598 27.3409C19.9816 27.029 20.83 27.1078 21.0835 27.6157C22.6902 27.1922 24.0709 25.5772 24.0709 25.5772L24.8617 26.9233C23.185 27.4839 19.5328 30.6588 22.068 31.7585C22.067 32.0786 22.0241 34.4542 20.5008 34.2655C18.3069 33.9953 17.7598 34.9029 18.1811 35.9233C17.9831 36.7838 18.6457 37.0825 18.6457 37.0825C18.5463 36.5854 18.7853 36.1736 19.692 36.1789C19.6873 37.0856 20.2729 37.2491 20.2729 37.2491C20.277 36.4726 20.8165 36.1851 21.2959 36.1872C21.2924 36.827 22.0356 37.0701 22.0356 37.0701C22.0356 37.0701 21.8472 36.3328 22.6875 36.1872C24.8145 35.8166 22.8168 33.629 26.0514 33.0262C26.0514 33.0262 24.4407 32.7833 24.4407 31.9028C24.4407 31.1013 25.8988 30.5533 26.4007 30.5533C27.4302 32.5203 28.5486 32.5358 28.8418 32.5499C29.2977 33.0591 29.1449 34.7755 28.4867 34.7418C26.0773 34.6124 26.1654 36.078 26.4355 36.3778C26.4047 36.9467 26.8473 37.2753 26.8473 37.2753C26.8473 36.6655 27.4275 36.4941 28.1716 36.5343C28.1325 37.2793 28.6071 37.3905 28.6071 37.3905C28.6201 36.6409 29.1747 36.5137 29.5687 36.5343C29.5399 37.0597 30.0614 37.2144 30.0614 37.2144C30.0614 37.2144 30.0101 36.5476 30.7121 36.5476C32.0438 36.5467 30.1097 33.6927 32.7088 30.8702C30.4257 31.927 29.211 29.2852 29.211 28.7782C30.3845 30.1514 34.1892 30.4256 34.1892 28.0799C34.1892 25.839 31.7262 25.004 32.8786 24.1469C33.5488 23.6485 34.8667 24.6553 34.1126 25.6953C35.194 25.2946 35.7965 24.2474 35.4657 23.37L35.4659 23.3701ZM20.8723 23.4407C20.0115 23.9468 19.4345 24.5871 18.6498 24.8672C18.5306 24.9091 18.4356 24.921 18.353 24.9156V20.5417C18.5609 20.5611 19.1004 20.635 19.7312 20.8958C20.356 21.2367 20.356 21.9413 19.5675 22.1083C20.0659 23.0625 21.7921 22.5953 22.1683 21.8182C22.3526 21.8019 22.5155 22.1308 22.6687 22.4419C22.4264 22.5677 21.9307 22.8177 20.8723 23.4407V23.4407ZM30.5065 16.1898C30.4118 16.3183 30.3185 16.446 30.2367 16.5554C30.455 16.9183 30.8657 17.1451 31.3156 17.1035C31.9374 17.0446 32.3952 16.4926 32.338 15.8702C32.3347 15.8476 32.3316 15.8272 32.3285 15.8051C32.2619 16.1274 31.882 16.4003 31.3988 16.445C31.033 16.4793 30.7018 16.3743 30.5065 16.1898H30.5065Z" fill="#D1D3D4"/>
<path d="M29.5405 15.859C29.7572 16.2218 30.1689 16.4486 30.6188 16.4067C31.2416 16.3485 31.6981 15.7963 31.6412 15.1731C31.6389 15.1511 31.6348 15.1299 31.6319 15.1079C31.5659 15.4298 31.1842 15.7035 30.702 15.7482C30.3351 15.7825 30.0044 15.6773 29.8091 15.493C29.715 15.6219 29.6206 15.7495 29.5405 15.859" fill="#ED1C24"/>
<path d="M26.2082 11.1064C26.1903 11.1064 26.1722 11.1134 26.1509 11.1208C25.76 11.2033 24.5599 12.0291 24.998 12.6245C24.6384 12.667 23.8037 12.4207 23.2651 13.5196C23.9417 13.3923 24.1674 13.9917 24.1674 14.207C24.1674 15.0225 23.5339 15.3496 23.0074 15.3527C22.6549 15.3536 22.3527 15.2101 22.3199 14.9661C22.3214 14.9589 22.3183 14.9518 22.3199 14.9446C22.3195 14.9439 22.3128 14.9455 22.3128 14.9446H22.2984C21.8786 15.3876 22.1336 16.3109 22.7997 16.5414C22.7997 16.5414 22.5392 17.5586 21.9046 18.2027C21.2729 18.1782 20.3909 18.0922 19.6132 17.7945C19.3955 17.7117 19.1894 17.6078 18.9974 17.4866C18.8491 17.3947 18.7069 17.2964 18.582 17.1787C18.2073 16.8246 17.9115 16.6323 17.6583 16.5343V16.0688C18.0295 15.8867 18.4383 15.5678 18.8613 15.0305C19.1918 14.6279 19.3679 14.1118 19.3196 13.5626C19.3144 13.4969 19.304 13.4334 19.2909 13.3692C19.288 13.3492 19.2809 13.3319 19.2766 13.3119C19.2669 13.2677 19.2607 13.2184 19.248 13.1759C19.2422 13.1542 19.2341 13.1329 19.2265 13.1114C19.2126 13.0676 19.1927 13.0313 19.1764 12.9897C19.1691 12.972 19.1693 12.9499 19.1621 12.9324C19.1379 12.8775 19.1112 12.8267 19.0833 12.7749C19.0722 12.7528 19.0591 12.7315 19.0475 12.7104C19.028 12.6787 19.0033 12.6482 18.983 12.6174C18.9662 12.5927 18.951 12.5703 18.9329 12.5457C18.915 12.5222 18.8947 12.4968 18.8756 12.4741C18.8552 12.4474 18.8405 12.4204 18.8183 12.3954C18.804 12.3788 18.7837 12.361 18.7682 12.3452C18.7127 12.2852 18.6584 12.2263 18.5964 12.1734C18.5901 12.1683 18.581 12.1635 18.5749 12.1591C18.54 12.1298 18.5049 12.0998 18.4675 12.0731C18.4576 12.0667 18.4485 12.0583 18.4388 12.0517C18.3992 12.0235 18.3589 11.9988 18.3171 11.9729C18.3147 11.9717 18.3122 11.9738 18.3099 11.9729C17.9143 11.7293 17.4401 11.604 16.9351 11.6435C16.8263 11.6522 16.7163 11.6715 16.6128 11.6936C15.5615 11.9266 14.823 12.8602 14.9158 13.9134C14.9944 14.8056 15.6405 15.5165 16.4911 15.7537C16.4998 15.7562 16.5107 15.7587 16.5198 15.7609C16.2159 15.9301 15.9621 16.0258 15.9039 16.0258C15.9138 16.0321 15.9259 16.0452 15.9397 16.0545C15.9433 16.0561 15.95 16.0523 15.9541 16.0545C15.9663 16.0616 15.9745 16.075 15.9899 16.0831C15.9936 16.0852 15.9999 16.0817 16.0042 16.0831C16.0224 16.0928 16.0395 16.1081 16.0615 16.1189C16.0655 16.1201 16.0727 16.1239 16.0758 16.1261C16.0951 16.1352 16.1177 16.1383 16.1402 16.1476C16.1464 16.1502 16.1479 16.1522 16.1546 16.1547C16.2086 16.176 16.2677 16.2008 16.3336 16.2192C16.3427 16.2212 16.3529 16.2237 16.3622 16.2263C16.3878 16.233 16.4133 16.2349 16.441 16.2407C16.4503 16.2432 16.4599 16.2457 16.4696 16.2478C16.5045 16.2545 16.5394 16.2647 16.577 16.2693C16.5797 16.2693 16.5887 16.2675 16.5914 16.2693V16.5271C16.579 16.5289 16.5617 16.5317 16.5484 16.5343C16.1537 16.5989 15.8981 16.7257 15.7822 17.0785C15.6667 17.432 15.7832 17.5609 15.9684 17.8089C15.8108 18.0877 15.4055 18.1928 15.9397 18.8114C15.9018 19.0443 15.9512 19.4144 16.2906 19.5274C16.4018 19.565 16.4943 19.5817 16.5914 19.599V24.232C16.2521 24.4118 16.0817 24.6389 15.9899 24.8478C15.9899 24.8478 15.3412 24.7607 15.3597 25.9577C15.6686 25.7167 15.9254 25.7143 15.9254 25.7143C15.505 26.259 15.8037 26.7597 15.8037 26.7597C16.1661 26.3967 16.3264 26.3945 16.3264 26.3945C16.3264 27.0389 16.5914 27.2896 16.5914 27.2896C16.5914 27.1925 16.5965 27.1043 16.6128 27.0175C16.5965 27.1043 16.5914 27.1925 16.5914 27.2896V30.8198H16.2835V31.271V31.7937H16.8205C16.7548 31.8212 16.6955 31.8581 16.6415 31.9011C16.4555 32.0427 16.3411 32.2614 16.3479 32.5026V32.5456C16.3849 32.9623 16.7693 33.2761 17.2072 33.2402C17.6437 33.206 17.9665 32.8396 17.9304 32.4238C17.9049 32.1375 17.7169 31.9015 17.4578 31.7937H17.9519V30.8198H17.6583V27.6835C17.7199 27.7154 17.7815 27.7412 17.8516 27.7551C17.8817 27.7619 17.9156 27.766 17.9447 27.7694C17.9576 27.7696 17.9677 27.7689 17.9805 27.7694C17.9009 27.3578 18.1452 27.0891 18.1452 27.0891C18.2726 26.8986 18.4538 26.75 18.6608 26.6452C19.2833 26.333 20.133 26.4096 20.3865 26.9173C21.9933 26.4944 23.3725 24.8836 23.3725 24.8836L24.1674 26.2227C22.4902 26.784 18.8397 29.9628 21.3747 31.0633C21.3736 31.3824 21.3291 33.7563 19.8065 33.5696C17.6132 33.2981 17.0655 34.2033 17.4865 35.2237C17.2877 36.0851 17.9519 36.3837 17.9519 36.3837C17.8528 35.8873 18.0909 35.4771 18.9974 35.4815C18.9925 36.3879 19.5774 36.5556 19.5774 36.5556C19.5805 35.7781 20.1214 35.4858 20.6014 35.4886C20.5982 36.1284 21.3389 36.3765 21.3389 36.3765C21.3389 36.3765 21.1494 35.6342 21.9905 35.4886C24.1168 35.118 22.1212 32.9345 25.3561 32.3308C25.3561 32.3308 23.7449 32.088 23.7449 31.2065C23.7449 30.4064 25.1986 29.8603 25.6998 29.8603C25.7002 29.8615 25.7064 29.8592 25.7069 29.8603C26.7363 31.8185 27.8564 31.836 28.1487 31.851C28.6043 32.3592 28.4489 34.0767 27.7907 34.0422C25.3813 33.9138 25.4657 35.3822 25.7356 35.682C25.7056 36.2518 26.1509 36.577 26.1509 36.577C26.1509 35.9668 26.7315 35.8002 27.4756 35.8395C27.4356 36.5837 27.9124 36.6916 27.9124 36.6916C27.9235 35.9419 28.4773 35.8187 28.872 35.8395C28.8444 36.3661 29.366 36.5198 29.366 36.5198C29.366 36.5198 29.3161 35.8546 30.0177 35.8538C31.3499 35.8538 29.4149 32.9978 32.0155 30.1754C29.7325 31.2327 28.5139 28.5916 28.5139 28.0845C29.6876 29.4582 33.4978 29.7278 33.4978 27.3827C33.4978 25.4906 31.7412 24.5995 31.8866 23.8525C31.9133 23.7153 32.0016 23.585 32.1802 23.4515C32.8513 22.9527 34.1693 23.9598 33.419 24.9982C34.4994 24.5974 35.102 23.5482 34.7724 22.671C34.4399 21.7931 33.2941 21.4118 32.216 21.8188C31.7643 21.9893 31.4 22.2719 31.1491 22.6065C31.8602 20.5733 34.7652 20.1453 34.7652 18.2528C34.7652 15.0822 30.2576 15.9698 30.9128 18.2528C30.9128 18.2185 30.9157 18.1856 30.9199 18.1526C30.9263 18.0934 30.9388 18.0406 30.9557 17.9879C31.209 17.1965 32.5669 17.1407 32.5669 18.2528C32.5669 19.4787 29.6883 20.284 29.6883 22.3559C29.6883 24.6389 31.9743 24.8444 31.7434 26.9316C31.7043 27.2929 31.3156 27.7694 30.7552 27.7694C29.5535 27.7694 28.9089 27.2585 28.5354 26.5377C27.8228 25.1611 28.0846 23.0146 27.2823 22.1554L27.3467 21.2675C28.0536 21.7012 29.9316 20.6877 28.7001 19.1407C28.7001 19.9023 27.1104 19.8542 27.1104 18.4175C27.1104 16.4727 28.9268 17.4944 29.0152 17.9234C28.9279 17.2156 28.8957 16.7619 29.0152 16.3552C28.034 16.6704 27.9407 16.1025 28.0628 15.8826C28.2064 15.6286 28.3977 15.3313 28.7789 15.3313C29.3299 15.3313 29.2948 15.5332 29.2658 15.8182C29.4762 15.4999 29.5351 15.266 30.0248 14.787L30.0177 14.429L30.3041 14.5293L30.5762 14.0853C30.2808 13.4719 29.8778 13.7724 29.5809 13.0112C29.3347 12.9466 26.0961 12.6433 26.2082 11.1064ZM25.4993 12.288C25.5119 12.3692 25.5388 12.4517 25.5852 12.5243C25.5388 12.4517 25.5119 12.3692 25.4993 12.288ZM17.0711 13.2117C17.373 13.1876 17.6397 13.4031 17.6655 13.6915C17.6905 13.9784 17.4665 14.2332 17.1642 14.2572C16.8613 14.2815 16.594 14.0655 16.5699 13.7774C16.5632 13.7009 16.5728 13.6306 16.5985 13.5626C16.5985 13.561 16.5978 13.556 16.5985 13.5554C16.6015 13.5451 16.6095 13.5369 16.6128 13.5268C16.6919 13.3574 16.8633 13.2285 17.0711 13.2117ZM24.4109 13.5124C24.447 13.5727 24.4733 13.6419 24.4968 13.7129C24.4733 13.6419 24.447 13.5727 24.4109 13.5124ZM22.2984 15.3169C22.3172 15.4282 22.358 15.5271 22.413 15.6177C22.3581 15.5269 22.317 15.4283 22.2984 15.3169ZM23.4871 16.8064C23.409 17.0178 23.299 17.2718 23.1792 17.5296C23.299 17.2718 23.409 17.0178 23.4871 16.8064ZM31.5358 17.2718C31.4051 17.3418 31.2822 17.4346 31.1849 17.5439C31.2829 17.4328 31.4033 17.3426 31.5358 17.2718ZM33.061 17.4437C33.1106 17.4983 33.1517 17.5613 33.1899 17.6298C33.1517 17.5613 33.1106 17.4983 33.061 17.4437ZM17.6583 19.8425C17.8662 19.8625 18.4034 19.9407 19.0332 20.2005C19.0404 20.2041 19.0484 20.2036 19.0546 20.2077C19.6603 20.553 19.6482 21.2469 18.8685 21.4107C19.3659 22.3656 21.0988 21.9014 21.475 21.1243C21.6583 21.1079 21.8156 21.4367 21.9691 21.7472C21.7272 21.8733 21.2368 22.1194 20.1789 22.7426C19.318 23.2493 18.7368 23.888 17.9519 24.1676C17.8323 24.2109 17.7403 24.2222 17.6583 24.2177V19.8425ZM22.5347 19.8926C22.4995 19.9925 22.4532 20.0869 22.3915 20.1719C22.4532 20.0869 22.4995 19.9925 22.5347 19.8926ZM18.1524 24.6473C18.0517 24.6676 17.9659 24.6831 17.8875 24.6831C17.9659 24.6831 18.0517 24.6676 18.1524 24.6473ZM16.2691 24.8979C16.2472 24.9138 16.2276 24.937 16.2118 24.9552C16.2294 24.9339 16.2433 24.9161 16.2691 24.8979ZM15.639 25.4064C15.5597 25.4956 15.4878 25.5889 15.4385 25.6856C15.487 25.5904 15.5612 25.4945 15.639 25.4064ZM32.5669 26.8313C32.5707 26.8914 32.574 26.9546 32.574 27.0175C32.574 27.0486 32.5662 27.0933 32.5597 27.1464C32.5662 27.0933 32.5669 27.0486 32.5669 27.0175C32.5669 26.9522 32.571 26.8936 32.5669 26.8313H32.5669ZM32.3234 27.7694C32.2957 27.8081 32.2645 27.8468 32.2303 27.884C32.2631 27.848 32.2967 27.8068 32.3234 27.7694ZM16.8133 31.8653C16.8471 31.8653 16.8818 31.8731 16.9136 31.8796C16.8818 31.8731 16.8471 31.8725 16.8133 31.8725C16.7831 31.8725 16.7558 31.8741 16.7274 31.8796C16.7558 31.874 16.7833 31.8653 16.8133 31.8653Z" fill="#034694"/>
<path d="M28.0283 13.7588L28.4194 13.7794L28.2237 14.0478C28.2236 14.0478 27.9625 14.1304 28.0283 13.7588ZM27.0954 13.7588H27.6589C27.6589 13.7588 27.6386 14.2135 28.05 14.2542L27.9626 14.399C27.9625 14.399 26.8569 14.11 27.0954 13.7588Z" fill="white"/>
<path d="M17.4179 17.6437C17.4374 17.5704 16.7539 17.1705 16.3821 17.0731C16.2255 17.0326 16.1048 17.2209 16.0853 17.2944C16.0663 17.3682 16.0792 17.5916 16.2353 17.6326C16.6074 17.73 17.3989 17.7172 17.4179 17.6437V17.6437ZM17.3619 18.3259C17.3676 18.2566 16.6859 18.0114 16.3342 17.9851C16.187 17.9743 16.1094 18.1647 16.1048 18.2334C16.0999 18.3034 16.1484 18.5025 16.2959 18.5129C16.647 18.5389 17.3574 18.3963 17.3619 18.3259ZM16.5879 16.2688V16.5301C16.6879 16.6302 17.0524 16.7476 17.094 16.7476V16.2301C17.0941 16.2302 16.8199 16.2876 16.5879 16.2688V16.2688ZM16.4452 18.8182C16.3385 18.8224 16.2984 18.964 16.301 19.0149C16.3019 19.0651 16.3528 19.2042 16.4596 19.2001C16.7136 19.191 17.2115 19.0311 17.2095 18.9813C17.2074 18.9314 16.6993 18.8094 16.4452 18.8182V18.8182ZM15.9221 25.7169C15.5018 26.2616 15.8045 26.7586 15.8045 26.7586C15.8045 26.3792 16.2373 25.8909 16.3338 25.7955C16.3338 25.7956 16.1856 25.7169 15.9221 25.7169V25.7169ZM17.2633 26.8727C17.1987 27.2087 17.3659 27.536 17.6554 27.6864C17.717 27.7184 17.7839 27.7436 17.854 27.7574C17.8841 27.7643 17.9123 27.7679 17.9415 27.7713C17.9543 27.7715 17.9672 27.7717 17.9801 27.7722C17.9801 27.7722 17.5543 27.3736 17.7255 26.9969C17.6144 26.9206 17.4487 26.8726 17.2633 26.8726V26.8727ZM16.494 15.7539C15.8565 15.4428 15.4032 14.6631 15.4032 13.749C15.4032 12.7789 15.9128 11.959 16.6131 11.6906C15.5617 11.9236 14.8201 12.8579 14.9129 13.9111C14.9915 14.8033 15.6433 15.5167 16.494 15.7539ZM23.2619 13.5163C23.9385 13.389 24.168 13.9905 24.168 14.2058C24.168 15.0213 23.5328 15.3499 23.0063 15.353V15.3535C25.4486 15.3535 24.588 12.1906 23.2619 13.5164V13.5163ZM21.6295 20.5347C22.7967 20.5347 22.7183 19.0102 22.4658 18.7576C22.8403 18.3833 23.611 16.6664 23.611 16.3492C23.611 16.3492 22.0705 16.017 22.3165 14.948C22.316 14.9473 22.316 14.9468 22.316 14.9459L22.2954 14.9422C21.8755 15.3852 22.1308 16.3091 22.7969 16.5396C22.7969 16.5396 22.5398 17.5555 21.9052 18.1996C21.2735 18.1751 20.388 18.092 19.6103 17.7943C20.8125 18.4324 22.0505 19.3967 21.6296 20.5347L21.6295 20.5347ZM17.0699 13.2151C17.3717 13.191 17.6374 13.4049 17.6632 13.6933C17.6882 13.9803 17.4635 14.234 17.1611 14.2579C16.8582 14.2822 16.5919 14.0682 16.5678 13.7802C16.5678 14.2267 16.9303 14.5896 17.3777 14.5896C17.3844 14.5896 17.3911 14.5891 17.3978 14.5891C17.4379 14.7872 17.4516 14.9976 17.387 15.1517C17.824 14.7717 18.1874 14.2964 18.1874 13.7801C18.1874 13.3325 17.824 12.9697 17.3777 12.9697C17.0051 12.9697 16.6931 13.2206 16.5977 13.5615C16.6685 13.3741 16.8476 13.233 17.0699 13.215L17.0699 13.2151ZM25.6715 12.6258C25.1436 12.0971 25.9237 11.1089 26.2103 11.1089C25.8968 11.1089 24.5378 11.9987 24.9991 12.6258C25.2537 12.6258 25.6715 12.6258 25.6715 12.6258ZM18.8711 21.4114C19.2898 21.5399 19.7107 21.3832 19.8088 21.0615C19.9068 20.7392 19.6456 20.3751 19.2261 20.2462C19.1683 20.2289 19.1098 20.2165 19.0522 20.2094C19.6579 20.5548 19.6508 21.2476 18.8711 21.4114ZM17.6565 16.9627C17.6565 16.9627 18.2565 17.1525 18.9947 17.4898C18.8465 17.3979 18.7074 17.2943 18.5825 17.1767C18.2078 16.8225 17.9097 16.6296 17.6565 16.5315V16.9627V16.9627ZM17.8841 24.6801C19.1386 24.6801 23.4759 21.9109 23.4759 21.9109C22.4046 21.9109 21.9719 21.7452 21.9719 21.7452C21.7301 21.8712 21.2338 22.1202 20.1758 22.7434C19.315 23.2501 18.738 23.8908 17.9531 24.1704C17.8335 24.2137 17.7385 24.2238 17.6565 24.2193C17.4759 24.2037 17.2772 24.1792 17.094 24.1683V20.1856C17.094 19.768 16.789 19.6 16.5879 19.6V24.2348C16.2486 24.4147 16.0817 24.6381 15.9899 24.847C15.9899 24.847 15.3431 24.7608 15.3616 25.9578C15.3616 25.6403 15.8327 25.0852 16.1593 25.0852C16.1593 24.6801 17.3481 24.6801 17.8841 24.6801V24.6801ZM28.7031 31.0917C28.3854 31.0917 26.9275 31.1534 26.7966 29.8835C26.4743 29.8144 26.0982 29.8004 25.7032 29.8566C26.7338 31.8236 27.8527 31.8394 28.1454 31.8544C28.601 32.3626 28.4484 34.0789 27.7902 34.0443C25.3807 33.916 25.4691 35.3819 25.739 35.6817C25.739 34.5764 26.4904 34.3143 28.3885 34.3143C28.3886 34.3143 29.94 32.3287 28.7031 31.0917V31.0917ZM29.1986 35.838H28.8725C28.8449 36.3646 29.3661 36.5196 29.3661 36.5196C29.1986 36.3522 29.0765 35.9612 29.1986 35.838V35.838ZM26.1497 36.5794C26.011 36.4405 25.8968 35.8841 26.0982 35.6817H25.7389C25.7089 36.2515 26.1497 36.5794 26.1497 36.5794V36.5794ZM33.342 18.2788C33.342 16.5961 31.0343 16.8605 30.9204 18.1526C31.0222 17.2055 32.564 17.0658 32.564 18.2521C32.564 19.4779 29.6885 20.281 29.6885 22.3529C29.6885 24.6359 31.9713 24.8471 31.7403 26.9344C31.7013 27.2957 31.3141 27.7678 30.7537 27.7678C29.5519 27.7678 28.9087 27.2578 28.5352 26.537C28.9172 27.5574 29.5895 28.3396 30.9887 28.3396C32.4384 28.3396 32.57 27.268 32.57 27.0191C32.57 24.9293 30.3874 24.4325 30.3874 22.4465C30.3876 20.5127 33.342 19.7161 33.342 18.2788V18.2788ZM16.325 26.3972C16.325 27.0415 16.5879 27.2914 16.5879 27.2914C16.5879 26.903 16.7475 26.5746 16.8388 26.484C16.7039 26.3482 16.325 26.3972 16.325 26.3972V26.3972ZM33 22.8358C32.4143 22.8358 31.9346 23.284 31.8841 23.8558C31.9108 23.7186 32.0023 23.5852 32.1809 23.4517C32.852 22.9529 34.1673 23.9576 33.4171 24.996C33.8295 24.8304 34.1192 24.428 34.1192 23.9564C34.1194 23.338 33.6183 22.8358 33 22.8358V22.8358ZM27.8663 35.838H27.475C27.435 36.5822 27.9112 36.6942 27.9112 36.6942C27.7092 36.4927 27.6755 36.0286 27.8663 35.838ZM16.8127 31.8689C16.7522 31.8689 16.6957 31.8813 16.6419 31.9018C16.4559 32.0433 16.3425 32.2633 16.3493 32.5045C16.4113 32.7029 16.594 32.8463 16.8127 32.8463C17.0827 32.8463 17.3013 32.6276 17.3013 32.3578C17.3013 32.0876 17.0827 31.8689 16.8127 31.8689V31.8689ZM19.5614 35.4828H18.9958C18.9909 36.3892 19.5772 36.5536 19.5772 36.5536C19.4119 36.3872 19.2021 35.8418 19.5614 35.4828H19.5614ZM21.3153 29.7503C21.3153 27.677 26.281 27.4336 26.281 25.7255C26.281 25.0298 25.6804 24.7157 25.2535 24.7157C25.3744 24.8367 26.0202 26.2256 24.1656 26.2256C22.4884 26.7869 18.8363 29.9616 21.3713 31.0621C21.3702 31.3812 21.3272 33.757 19.8046 33.5703C17.6113 33.2989 17.0641 34.2056 17.4851 35.226C17.4851 33.6778 18.5723 33.9654 19.9922 33.9654C20.8801 33.9654 22.1781 32.8425 22.1781 30.952C22.1781 30.952 21.3153 30.6209 21.3153 29.7503V29.7503ZM17.0941 31.021V26.8577C16.8127 26.8577 16.588 27.2916 16.588 27.2916V30.8436V30.8209L16.2804 30.8218L16.283 31.2703C16.5196 31.2702 17.0941 31.1481 17.0941 31.0209L17.0941 31.021ZM17.9488 36.3858C17.9488 36.3858 17.5098 35.6961 17.9802 35.226H17.4852C17.2865 36.0874 17.9488 36.3858 17.9488 36.3858ZM21.0099 35.4917C21.0099 35.4917 20.7735 35.4917 20.5994 35.4917C20.5963 36.1315 21.3396 36.3738 21.3396 36.3738C21.0777 36.1131 20.8982 35.6018 21.0099 35.4917Z" fill="#6A7AB5"/>
<path d="M7.20217 28.5794L7.17481 28.4954L7.1631 28.408C7.12301 28.1086 7.05061 27.5509 6.62004 27.4511C6.50493 27.4243 6.38597 27.4381 6.25904 27.4903C6.29358 27.3578 6.28954 27.2378 6.24793 27.1279C6.0892 26.7151 5.52725 26.7203 5.22533 26.7243H5.13657L5.04912 26.7081C4.75255 26.6535 4.19929 26.5502 3.97229 26.929C3.9113 27.0302 3.88707 27.1474 3.89747 27.2838C3.78255 27.2097 3.66673 27.1764 3.5499 27.1821C3.10802 27.2056 2.93909 27.7418 2.84871 28.0304L2.82114 28.1142L2.78015 28.1921C2.63534 28.458 2.36684 28.9508 2.65685 29.2847C2.7343 29.3738 2.83851 29.4336 2.9716 29.4651C2.86638 29.5522 2.79842 29.6519 2.76873 29.7659C2.65332 30.1922 3.11155 30.5183 3.35693 30.693L3.42893 30.7461L3.49093 30.8088C3.69884 31.0288 4.08518 31.436 4.49202 31.2636C4.59967 31.2173 4.68893 31.137 4.76043 31.0204C4.81132 31.1476 4.88453 31.2419 4.98318 31.3069C5.35377 31.547 5.80504 31.2125 6.04779 31.034L6.11959 30.9814L6.19926 30.9423C6.4719 30.8117 6.97982 30.5707 6.94145 30.1303C6.93125 30.0122 6.88187 29.9038 6.79352 29.7998C6.92953 29.7918 7.04202 29.7506 7.13331 29.6765C7.47744 29.3986 7.2983 28.8659 7.20217 28.5794" fill="white"/>
<path d="M5.26642 28.9368C7.73856 30.3979 6.97719 28.7912 6.92286 28.5536C6.86813 28.3168 6.84733 26.5395 5.26642 28.9368Z" fill="#ED1C24"/>
<path d="M5.11099 29.3027C4.48533 32.1043 5.77815 30.8847 5.98667 30.7605C6.19509 30.6351 7.879 30.0656 5.11099 29.3027" fill="#ED1C24"/>
<path d="M4.71403 29.2686C1.85514 29.5384 3.41555 30.3915 3.59883 30.5509C3.78261 30.7097 4.84358 32.136 4.71403 29.2686Z" fill="#ED1C24"/>
<path d="M4.62441 28.8794C3.48336 26.2444 3.15427 27.9917 3.05925 28.2162C2.96424 28.4388 1.93557 29.8895 4.62441 28.8794Z" fill="#ED1C24"/>
<path d="M45.459 28.1923L45.4182 28.1145L45.3902 28.0306C45.2999 27.7419 45.1309 27.2059 44.6903 27.1822C44.5721 27.1767 44.4569 27.2096 44.342 27.283C44.3525 27.1475 44.3268 27.0304 44.2675 26.9292C44.0394 26.5501 43.487 26.6535 43.1904 26.7081L43.1021 26.7243H43.0137C42.7129 26.7203 42.1505 26.7152 41.9923 27.128C41.9493 27.2379 41.9462 27.3579 41.9799 27.4903C41.8549 27.4382 41.7357 27.4247 41.6198 27.4512C41.1897 27.5508 41.1157 28.1086 41.0777 28.408L41.0644 28.4955L41.0378 28.5796C40.9412 28.8659 40.7626 29.3986 41.1067 29.6769C41.1979 29.7508 41.3096 29.7921 41.4464 29.8002C41.3581 29.9041 41.3088 30.0126 41.2985 30.1307C41.2604 30.571 41.7676 30.8121 42.0407 30.9426L42.1196 30.9817L42.1914 31.0343C42.4349 31.2131 42.8866 31.5473 43.256 31.3073C43.3559 31.2422 43.4285 31.1479 43.4788 31.0207C43.5508 31.1373 43.6392 31.2176 43.7478 31.2641C44.1545 31.4363 44.5412 31.0292 44.7489 30.8091L44.8114 30.7465L44.8824 30.6933C45.1286 30.5187 45.5865 30.1926 45.4715 29.7663C45.4407 29.652 45.3741 29.5526 45.2682 29.4654C45.4007 29.4338 45.5053 29.3741 45.5823 29.285C45.8728 28.951 45.6047 28.4583 45.459 28.1923" fill="white"/>
<path d="M43.2735 28.6751C41.1207 26.7758 42.8835 27.0025 43.1258 26.9812C43.367 26.9609 45.0648 26.4308 43.2735 28.6751Z" fill="#ED1C24"/>
<path d="M42.9739 28.9368C40.5017 30.3979 41.2616 28.7912 41.317 28.5536C41.3712 28.3168 41.3917 26.5395 42.9739 28.9368Z" fill="#ED1C24"/>
<path d="M43.1286 29.3027C43.7546 32.1043 42.4617 30.8847 42.2528 30.7605C42.0445 30.6351 40.3612 30.0656 43.1286 29.3027" fill="#ED1C24"/>
<path d="M43.5251 29.2686C46.3841 29.5384 44.8248 30.3915 44.6408 30.5509C44.4581 30.7097 43.3956 32.136 43.5251 29.2686Z" fill="#ED1C24"/>
<path d="M43.6141 28.8794C44.7559 26.2444 45.0843 27.9917 45.1797 28.2162C45.2742 28.4388 46.3029 29.8895 43.6141 28.8794Z" fill="#ED1C24"/>
<path d="M44.1695 28.9615C44.1668 28.9386 44.1594 28.9181 44.1563 28.8959C44.3858 28.7272 44.6338 28.5466 44.6338 28.5466L44.61 28.4932C44.61 28.4932 44.3207 28.5437 44.0432 28.592C43.9039 28.3638 43.6665 28.209 43.3947 28.1826C43.3084 27.9231 43.2221 27.6587 43.2221 27.6587L43.164 27.6636C43.164 27.6636 43.1249 27.9391 43.0855 28.2089C42.9185 28.2541 42.7686 28.3486 42.6546 28.4839C42.5938 28.5568 42.5498 28.6393 42.5149 28.7254C42.2354 28.7254 41.94 28.7263 41.94 28.7263L41.9276 28.7839C41.9276 28.7839 42.203 28.9181 42.4573 29.0426C42.4583 29.0658 42.4553 29.0888 42.4573 29.1122C42.4768 29.3363 42.5817 29.5374 42.751 29.6841C42.6616 29.9634 42.561 30.2756 42.561 30.2756L42.6103 30.3053C42.6103 30.3053 42.8423 30.0651 43.0488 29.8531C43.1566 29.8885 43.2714 29.9024 43.3874 29.8921C43.5044 29.8832 43.6153 29.8482 43.7158 29.796C43.9552 29.9684 44.2253 30.1637 44.2253 30.1637L44.2695 30.1256C44.2695 30.1256 44.1164 29.8363 43.98 29.5773C44.1215 29.4026 44.1881 29.185 44.1695 28.9614" fill="white"/>
<path d="M43.2692 28.5314C43.1336 28.5419 43.0116 28.6059 42.9244 28.7106C42.8373 28.8144 42.7951 28.9456 42.8075 29.0804C42.8311 29.3595 43.0783 29.567 43.3566 29.5424C43.4931 29.53 43.6142 29.4662 43.7026 29.3628C43.7889 29.2581 43.8309 29.1278 43.8195 28.992C43.7952 28.7128 43.5477 28.5061 43.2692 28.5314Z" fill="#ED1C24"/>
<path d="M4.96607 28.6751C7.11963 26.7758 5.35585 27.0025 5.11421 26.9812C4.87176 26.9609 3.17432 26.4308 4.96607 28.6751Z" fill="#ED1C24"/>
<path d="M5.78139 29.0426C6.03757 28.9182 6.31162 28.7838 6.31162 28.7838L6.29879 28.7262C6.29879 28.7262 6.00404 28.7253 5.72382 28.7253C5.6899 28.6393 5.64577 28.5567 5.58468 28.4839C5.47077 28.3486 5.32092 28.2542 5.1535 28.2088C5.11513 27.9388 5.07605 27.6636 5.07605 27.6636L5.01688 27.6587C5.01688 27.6587 4.93114 27.9228 4.84612 28.1826C4.57257 28.209 4.33487 28.3638 4.19582 28.592C3.91945 28.5437 3.62843 28.4932 3.62843 28.4932L3.60602 28.5466C3.60602 28.5466 3.85342 28.7272 4.08284 28.8959C4.0791 28.9182 4.07244 28.9387 4.07001 28.9614C4.05103 29.1862 4.11918 29.4026 4.26045 29.5773C4.12292 29.8361 3.96984 30.1256 3.96984 30.1256L4.01517 30.1637C4.01517 30.1637 4.28469 29.9684 4.5239 29.796C4.62448 29.8485 4.73525 29.8822 4.85188 29.8921C4.96881 29.9026 5.08332 29.8885 5.19117 29.853C5.39706 30.0652 5.62871 30.3053 5.62871 30.3053L5.6795 30.2755C5.6795 30.2755 5.57872 29.9632 5.48885 29.6849C5.65779 29.5372 5.7626 29.336 5.78249 29.112C5.78492 29.0887 5.78135 29.0659 5.78135 29.0427" fill="white"/>
<path d="M5.31536 28.7106C5.22791 28.6059 5.10643 28.5417 4.97031 28.5314C4.69212 28.5061 4.44462 28.7128 4.42039 28.9921C4.40888 29.1279 4.45078 29.2582 4.53712 29.3629C4.62436 29.4663 4.74705 29.53 4.88246 29.5425C5.16066 29.5671 5.40805 29.3595 5.43219 29.0805C5.4436 28.9456 5.40199 28.8144 5.31536 28.7106" fill="#ED1C24"/>
<path d="M5.28082 16.7283C4.07726 16.5157 2.9248 17.3236 2.71214 18.5272C2.49979 19.7316 3.3068 20.8839 4.51046 21.0965C5.71513 21.309 6.8681 20.5014 7.08005 19.2973C7.29311 18.0935 6.48559 16.9411 5.28082 16.7283" fill="white"/>
<path d="M5.78289 18.4053C5.76342 18.3934 5.72948 18.3713 5.68838 18.3442C5.50652 18.2236 5.14996 17.9878 5.14017 17.9808C5.09079 17.9468 5.04273 17.9145 4.99537 17.8826C4.83683 17.7764 4.69506 17.684 4.56177 17.607C4.51037 17.5779 4.46069 17.5506 4.4107 17.5262C4.19875 17.4192 3.99558 17.3546 3.75576 17.3335C3.57087 17.467 3.41041 17.6323 3.28046 17.8233C3.8319 18.0225 4.37031 18.3414 5.49137 19.0377C5.55549 18.8895 5.77007 18.433 5.78289 18.4053" fill="#ED1C24"/>
<path d="M5.26603 19.5943C5.28844 19.5385 5.387 19.2891 5.42729 19.193C4.27847 18.4794 3.745 18.1637 3.19235 17.9683C3.10662 18.1222 3.04239 18.2901 3.00049 18.4688C3.31594 18.9019 4.16133 19.3274 5.26603 19.5943Z" fill="#ED1C24"/>
<path d="M5.14158 17.7809C5.57175 17.5265 6.06048 17.5957 6.43774 17.7245C6.29707 17.5428 6.12672 17.3841 5.92861 17.2605C5.57226 17.1896 5.08009 17.1785 4.68829 17.4899C4.83077 17.5736 4.9779 17.6713 5.14158 17.7809Z" fill="#ED1C24"/>
<path d="M3.42517 19.836C3.48273 19.8755 3.5417 19.913 3.60441 19.9483C3.73103 20.0182 3.86816 20.0787 4.00984 20.1305C4.06992 20.1533 4.13101 20.1743 4.1926 20.1942C4.40809 20.2651 4.90258 20.3936 4.93944 20.4022C4.94702 20.3832 5.13231 19.9249 5.20259 19.7508C4.34609 19.5384 3.40821 19.1666 2.96259 18.6831C2.93583 18.9064 2.94623 19.1272 2.99339 19.3366C3.0874 19.5414 3.23836 19.7046 3.42517 19.836" fill="#ED1C24"/>
<path d="M4.96834 20.581L4.78961 20.535C4.62391 20.4928 4.44426 20.4457 4.2616 20.3896C4.35066 20.5795 4.49082 20.7274 4.64026 20.8419C4.8405 20.8685 5.03812 20.8634 5.22806 20.8306C5.09083 20.7239 4.96834 20.581 4.96834 20.581" fill="#ED1C24"/>
<path d="M6.75967 18.3464C6.71897 18.2134 6.66556 18.0846 6.59841 17.9645C6.26073 17.814 5.74645 17.6668 5.2973 17.8866L5.9168 18.2956C6.04595 18.2841 6.1648 18.2806 6.27356 18.2832C6.33293 18.2841 6.38807 18.2873 6.44078 18.2925C6.56205 18.3032 6.66556 18.3227 6.75967 18.3464" fill="#ED1C24"/>
<path d="M6.44251 18.46C6.42443 19.478 5.94449 20.2632 5.53088 20.7545C6.17825 20.5295 6.6888 19.9716 6.81613 19.2509C6.85976 19.0046 6.85208 18.7624 6.80644 18.5319C6.70587 18.5006 6.5856 18.4744 6.44252 18.46" fill="#ED1C24"/>
<path d="M4.53361 17.4033C4.82352 17.1477 5.16593 17.0614 5.48169 17.0543C5.40151 17.0287 5.31982 17.0065 5.2347 16.9921C4.78444 16.9126 4.34397 16.9963 3.96985 17.199C4.16908 17.238 4.34912 17.3079 4.53361 17.4033Z" fill="#ED1C24"/>
<path d="M5.94042 18.4609C5.7931 18.7678 5.70646 18.9557 5.63456 19.1266C5.61245 19.1784 5.59094 19.2287 5.56923 19.281C5.5349 19.3668 5.42907 19.6332 5.42907 19.6332L5.36596 19.7897L5.09241 20.4673C5.16784 20.5674 5.25922 20.649 5.34909 20.7127C5.75553 20.2491 6.26133 19.47 6.27678 18.4501C6.17449 18.4464 6.062 18.4502 5.94042 18.4609" fill="#ED1C24"/>
<path d="M4.05662 20.3224C3.9202 20.2754 3.78398 20.2219 3.65533 20.1592C3.7034 20.3076 3.77267 20.4394 3.84245 20.5525C3.98836 20.6461 4.14851 20.7199 4.31946 20.7726C4.20869 20.6478 4.11307 20.5002 4.05662 20.3224Z" fill="#ED1C24"/>
<path d="M3.45455 20.0496C3.36206 19.9942 3.27602 19.9325 3.19635 19.8647C3.28652 20.026 3.40012 20.1738 3.5319 20.3035C3.5006 20.2226 3.47313 20.1389 3.45455 20.0496" fill="#ED1C24"/>
<path d="M40.9191 19.2973C41.1319 20.5014 42.284 21.309 43.4879 21.0965C44.6922 20.884 45.499 19.7316 45.2876 18.5272C45.075 17.3236 43.9223 16.5157 42.718 16.7283C41.5138 16.941 40.7069 18.0934 40.9191 19.2973" fill="white"/>
<path d="M42.2161 18.4053C42.2352 18.3934 42.2693 18.3713 42.3113 18.3442C42.4933 18.2236 42.8493 17.9878 42.8584 17.9808C42.9089 17.9468 42.957 17.9145 43.0043 17.8826C43.1611 17.7764 43.3041 17.684 43.4376 17.607C43.4889 17.5779 43.5392 17.5506 43.5883 17.5262C43.7997 17.4192 44.004 17.3546 44.2434 17.3335C44.4282 17.467 44.5894 17.6323 44.7175 17.8233C44.1665 18.0225 43.6297 18.3414 42.5072 19.0377C42.4429 18.8895 42.2293 18.433 42.2161 18.4053" fill="#ED1C24"/>
<path d="M42.7334 19.5943C42.7107 19.5385 42.6113 19.2891 42.5732 19.193C43.7198 18.4794 44.2549 18.1637 44.8072 17.9683C44.8924 18.1222 44.957 18.2901 44.999 18.4688C44.6831 18.9019 43.8378 19.3274 42.7334 19.5943" fill="#ED1C24"/>
<path d="M42.8578 17.7809C42.4272 17.5265 41.9389 17.5957 41.561 17.7245C41.7019 17.5428 41.8733 17.3841 42.0713 17.2605C42.4272 17.1896 42.9191 17.1785 43.3104 17.4899C43.169 17.5736 43.0209 17.6713 42.8578 17.7809Z" fill="#ED1C24"/>
<path d="M44.5731 19.836C44.5168 19.8755 44.4581 19.913 44.3942 19.9483C44.2682 20.0182 44.1313 20.0787 43.9899 20.1305C43.9293 20.1533 43.8678 20.1743 43.8063 20.1942C43.592 20.2651 43.097 20.3936 43.0598 20.4022C43.0516 20.3832 42.8657 19.9249 42.7969 19.7508C43.6531 19.5384 44.5902 19.1666 45.0372 18.6831C45.0638 18.9064 45.0523 19.1272 45.006 19.3366C44.9117 19.5414 44.761 19.7046 44.5731 19.836" fill="#ED1C24"/>
<path d="M43.0314 20.581L43.2089 20.535C43.3751 20.4928 43.5558 20.4457 43.7386 20.3896C43.6482 20.5795 43.5087 20.7274 43.3595 20.8419C43.1596 20.8685 42.9614 20.8634 42.7725 20.8306C42.9081 20.7239 43.0314 20.581 43.0314 20.581" fill="#ED1C24"/>
<path d="M41.2396 18.3464C41.2806 18.2134 41.3331 18.0846 41.4019 17.9645C41.7386 17.814 42.2517 17.6668 42.7012 17.8866L42.0823 18.2956C41.9529 18.2841 41.8342 18.2806 41.7251 18.2832C41.6666 18.2841 41.6111 18.2873 41.5577 18.2925C41.4366 18.3032 41.3342 18.3227 41.2396 18.3464" fill="#ED1C24"/>
<path d="M41.5569 18.46C41.5745 19.478 42.0557 20.2632 42.4697 20.7545C41.8206 20.5295 41.3094 19.9716 41.1834 19.2509C41.1402 19.0046 41.1464 18.7624 41.1935 18.5319C41.2933 18.5006 41.4144 18.4744 41.5569 18.46" fill="#ED1C24"/>
<path d="M43.4663 17.4033C43.1762 17.1477 42.8331 17.0614 42.5178 17.0543C42.5977 17.0287 42.679 17.0065 42.7649 16.9921C43.2148 16.9126 43.6551 16.9963 44.0292 17.199C43.8307 17.238 43.6503 17.3079 43.4663 17.4033Z" fill="#ED1C24"/>
<path d="M42.0591 18.4609C42.2068 18.7678 42.2918 18.9557 42.3661 19.1266C42.3874 19.1784 42.4079 19.2287 42.4296 19.281C42.4646 19.3668 42.5703 19.6332 42.5703 19.6332L42.633 19.7897L42.9072 20.4673C42.8312 20.5674 42.7406 20.649 42.6504 20.7127C42.2442 20.2491 41.7374 19.47 41.7232 18.4501C41.825 18.4464 41.938 18.4502 42.0591 18.4609" fill="#ED1C24"/>
<path d="M43.9429 20.3224C44.0794 20.2754 44.2146 20.2219 44.3445 20.1592C44.295 20.3076 44.2271 20.4394 44.1564 20.5525C44.0106 20.6461 43.8505 20.7199 43.6802 20.7726C43.7908 20.6478 43.8863 20.5002 43.9429 20.3224Z" fill="#ED1C24"/>
<path d="M44.5454 20.0496C44.6367 19.9942 44.723 19.9325 44.803 19.8647C44.7127 20.026 44.5999 20.1738 44.4676 20.3035C44.4983 20.2226 44.526 20.1389 44.5454 20.0496" fill="#ED1C24"/>
</g>
<defs>
<clipPath id="clip0_217_3887">
<rect width="48" height="48" fill="white"/>
</clipPath>
</defs>
</svg>
