<svg width="48" height="48" viewBox="0 0 48 48" fill="none" xmlns="http://www.w3.org/2000/svg">
<g clip-path="url(#clip0_217_3978)">
<path d="M47.3379 23.9999C47.3379 36.8898 36.8894 47.3382 24.0001 47.3382C11.1108 47.3382 0.661743 36.8898 0.661743 23.9999C0.661743 11.1106 11.1108 0.662109 24.0001 0.662109C36.8894 0.661938 47.3379 11.1106 47.3379 23.9999Z" fill="white" stroke="#0053A0" stroke-width="1.20455"/>
<path fill-rule="evenodd" clip-rule="evenodd" d="M2.41891 24.2759C2.2681 12.3598 11.8092 2.57384 23.7258 2.42275C35.6419 2.27189 45.4279 11.8136 45.579 23.7297C45.7295 35.6457 36.1881 45.4317 24.272 45.5822C12.356 45.7333 2.57 36.1919 2.41891 24.2759H2.41885H2.41891ZM23.7224 2.15364C11.6576 2.30639 1.997 12.2144 2.1498 24.2793C2.30265 36.3442 12.2106 46.0041 24.2755 45.8519C36.3403 45.6991 46.0003 35.7911 45.8481 23.7263C45.6953 11.6614 35.7873 2.00084 23.7224 2.15364V2.15364Z" fill="#0053A0"/>
<path fill-rule="evenodd" clip-rule="evenodd" d="M23.2076 9.65823C20.5582 9.65196 17.48 10.7022 15.4109 12.4149C15.4041 12.4194 15.4041 12.4377 15.4183 12.4451C16.6014 12.9143 17.4127 13.5369 18.6773 14.2451C18.7229 14.2701 18.7388 14.2593 18.7485 14.2183C19.3603 11.111 23.1535 11.973 23.5075 9.70726C23.4921 9.69187 23.4944 9.66393 23.4619 9.66222C23.3781 9.65994 23.2926 9.6588 23.2076 9.65823ZM24.7852 9.66222C24.759 9.66222 24.7505 9.67306 24.7516 9.71468C24.5925 10.1138 25.0601 10.5294 25.3326 10.7985C25.3588 10.823 25.4021 10.8515 25.4346 10.8658C27.128 11.5551 29.002 12.0642 29.4125 14.0119C29.4211 14.0421 29.4268 14.0615 29.4582 14.0347C30.3607 13.436 31.2558 12.8288 32.1692 12.253C32.216 12.2336 32.1988 12.2119 32.1692 12.1931C30.1053 10.7255 27.5265 9.77055 24.7852 9.66222V9.66222ZM14.2256 13.4012C12.5744 14.8654 11.1576 16.7805 10.4197 18.9322C10.4114 18.9533 10.424 18.963 10.4534 18.9659C12.0692 19.1118 12.5972 17.0046 13.8356 16.2212C13.8521 16.2115 13.8669 16.2029 13.8658 16.183C13.778 15.2229 13.7358 14.4138 14.2256 13.4012V13.4012ZM34.1573 13.8619C34.2485 14.6071 34.179 15.3141 33.9811 16.0028C33.9726 16.0353 33.9737 16.0604 34.0108 16.0855C35.2047 16.724 35.8518 18.589 37.2315 18.662C37.2486 18.6694 37.2749 18.6705 37.2652 18.6477C36.7862 16.9835 35.4088 15.0142 34.1573 13.8619V13.8619ZM37.7082 19.7384C36.0148 21.4363 38.7629 24.2813 35.0348 25.8692C34.7058 25.9661 34.3899 26.0813 34.0923 26.0824C33.2633 26.0864 32.0837 25.4541 32.0911 26.7124C32.0911 26.7352 32.1116 26.7512 32.139 26.762C33.2907 27.2552 34.8472 28.3242 34.8723 29.972C34.9287 31.9361 32.8614 33.2589 33.1892 35.1244C37.6073 31.3038 39.4243 25.6628 37.7082 19.7384ZM10.0892 20.0189C10.0749 20.0229 10.0645 20.0383 10.0516 20.0685C8.37849 24.6405 10.0225 31.748 15.1548 35.5024C15.156 35.4055 15.2124 35.2036 15.2712 35.0679C15.2928 35.0155 15.2894 34.9482 15.2712 34.8843C15.083 34.0576 14.5898 33.2241 14.1206 32.4128C12.5018 29.7257 13.4005 27.8829 16.0141 26.6873C16.0477 26.6765 16.0551 26.6577 16.0369 26.6229C15.9964 26.534 15.9565 26.4462 15.9171 26.3561C15.9052 26.3321 15.9171 26.2843 15.8573 26.2928C15.2712 26.3658 14.6115 26.4177 14.0151 26.3909C13.1177 26.1908 12.2607 25.8333 11.6153 24.8828C10.46 23.2699 12.0422 21.1005 10.1341 20.0309C10.1183 20.0218 10.1035 20.0155 10.0892 20.0189V20.0189ZM34.2844 26.6275C34.3278 26.6275 34.3722 26.6338 34.4156 26.6457C34.9948 26.7512 35.8712 27.0922 36.3917 27.7364C36.4253 27.778 36.4099 27.8128 36.3581 27.8083C35.5217 27.7832 34.5821 27.6908 33.9315 27.1782C33.8392 27.1053 33.7542 27.0329 33.8192 26.859C33.8671 26.7489 34.0205 26.6645 34.1487 26.6417C34.1955 26.6338 34.24 26.6263 34.2844 26.6275V26.6275ZM13.5956 26.9684C13.6423 26.9673 13.6879 26.9684 13.7347 26.9719C13.7734 26.9764 13.8128 26.9764 13.839 27.0021C13.9998 27.1936 13.9679 27.4616 13.6674 27.6691C13.0328 28.0757 12.2972 28.0985 11.6197 28.1275C11.5931 28.1287 11.5467 28.0996 11.5934 28.0557C12.2108 27.4901 12.8937 26.9753 13.5956 26.9684ZM25.0675 34.6745C25.0589 34.6734 25.0492 34.6757 25.0412 34.6819C24.5213 34.9288 23.7042 35.0491 23.2447 34.7908C23.1894 34.7635 23.1569 34.784 23.1352 34.8159C22.3097 36.2139 20.3478 36.1808 18.9549 35.8256C17.9201 35.5925 16.9075 35.2971 16.0711 36.1255C20.4259 39.2659 27.1388 39.364 32.1772 35.9083C31.2267 35.4596 30.3641 35.7823 29.319 36.0246C28.136 36.2994 26.4752 36.548 25.1347 34.7047C25.1119 34.6985 25.0914 34.6757 25.0675 34.6745V34.6745ZM24.1974 34.9892C24.2094 34.9904 24.2225 34.9915 24.2385 34.9927C24.3896 35.0103 24.4757 35.0873 24.568 35.1916C24.6125 35.2504 24.6284 35.3188 24.621 35.3912C24.596 36.0366 24.4853 36.6894 24.2681 37.2544C24.2636 37.2812 24.2442 37.2869 24.2345 37.2544C23.9825 36.4591 23.552 35.654 24.0954 35.0274C24.1301 34.9972 24.1592 34.9875 24.1974 34.9892V34.9892Z" fill="#0053A0"/>
<path fill-rule="evenodd" clip-rule="evenodd" d="M25.592 3.64355C25.7214 3.81443 25.8508 4.00463 25.8052 4.20971C25.6387 5.14788 25.4597 6.08412 25.2693 7.01859C25.2356 7.22726 25.084 7.31678 24.9317 7.45703C25.958 7.64347 27.8777 8.00608 28.9074 8.19993C28.88 7.79342 29.1907 7.55567 29.3156 7.18735C28.9735 7.42682 28.5368 7.51462 28.1308 7.42739C27.7084 7.34757 26.6621 7.13946 26.2408 7.05223C26.3092 6.72554 26.3525 6.39257 26.4284 6.06588C26.8389 6.13829 27.4997 6.29394 27.909 6.34354C28.258 6.42621 28.522 5.94158 28.7118 5.71353C28.5784 5.74374 28.3275 5.75914 28.1913 5.72835C27.7614 5.64494 26.9888 5.48222 26.5589 5.39482C26.5971 5.08334 26.6633 4.77615 26.7283 4.47226C27.4649 4.66594 29.0049 4.73818 29.5516 5.3573C29.5699 5.0155 29.3766 4.59085 29.571 4.36359C28.5533 4.16604 26.6097 3.83341 25.592 3.64355ZM25.1011 3.65855C24.1204 3.66311 22.2412 3.76631 21.2611 3.77857C21.471 4.12367 21.1591 4.42671 21.1517 4.77227C21.4841 4.47072 22.3136 4.38047 22.7452 4.39358C22.7441 5.33951 22.8416 6.28937 22.8547 7.2324C22.8604 7.41085 22.7213 7.52431 22.6073 7.59615C23.0337 7.59159 23.7076 7.53913 24.1073 7.53229C23.9106 7.35156 23.8108 7.33673 23.8074 7.08245C23.7379 6.21183 23.7031 5.19686 23.6791 4.32973C24.1204 4.29757 24.9317 4.37676 25.2921 4.59598C25.2904 4.21513 24.922 3.83632 25.1011 3.65855V3.65855ZM20.8113 3.91358C20.1847 4.05024 18.789 4.14842 18.2491 4.55858C17.6037 5.00666 17.4548 6.00088 18.2913 6.43704C18.8181 6.65256 19.8175 6.41823 20.3381 6.45985C20.6961 6.47467 20.8472 6.9707 20.6117 7.21358C20.1032 7.66571 18.7217 7.66571 18.1185 7.48326C18.2662 7.82934 18.4315 8.12809 18.5877 8.46961C18.793 8.34076 19.1573 8.30883 19.3894 8.26721C19.8837 8.19537 21.0547 7.87837 21.3849 7.47984C21.7794 7.01631 21.7988 6.34468 21.4145 5.91992C21.069 5.54134 19.9988 5.60822 19.5439 5.63855C19.2844 5.63855 19.0701 5.73006 18.8238 5.60856C18.614 5.4642 18.6259 5.10381 18.8608 4.98226C19.3124 4.74302 20.3358 4.70602 20.8073 4.8997C20.7799 4.56936 20.8221 4.24392 20.8113 3.91358V3.91358ZM30.9052 4.75728C30.9895 4.96618 31.0386 5.16345 30.9388 5.36101C30.5671 6.16223 30.1446 6.95759 29.7512 7.76491C29.6406 8.00038 29.4992 8.14976 29.2375 8.2484C29.5864 8.42685 30.1856 8.72618 30.538 8.90463C30.3903 8.36528 30.7564 7.88122 30.9656 7.4462C31.1669 7.55624 31.7068 7.80824 31.8391 8.02718C32.0164 8.32708 32.0597 8.63495 32.0979 8.94568C32.115 9.22677 32.1378 9.43886 31.8476 9.53864C32.2553 9.70455 32.8961 10.0461 33.2753 10.2285C32.9742 9.60819 33.1601 8.76438 32.7581 8.15489C33.0198 8.16629 33.4588 8.2102 33.7371 8.03858C34.2399 7.74382 34.3625 7.27744 34.1909 6.66225C34.0963 6.33841 33.7781 6.15368 33.5079 6.02483C32.8625 5.70554 31.5511 5.07251 30.9052 4.75728V4.75728ZM16.2017 5.16972C15.302 5.67493 13.5727 6.5391 12.6848 7.05964C12.9165 7.12065 13.0773 7.20731 13.1873 7.40857C13.6314 8.2062 14.0745 9.00327 14.5146 9.8009C14.6286 9.99874 14.5939 10.2371 14.5038 10.4571C15.4268 9.94458 17.155 9.04603 18.0809 8.53746C17.7918 8.37326 17.9754 7.82535 17.8591 7.46501C17.7679 7.77974 17.4429 8.06595 17.1778 8.2598C16.7479 8.54829 15.7387 9.06256 15.2911 9.31742C15.1281 9.02836 14.9622 8.73245 14.8077 8.43597C15.1566 8.21932 15.9656 7.86127 16.3077 7.63378C16.5078 7.38291 16.3904 7.02087 16.4349 6.72611C16.3471 6.83215 16.233 6.92794 16.1082 6.99236C15.733 7.20104 14.9097 7.65715 14.5294 7.86241C14.3852 7.58874 14.2124 7.32932 14.0876 7.04482C14.7826 6.72953 16.0289 5.88571 16.8208 5.93075C16.623 5.64237 16.3049 5.51158 16.2017 5.16972V5.16972ZM31.7188 5.89711C32.062 6.06873 32.566 6.29279 32.8779 6.46327C33.7051 6.89316 33.1168 7.79228 32.5181 7.45361C32.176 7.33958 31.5774 7.00149 31.2438 6.86465C31.3875 6.53055 31.5711 6.23122 31.7188 5.89711V5.89711ZM11.8714 7.66343C11.7764 7.80026 11.6519 7.92512 11.5038 8.00494C11.0091 8.23528 10.1228 9.03463 9.91016 9.53864C9.61386 10.1156 9.61699 10.6464 9.96632 11.3198C10.3645 12.114 10.929 12.4823 11.7926 12.4823C12.6505 12.4293 13.423 11.6778 13.7759 11.2149C13.9703 10.9908 14.1591 10.7439 14.4441 10.6185C14.2047 10.3528 13.9527 10.1008 13.7086 9.83853C13.6214 10.1572 13.4675 10.4315 13.2588 10.6972C12.9504 11.0472 12.4717 11.5974 11.9276 11.5712C11.3834 11.5444 11.2102 11.285 10.9676 11.0199C10.725 10.7548 10.558 10.4452 10.6002 9.96967C10.6422 9.49416 11.5849 8.61614 12.2653 8.58991C12.1092 8.29344 12.0276 7.96332 11.8714 7.66343V7.66343ZM8.56017 10.8619C8.31187 11.1824 7.87064 11.7394 7.60763 12.0478C7.85182 12.0119 8.07418 12.0325 8.26016 12.1784C8.97427 12.7343 9.68741 13.2959 10.3976 13.8552C10.58 13.9932 10.6624 14.1996 10.6863 14.4356C10.9491 14.1226 11.3722 13.5741 11.6276 13.2691C11.4064 13.2982 11.191 13.3102 11.0201 13.1722C10.2947 12.6129 9.58159 12.0444 8.86018 11.4811C8.66286 11.3312 8.55282 11.1282 8.56017 10.8619ZM6.86519 13.0148C6.41266 13.9447 5.47631 15.6728 5.03148 16.6027C5.2783 16.5047 5.46371 16.5224 5.68766 16.6364C6.49259 17.0395 7.30152 17.4312 8.10634 17.8291C8.30383 17.9289 8.47676 18.1267 8.5563 18.332C9.005 17.3867 9.83285 15.7139 10.3489 14.7766C10.2426 14.7766 10.136 14.6876 10.0602 14.6124C9.8475 14.4105 9.7402 14.1802 9.52389 13.9824C9.5841 14.3575 9.52988 14.8068 9.3663 15.1711C9.17621 15.5771 8.67152 16.5611 8.48144 16.9676C8.1662 16.861 7.92263 16.6797 7.61892 16.5429C7.77103 16.1791 8.22042 15.3547 8.3763 14.9949C8.37801 14.784 8.1272 14.4276 7.94892 14.1728C7.94122 14.3096 7.88227 14.4487 7.81761 14.5747C7.62371 14.9698 7.18663 15.8445 6.98891 16.2356C6.7117 16.0953 6.35108 15.9596 6.07394 15.8228C6.26784 15.4282 6.75743 14.4408 6.95892 14.0496C7.11478 13.7423 7.36738 13.4852 7.6789 13.3295C7.3561 13.1995 7.14226 13.2395 6.86519 13.0148V13.0148ZM7.44634 18.1855C7.57558 18.3947 7.60375 18.7488 7.61145 18.9991C7.64554 19.4711 7.36858 20.3663 7.29634 20.8258C6.42669 20.6553 5.55243 20.4455 4.68638 20.2557C4.4472 20.2101 4.35073 20.0179 4.21019 19.8127C4.11903 20.2044 3.96372 20.9444 3.88025 21.3395C4.05494 21.2107 4.18516 21.1103 4.39024 21.1559C5.31685 21.3503 6.23854 21.5539 7.1615 21.7631C7.3741 21.8087 7.58746 21.9707 7.6976 22.1719C7.89516 21.2757 8.26518 19.6376 8.45886 18.7368C8.36399 18.7448 8.26496 18.7607 8.18143 18.7077C7.91169 18.5589 7.71984 18.3263 7.44634 18.1855H7.44634Z" fill="#0053A0"/>
<path fill-rule="evenodd" clip-rule="evenodd" d="M7.45717 25.8657C7.32685 26.0527 7.14001 26.2061 6.91718 26.2483C6.06948 26.4883 5.16546 26.6719 4.19849 26.9045C4.00441 26.9741 3.88696 26.8926 3.70349 26.7512C3.78924 27.1434 3.9214 27.7831 4.01473 28.1754C4.35904 27.693 5.00006 27.7113 5.50715 27.542C5.62762 27.9485 5.76936 28.8008 5.90471 29.1988C6.11749 29.42 6.47075 29.4508 6.74841 29.5483C6.67631 29.44 6.54071 29.2096 6.51971 29.0791C6.42121 28.6492 6.23545 27.8287 6.13716 27.4028C6.46151 27.3304 6.77937 27.2346 7.1084 27.189C7.28254 27.8692 7.69041 29.1355 7.3747 29.7843C7.7058 29.6789 7.97888 29.314 8.27468 29.3909C8.07969 28.4776 7.63714 26.7871 7.45714 25.8657H7.45713H7.45717ZM7.50217 30.0244C7.39393 30.0209 7.28485 30.0306 7.17589 30.0426C6.44177 30.2 5.75971 30.562 5.44721 31.3289C5.03539 32.3985 5.84882 34.0433 6.93974 34.4453C7.64124 34.6961 8.33511 34.508 8.85588 34.1192C9.33959 33.7879 9.66766 33.2343 9.65471 32.492C9.62438 31.6544 9.15612 30.8237 8.47343 30.3511C8.14873 30.123 7.82711 30.0329 7.50219 30.0244H7.50218H7.50217ZM7.47217 30.9583C7.87704 30.956 8.28827 31.0592 8.56713 31.4754C8.91384 31.9064 9.01903 32.5119 8.77341 32.8745C8.42448 33.3329 7.86203 33.6066 7.26971 33.5826C6.62567 33.5598 5.97314 32.7354 6.16345 31.9446C6.34442 31.3004 7.07535 30.9908 7.47217 30.9583V30.9583ZM10.011 34.0747C9.8527 34.0792 9.69859 34.1106 9.54584 34.1682C8.81326 34.4384 8.27567 34.9111 8.06101 35.7207C7.76003 36.8285 8.97154 38.2829 10.1158 38.4882C10.8505 38.6119 11.5009 38.3468 11.9456 37.8724C12.3644 37.4619 12.6247 36.8479 12.482 36.1181C12.3056 35.2988 11.6433 34.5964 10.8884 34.2509C10.5554 34.1271 10.2746 34.065 10.011 34.0747ZM10.3747 34.971C10.695 34.9721 10.9862 35.1004 11.2034 35.3273C11.6045 35.6979 11.7936 36.1529 11.6084 36.6352C11.3534 37.2019 10.8795 37.568 10.2921 37.6484C9.65394 37.7367 8.82911 36.8923 8.91583 36.1962C9.01977 35.5576 9.43626 35.2971 9.77841 35.1163C9.98109 35.0177 10.1824 34.9698 10.3747 34.971ZM13.2249 36.6244C13.2187 36.9893 12.8447 36.8815 12.5491 37.341C12.9929 37.2966 13.7369 37.6923 14.0841 37.9517C13.5682 38.7351 13.0317 39.5008 12.5084 40.2762C12.4112 40.4392 12.2408 40.4575 12.062 40.4717C12.3884 40.6975 12.9809 41.0932 13.3076 41.319C13.2426 41.0584 13.2666 40.8423 13.4085 40.6291C13.8703 39.946 14.3384 39.2647 14.7991 38.5783C14.8253 38.5503 14.847 38.4859 14.8977 38.5024C15.2758 38.7077 15.8659 39.2214 15.9993 39.6353C16.1578 39.3303 16.1276 38.8434 16.4189 38.7242C15.6161 38.1712 14.0311 37.1654 13.2249 36.6244V36.6244ZM16.6184 38.8924C16.7359 39.1062 16.7057 39.3508 16.6373 39.5755C16.375 40.4535 16.0409 41.2431 15.7781 42.1183C15.7193 42.3304 15.5865 42.4564 15.3174 42.5191C16.1504 42.7831 17.1173 43.1354 17.9982 43.4045C18.9104 43.6999 19.7297 43.4798 19.8284 42.5225C19.886 41.9729 19.3004 41.7186 19.0712 41.596C19.6744 41.6707 20.0804 41.3486 20.1129 40.7824C20.1642 40.3794 19.797 39.9386 18.9657 39.669C18.3694 39.4745 17.2194 39.0606 16.6184 38.8924V38.8924ZM29.2409 39.5823C28.8543 39.6821 28.2078 39.9523 27.8275 40.0817C28.0396 40.173 28.1861 40.2351 28.258 40.4489C28.5294 41.2733 28.8572 42.0425 29.1389 42.8646C29.2158 43.1235 29.3105 43.4165 29.1691 43.6708C30.0448 43.4011 31.5643 42.8526 32.432 42.5647C32.3824 42.4923 32.3072 42.4336 32.3117 42.3424C32.29 42.0328 32.3682 41.7819 32.3419 41.4689C32.1412 41.8863 31.6999 42.1001 31.2507 42.2751C30.9975 42.3566 30.286 42.6736 30.0351 42.6987C29.758 41.8646 29.4279 40.9866 29.1474 40.1524C29.0704 39.9364 29.1269 39.7853 29.2409 39.5823V39.5823ZM17.444 39.856C17.7644 39.9689 18.6772 40.1775 18.9885 40.3075C19.4224 40.4871 19.1408 41.2648 18.6881 41.165C18.3705 41.1137 17.4788 40.864 17.1812 40.7522C17.265 40.4535 17.3517 40.1524 17.444 39.856V39.856ZM21.6916 40.3075C21.7195 40.3651 21.7024 40.5054 21.6545 40.5686L20.0239 43.3287C19.8785 43.5653 19.7417 43.6731 19.5393 43.8282C19.911 43.8858 20.5542 44.0705 20.9276 44.1423C20.8073 43.8806 20.8181 43.5568 21.0126 43.3071C21.5884 43.3578 22.6648 43.4359 23.2373 43.5055C23.3536 43.7774 23.5024 44.1041 23.2373 44.3527C23.6164 44.3499 24.2778 44.3356 24.6472 44.3607C24.4808 44.1628 24.3188 43.9639 24.2493 43.7079C24.076 43.197 23.4317 41.2996 23.2293 40.7118C23.1945 40.6051 23.2413 40.4729 23.2447 40.4609L21.6916 40.3075ZM26.0008 40.3286C25.5846 40.397 24.8764 40.4791 24.4785 40.5282C24.6678 40.661 24.808 40.7431 24.8348 40.9672C24.9329 41.8287 25.1068 42.6542 25.2174 43.5163C25.2402 43.786 25.2448 44.1326 25.0555 44.3527C25.9677 44.266 27.6462 43.9935 28.5545 43.888C28.5197 43.8076 28.4609 43.7318 28.4838 43.6446C28.5248 43.3361 28.64 43.071 28.6782 42.7591C28.3771 43.1035 27.9415 43.2882 27.4672 43.3709C27.1952 43.4165 26.4016 43.5448 26.1547 43.5391C26.0515 42.6651 25.9004 41.7426 25.7944 40.8691C25.7647 40.6411 25.8485 40.5042 26.0008 40.3286V40.3286ZM22.3592 40.9706L23.024 42.7814C22.6084 42.7574 21.8142 42.7084 21.3991 42.6617L22.3592 40.9706ZM17.0347 41.3275C17.4161 41.4763 18.0489 41.6907 18.3882 41.8218C19.1311 42.0807 18.9355 43.0767 18.0353 42.7671C17.631 42.6388 17.0922 42.4707 16.7085 42.3247C16.8009 41.998 16.9423 41.6571 17.0347 41.3275Z" fill="#0053A0"/>
<path fill-rule="evenodd" clip-rule="evenodd" d="M36.9652 8.91952C36.3774 8.89443 35.9886 9.05635 35.5781 9.40357C35.1185 9.82149 34.8055 10.3067 34.8089 11.0348C34.8243 11.6083 35.4509 12.5097 36.2046 12.9852C36.4167 13.142 36.7531 13.3376 36.7851 13.5993C37.0348 13.3438 37.2953 13.0918 37.5508 12.853C36.939 12.6694 35.903 12.0753 35.7542 11.3911C35.6596 10.8466 35.793 10.6687 36.0245 10.3711C36.4566 9.84942 36.8945 9.66071 37.5508 9.84201C38.1374 10.0758 38.6631 10.8107 38.7087 11.3461C39.0138 11.1864 39.3028 11.0593 39.6124 10.9036C39.3667 10.7514 39.2583 10.5689 39.0919 10.3483C38.7315 9.8232 38.0536 9.07346 37.2315 8.94232C37.1391 8.93149 37.049 8.92351 36.9652 8.91952V8.91952ZM40.2014 11.7212C40.1894 12.1055 39.987 12.2241 39.711 12.4293C39.0411 12.8877 38.4065 13.3547 37.7383 13.7988C37.5485 13.9197 37.3027 14.0748 37.0325 13.9448C37.2497 14.2823 37.679 14.8525 37.8991 15.186C37.9219 14.8416 38.1066 14.6854 38.3153 14.5486C39.0377 14.0662 39.7167 13.5457 40.4414 13.0679C40.6506 12.9265 40.7704 12.8649 41.0486 12.9584C40.8331 12.6289 40.4186 12.0513 40.2014 11.7212V11.7212ZM41.4842 13.5286C41.2841 13.8308 40.8399 13.6472 40.5246 13.7686C40.9083 13.9847 41.332 14.678 41.4916 15.0851C40.6335 15.487 39.9243 15.8479 39.0651 16.255C38.902 16.3377 38.6443 16.2852 38.4772 16.2214C38.6546 16.5811 38.951 17.214 39.1289 17.5715C39.2236 17.2944 39.5007 17.0589 39.7589 16.9449C40.5269 16.596 41.1592 16.2584 41.9346 15.9289C42.1313 16.316 42.4614 17.0447 42.3508 17.4814C42.6473 17.3024 42.7927 16.9124 43.1308 16.9489C42.7203 16.0595 41.8987 14.4169 41.4842 13.5286V13.5286ZM43.348 17.3759C43.2665 17.7488 42.9278 17.9637 42.718 18.242C42.2978 18.7329 41.7926 19.2859 41.3006 19.7831C41.1832 19.8931 40.8918 19.9279 40.7151 19.9678C40.349 20.0208 40.1786 20.0636 39.898 19.8287C39.9859 20.2232 40.1295 20.9268 40.2088 21.3213C40.365 21.0847 40.5315 20.9456 40.8388 20.8675C41.1125 20.8185 41.3548 20.713 41.5515 20.7991C42.4495 21.2877 44.1342 21.9838 44.3452 22.2022L44.0379 20.7284C43.9381 20.8726 43.8207 20.9422 43.7009 20.8966C43.1621 20.6879 42.5224 20.3903 42.0652 20.2152C42.3998 19.8264 42.791 19.4507 43.145 19.0824C43.299 18.8948 43.5099 18.8207 43.6969 19.0031L43.348 17.3759V17.3759Z" fill="#0053A0"/>
<path fill-rule="evenodd" clip-rule="evenodd" d="M41.218 26.0721C41.0475 26.0766 40.8542 26.1376 40.6478 26.2745C40.3542 26.5327 40.2459 26.937 40.1489 27.2984C40.0167 27.9091 39.6883 29.164 39.568 29.7763C39.7709 29.6132 39.946 29.595 40.1752 29.6452C41.0714 29.8384 41.9643 30.0414 42.8571 30.2347C43.0732 30.2763 43.2329 30.4456 43.3554 30.6355C43.4871 29.786 44.0151 28.059 44.0008 27.1924C43.9837 26.482 43.3252 26.0287 42.6952 26.1764C42.3377 26.2767 42.137 26.6895 42.0578 26.9792C42.0566 26.5481 41.7294 26.0584 41.218 26.0721ZM41.2214 27.1023C41.4842 27.104 41.7271 27.3463 41.657 27.6508C41.5874 27.9678 41.4614 28.6349 41.3839 28.9484C41.0788 28.8869 40.7618 28.8184 40.4608 28.7489C40.5475 28.4216 40.629 27.957 40.7151 27.6246C40.8018 27.2477 41.0178 27.1023 41.2214 27.1023V27.1023ZM42.8645 27.1588C43.1382 27.1684 43.3891 27.4433 43.3286 27.7779C43.2437 28.1805 43.0886 28.9228 43.0145 29.319C42.6821 29.2518 42.3377 29.1714 42.0019 29.1052C42.0869 28.7021 42.2174 28.1212 42.3246 27.7181C42.4238 27.3053 42.6507 27.1519 42.8645 27.1588ZM39.5047 29.9525C39.2527 30.4052 39.0223 30.8368 38.7583 31.2952C38.9585 31.1994 39.1563 31.1885 39.3211 31.2763C39.9066 31.5859 40.4055 31.8761 40.9853 32.1988C41.2094 32.3283 41.4523 32.5694 41.4774 32.8887C41.4677 33.3163 41.1723 33.8335 40.7789 34.0073C40.4944 34.1408 40.1706 34.0039 39.9545 33.8791C39.4231 33.5598 39.0041 33.3329 38.4727 33.009C38.2891 32.9035 38.1255 32.8254 38.109 32.4845C37.8547 32.9155 37.6255 33.387 37.3586 33.8312C37.7127 33.6727 37.9567 33.7782 38.211 33.9355C38.6837 34.2075 39.0771 34.4355 39.5451 34.7081C39.9026 34.911 40.2607 35.045 40.7487 34.9361C41.1701 34.8386 41.5275 34.431 41.7847 34.0108C42.0566 33.5706 42.2955 33.0581 42.2682 32.5712C42.2442 32.0683 41.9381 31.7251 41.5971 31.4981C41.0406 31.1612 40.5988 30.9291 40.0372 30.6019C39.8211 30.4719 39.5115 30.2763 39.5047 29.9525V29.9525ZM39.8114 35.1351C39.7994 35.5587 39.5623 36.057 39.2606 36.4025C39.1084 36.6066 38.6187 37.162 38.4208 37.3746C37.7503 36.8056 37.1403 36.2896 36.4675 35.7246C36.2896 35.5781 36.1494 35.374 36.1408 35.1425C35.8626 35.4293 35.4869 35.8552 35.2291 36.1625C35.4595 36.13 35.6756 36.2417 35.8483 36.3883C36.508 36.951 37.1477 37.528 37.817 38.0822C38.0177 38.2646 38.1209 38.4414 38.1318 38.7316C38.739 38.0463 39.8656 36.7515 40.4574 36.0547C40.377 36.02 40.2698 36.0074 40.2242 35.9116C40.0492 35.5924 39.9967 35.3882 39.8114 35.1351V35.1351ZM35.1653 36.2417C34.9771 36.4886 34.6003 36.6317 34.3289 36.7515C33.7422 37.0314 32.9189 37.7008 32.7473 38.4847C32.6105 39.1603 32.7593 39.706 33.1327 40.198C33.5022 40.6974 33.968 40.9876 34.6111 41.0042C35.3306 40.9973 36.0975 40.535 36.6653 39.958C36.8524 39.771 37.0815 39.5138 37.3552 39.4927C37.1272 39.2213 36.9367 38.9152 36.6881 38.6563C36.5274 39.1518 35.7531 39.9654 35.2291 40.1079C34.7668 40.2122 34.4572 40.0874 34.1191 39.796C33.7433 39.4072 33.5096 38.9283 33.6652 38.3678C33.8967 37.6454 34.8557 37.1164 35.4583 37.2207C35.3489 36.898 35.2662 36.5525 35.1653 36.2417V36.2417Z" fill="#0053A0"/>
<path fill-rule="evenodd" clip-rule="evenodd" d="M24.1073 9.78613C24.0309 10.0062 23.979 10.2964 23.9277 10.5513C23.9169 10.6071 23.889 10.6453 23.8553 10.6858C22.1489 12.4031 20.0405 11.9031 19.2548 14.4214C19.1659 14.6341 19.2788 14.8593 19.659 15.0697C19.6972 15.0925 19.7309 15.0828 19.7309 15.0429C19.6351 12.3085 23.3296 12.4932 24.1375 10.5957C24.1461 10.5764 24.1735 10.5815 24.182 10.5957C24.861 11.8626 25.9831 12.0285 27.0088 12.6215C27.7768 13.0645 28.3304 13.4664 28.4872 14.7247C28.4923 14.784 28.5088 14.7732 28.5391 14.743C28.6554 14.6147 28.9376 14.5486 28.929 14.3564C28.6805 12.5 26.6359 12.0992 24.9956 11.3346C24.9272 11.2822 24.8576 11.2297 24.7892 11.1773C24.446 10.7713 24.1843 10.3135 24.1073 9.78613ZM24.0777 12.1078C24.0594 12.1089 24.044 12.1129 24.0281 12.122C24.0104 12.1306 23.9933 12.1488 23.9836 12.1676C23.9745 12.1847 23.9779 12.2389 23.9836 12.276C23.9899 12.2999 24.0115 12.313 24.0246 12.3284C24.052 12.3621 24.076 12.3814 24.1113 12.4077C24.1552 12.4367 24.2094 12.4008 24.2191 12.366C24.2322 12.3056 24.2322 12.2389 24.2191 12.1859C24.2156 12.1665 24.2008 12.1545 24.1888 12.1368C24.1723 12.1186 24.1541 12.1089 24.1256 12.1078C24.1136 12.1066 24.0942 12.1055 24.0777 12.1078V12.1078ZM24.6353 12.6249C24.6296 12.626 24.6273 12.6272 24.621 12.6323C24.6102 12.6409 24.6016 12.6551 24.6016 12.6694C24.6005 12.7441 24.5669 12.8529 24.6353 12.8917C24.6689 12.9071 24.7111 12.9128 24.7373 12.8832C24.7504 12.8615 24.7761 12.8541 24.7744 12.8159C24.7744 12.7976 24.7493 12.7919 24.7413 12.7714C24.7305 12.7412 24.7362 12.6876 24.7254 12.6659C24.7157 12.65 24.706 12.6346 24.6883 12.6323C24.67 12.6289 24.6535 12.6203 24.6353 12.6249V12.6249ZM23.6084 12.6357C23.5588 12.6528 23.5064 12.6887 23.4881 12.752C23.4665 12.7897 23.4676 12.8193 23.4881 12.8421C23.5144 12.8809 23.5469 12.9265 23.5925 12.9476C23.6312 12.9658 23.6814 12.9658 23.6985 12.8832C23.7173 12.8147 23.7185 12.7184 23.6877 12.6922C23.6478 12.6637 23.6575 12.6237 23.6084 12.6357ZM24.1518 13.5394C23.9334 14.1968 23.877 14.528 23.7213 15.0514C24.0064 15.0537 24.1638 15.0549 24.369 15.0588C24.202 14.4625 24.194 14.2259 24.1518 13.5394V13.5394Z" fill="#0053A0"/>
<path fill-rule="evenodd" clip-rule="evenodd" d="M14.0721 16.7872C14.0625 16.7872 14.0505 16.7924 14.0385 16.8021C12.5179 17.8745 12.1051 19.7754 10.1497 19.4612C11.5377 20.1101 11.5042 21.7053 11.6458 23.1849C11.7653 24.4312 12.7183 26.1103 15.2877 25.7608C15.3162 25.7585 15.3356 25.7357 15.3173 25.7083C15.1531 25.474 14.6024 25.551 14.4655 25.5282C12.4316 25.1467 12.0871 23.2761 11.6646 21.1591C11.5664 20.5474 11.1694 20.1608 10.9258 19.7013C10.9082 19.6545 10.8923 19.6397 10.9521 19.6289C12.248 19.3808 13.2249 18.2565 14.2637 17.0609C14.2854 17.0478 14.2894 17.0182 14.2637 16.9965C14.205 16.9378 14.1514 16.8728 14.0984 16.8021C14.0887 16.7924 14.083 16.7861 14.0721 16.7872V16.7872ZM13.8777 19.2474C13.8595 19.2486 13.8401 19.2526 13.8247 19.2617C13.8065 19.2702 13.7899 19.2885 13.7791 19.3073C13.7705 19.3244 13.7745 19.3786 13.7791 19.4156C13.7865 19.4396 13.8116 19.4527 13.8247 19.4681C13.8521 19.5017 13.8766 19.5211 13.9114 19.5473C13.9553 19.5764 14.006 19.5405 14.0157 19.5057C14.0288 19.4453 14.0288 19.3786 14.0157 19.3255C14.0117 19.3061 13.9975 19.2942 13.9855 19.2765C13.969 19.2583 13.9507 19.2486 13.9222 19.2474C13.9097 19.2463 13.8943 19.2451 13.8777 19.2474V19.2474ZM14.4621 19.7788C14.4559 19.7805 14.4502 19.7828 14.4439 19.7874C14.4331 19.7948 14.4245 19.809 14.4245 19.8244C14.4211 19.898 14.3829 20.0057 14.4513 20.0456C14.4838 20.0633 14.5254 20.0673 14.5516 20.0382C14.5665 20.0165 14.5927 20.012 14.5927 19.9749C14.5938 19.9555 14.571 19.9504 14.5642 19.9293C14.5545 19.8991 14.5591 19.8449 14.5482 19.8244C14.5397 19.8079 14.5294 19.7896 14.5112 19.7874C14.4929 19.7828 14.4798 19.7754 14.4621 19.7788V19.7788ZM13.4273 19.858C13.3783 19.8752 13.3253 19.9145 13.3076 19.9783C13.2859 20.0154 13.2871 20.0416 13.3076 20.0644C13.3327 20.1032 13.3697 20.1488 13.4153 20.1693C13.4541 20.1882 13.5043 20.1922 13.5214 20.1089C13.5402 20.0405 13.5379 19.9413 13.5054 19.9145C13.4661 19.886 13.4769 19.8461 13.4273 19.858V19.858ZM14.0277 20.7509C13.9473 21.4145 13.705 22.1728 13.4684 22.6711C13.7443 22.6341 13.965 22.8017 13.9821 23.0155C14.0516 22.7732 14.2375 22.5868 14.4581 22.6518C14.3133 22.0497 14.1343 21.4026 14.0277 20.7509V20.7509Z" fill="#0053A0"/>
<path fill-rule="evenodd" clip-rule="evenodd" d="M16.1982 27.2153C16.1874 27.2181 16.1754 27.2216 16.1612 27.2273C13.8065 28.1372 13.3361 30.2513 14.6526 32.1128C15.6418 33.7748 16.0796 34.4596 15.6093 35.7954C17.4497 33.6043 20.7104 37.1489 22.581 34.4157C22.6061 34.382 22.5668 34.3592 22.528 34.3216C22.4368 34.2583 22.341 34.2161 22.2475 34.179C22.1779 34.1528 22.1397 34.1682 22.0975 34.2281C21.3318 35.0348 18.8488 34.8558 16.9714 34.8615C16.9138 34.8615 16.7422 34.8917 16.6857 34.922C16.5055 35.0143 16.3231 35.0958 16.131 35.0787C16.0796 35.0787 16.0015 35.0514 16.0146 34.9448C16.1082 33.5793 15.2957 32.7115 14.7809 31.5849C14.6201 31.2006 13.4273 29.0455 16.2957 27.7364C16.3088 27.7113 16.3362 27.6965 16.3328 27.6583C16.3242 27.5249 16.2969 27.3932 16.2581 27.2563C16.2513 27.2227 16.2319 27.2107 16.1982 27.2153V27.2153ZM18.3283 29.818C18.3101 29.8209 18.2912 29.8243 18.2753 29.8328C18.2576 29.8425 18.2405 29.8602 18.2314 29.8784C18.2228 29.8961 18.2251 29.9503 18.2314 29.9873C18.2371 30.0113 18.2622 30.0233 18.2753 30.0392C18.3044 30.0729 18.3272 30.0917 18.3619 30.1185C18.4064 30.147 18.4617 30.1111 18.4708 30.0763C18.4828 30.0164 18.4845 29.9491 18.4708 29.8961C18.4663 29.8773 18.448 29.8665 18.4378 29.8482C18.4195 29.8288 18.4053 29.8209 18.3773 29.818C18.3642 29.8169 18.3465 29.8157 18.3283 29.818V29.818ZM18.9213 30.3209C18.915 30.322 18.9081 30.3232 18.9019 30.3283C18.8922 30.3368 18.8825 30.3511 18.8836 30.3653C18.8802 30.44 18.842 30.5466 18.9093 30.5877C18.9429 30.6042 18.98 30.6077 19.0073 30.5791C19.0205 30.5575 19.0518 30.5541 19.0518 30.5153C19.053 30.4976 19.0267 30.4925 19.0182 30.4708C19.0085 30.4412 19.017 30.387 19.0073 30.3653C18.9977 30.3488 18.9885 30.3306 18.9691 30.3283C18.952 30.3232 18.9389 30.3175 18.9213 30.3209ZM17.8636 30.3847C17.8146 30.4013 17.7621 30.4412 17.7439 30.5045C17.7211 30.5404 17.7234 30.5683 17.7439 30.5911C17.769 30.6293 17.8026 30.6738 17.8482 30.6955C17.8864 30.7148 17.9372 30.7183 17.9526 30.6356C17.972 30.5672 17.9742 30.4674 17.9417 30.4412C17.9024 30.4121 17.9132 30.3728 17.8636 30.3847V30.3847ZM18.4041 31.2388C18.3237 31.9025 18.0809 32.6608 17.8448 33.1591C18.1208 33.122 18.3414 33.2862 18.3585 33.5011C18.4281 33.2588 18.6139 33.0752 18.8346 33.1408C18.6892 32.5387 18.5096 31.8916 18.4041 31.2388V31.2388Z" fill="#0053A0"/>
<path fill-rule="evenodd" clip-rule="evenodd" d="M31.7792 27.212C31.7672 27.2131 31.7535 27.2251 31.749 27.2382C31.6971 27.3488 31.6446 27.4543 31.5916 27.5649C31.5448 27.6897 31.5426 27.7963 31.7307 27.8562C35.1043 29.2354 33.4434 31.845 32.5637 33.3764C32.4725 33.5337 32.2541 33.9978 32.2376 34.2019C32.2039 34.4192 32.2376 34.6085 32.2324 34.8354C32.2324 34.8884 32.1583 34.9026 32.1173 34.8952C29.9576 34.4802 28.0892 36.3884 26.3189 34.3291C26.1558 34.1529 25.9603 34.1358 25.8884 34.1911C25.8103 34.2498 25.7527 34.3148 25.6974 34.4009C25.6604 34.4528 25.6615 34.4825 25.7048 34.5355C27.5453 37.1165 30.266 34.0685 32.6008 35.3525C32.054 34.04 33.1316 32.7669 33.741 31.622C35.0957 29.3204 33.5107 27.9058 31.7911 27.212C31.786 27.2097 31.7837 27.212 31.7792 27.212V27.212ZM29.9912 29.7691C29.9729 29.7713 29.9576 29.7753 29.9416 29.7845C29.9239 29.793 29.9068 29.8112 29.8971 29.8289C29.8891 29.8472 29.8914 29.9047 29.8971 29.9418C29.9034 29.9658 29.9251 29.9754 29.9382 29.9908C29.9655 30.0233 29.9895 30.0439 30.0243 30.069C30.0687 30.0992 30.1229 30.0633 30.1326 30.0285C30.1457 29.9686 30.1457 29.9002 30.1326 29.8483C30.1292 29.8278 30.1143 29.8169 30.1035 29.7993C30.0858 29.781 30.0676 29.7713 30.0391 29.7691C30.0271 29.7679 30.0077 29.7668 29.9912 29.7691V29.7691ZM30.5573 30.2873C30.5511 30.2873 30.5442 30.2902 30.538 30.2947C30.5271 30.3021 30.5191 30.3175 30.5191 30.3318C30.5163 30.4053 30.4781 30.5131 30.5454 30.5524C30.579 30.5707 30.6195 30.5741 30.6474 30.5456C30.6605 30.5239 30.6879 30.5205 30.6879 30.4817C30.6879 30.4641 30.6668 30.4578 30.6583 30.4361C30.6486 30.4065 30.6531 30.3535 30.644 30.3318C30.6343 30.3153 30.628 30.297 30.6087 30.2947C30.5921 30.2902 30.5739 30.2839 30.5573 30.2873V30.2873ZM29.5111 30.3654C29.4615 30.3825 29.4125 30.423 29.3948 30.4857C29.3732 30.5228 29.3743 30.549 29.3948 30.5718C29.421 30.6106 29.4535 30.6556 29.4992 30.6762C29.5374 30.6955 29.5875 30.699 29.6046 30.6163C29.624 30.5479 29.6212 30.4481 29.5887 30.4219C29.5505 30.3934 29.5602 30.3535 29.5111 30.3654V30.3654ZM30.0847 31.2212C30.0054 31.8849 29.762 32.6432 29.5254 33.1409C29.8025 33.1038 30.0231 33.272 30.0391 33.4853C30.1086 33.243 30.2945 33.0571 30.5152 33.1221C30.3703 32.5194 30.1913 31.8729 30.0847 31.2212V31.2212Z" fill="#0053A0"/>
<path fill-rule="evenodd" clip-rule="evenodd" d="M33.8272 16.7524C33.8203 16.7552 33.8141 16.7609 33.8084 16.7683C33.7827 16.798 33.7616 16.9628 33.7553 17.0717C33.7542 17.0945 33.7542 17.1127 33.7782 17.1281C34.2616 17.4223 35.7104 19.0649 36.9727 19.3517C37.028 19.3636 37.0348 19.4104 37.0075 19.4383C35.5063 21.2024 37.2965 23.9573 34.3375 25.0075C33.7878 25.1586 33.2348 25.0868 33.1327 25.4528C33.1299 25.4659 33.1481 25.4824 33.159 25.4824C34.9384 25.5953 36.0485 24.9955 36.3809 23.7247C36.809 22.3084 36.0029 20.2964 37.5212 19.1983C37.5594 19.1692 37.5388 19.119 37.5052 19.1225C35.9704 19.2787 34.9891 17.6504 33.8488 16.7564C33.8431 16.7524 33.8335 16.7512 33.8272 16.7524ZM34.3147 19.1225C34.2964 19.1265 34.2776 19.1322 34.2616 19.1419C34.244 19.1504 34.2269 19.1681 34.2172 19.1875C34.2092 19.204 34.2115 19.2582 34.2172 19.2952C34.2234 19.3192 34.2451 19.3329 34.2582 19.3482C34.2856 19.3819 34.3095 19.3973 34.3443 19.4224C34.3888 19.4526 34.4429 19.4201 34.4526 19.3853C34.4657 19.3254 34.4657 19.2582 34.4526 19.2051C34.4492 19.1863 34.4344 19.1704 34.4236 19.1527C34.4059 19.1344 34.3876 19.1247 34.3591 19.1225C34.3472 19.1225 34.3312 19.1202 34.3147 19.1225V19.1225ZM34.8352 19.7012C34.8295 19.7023 34.8232 19.7034 34.8175 19.708C34.8067 19.7166 34.8016 19.7308 34.8016 19.7456C34.7981 19.8198 34.7611 19.9264 34.8284 19.9674C34.8603 19.984 34.8991 19.988 34.9253 19.9589C34.9395 19.9372 34.9675 19.9338 34.9675 19.8956C34.9675 19.8773 34.9447 19.8728 34.9373 19.8511C34.9276 19.8209 34.9327 19.7667 34.9219 19.7456C34.9133 19.7285 34.9059 19.7109 34.8882 19.708C34.87 19.7034 34.8534 19.6972 34.8352 19.7012V19.7012ZM33.7639 19.708C33.7143 19.7251 33.6653 19.7645 33.6476 19.8283C33.6259 19.8654 33.6271 19.8916 33.6476 19.9144C33.6727 19.9532 33.7063 19.9988 33.7519 20.0187C33.7901 20.0381 33.8403 20.0415 33.8574 19.9589C33.8751 19.8905 33.8739 19.7947 33.842 19.7684C33.8021 19.7394 33.8129 19.696 33.7639 19.708ZM34.3409 20.5552C34.2616 21.2189 34.0182 21.9772 33.7816 22.4755C34.0575 22.4384 34.2799 22.6061 34.2953 22.821C34.3648 22.5787 34.5507 22.3911 34.7719 22.4561C34.6265 21.8552 34.4475 21.2069 34.3409 20.5552Z" fill="#0053A0"/>
<path fill-rule="evenodd" clip-rule="evenodd" d="M32.8072 12.6431C32.8015 12.6442 32.7952 12.6442 32.7884 12.6476C31.4252 13.0331 29.5842 14.6061 28.0676 15.9847C28.0231 16.0355 27.9621 16.0463 27.9125 16.0292C26.9045 15.6979 25.7323 15.6552 24.7556 15.6284C23.3622 15.5001 21.6871 15.6706 20.1882 16.1563C20.1237 16.1791 20.0753 16.1204 20.0274 16.0628C18.8409 14.7429 17.1692 13.6619 15.3653 12.9093C15.3151 12.8854 15.2729 12.8637 15.2153 12.9168C14.2894 13.7708 14.493 16.3006 15.2878 17.6723C15.3813 17.8713 15.4018 18.2203 15.4041 18.3394C15.4605 19.0772 15.6042 19.7146 15.7975 20.4022C15.8454 20.8292 16.009 21.2637 16.2547 21.632C16.3026 21.6907 16.2821 21.7438 16.2473 21.782C15.9332 22.0967 15.6464 22.3943 15.3322 22.7084C15.3094 22.7301 15.2661 22.7455 15.2239 22.7529C14.9633 22.7831 14.8818 22.8681 14.7587 23.1691C14.7404 23.2124 14.7427 23.2427 14.7655 23.2786C14.81 23.3613 15.1121 23.8847 15.3619 24.1629C15.603 24.4018 15.513 24.6287 15.3094 24.8459C15.6943 25.1338 16.383 25.6846 16.4241 25.7684C16.4674 25.9902 16.8585 26.0649 16.6253 26.383C16.6869 26.3973 16.724 26.4201 16.7718 26.4583C16.8066 26.4959 16.814 26.5318 16.8175 26.5712C16.8488 26.9167 16.9138 27.2303 17.1054 27.561C17.8853 28.8837 18.7594 28.6796 19.7982 29.8073C20.4196 30.4829 21.0331 30.5097 21.4556 31.7014C21.4168 32.1535 21.3929 32.4306 21.5793 32.8217C21.8 33.2995 22.3433 33.3177 23.0417 33.6353C23.1352 33.6718 23.1871 33.7003 23.2555 33.771C23.438 33.9489 23.6478 34.0629 23.8856 34.1758C24.0777 34.2573 24.3052 34.2573 24.4819 34.1684C24.8177 33.9762 24.8884 34.1154 25.5093 33.6689C26.0949 33.4962 27.051 32.7749 26.9489 31.5474C26.9524 31.5115 26.9609 31.4875 26.9718 31.4562C26.99 31.3997 27.0425 31.3433 27.0921 31.2886C27.3281 31.0063 27.5983 30.7566 27.7637 30.4145C27.7973 30.3319 27.8264 30.2515 27.9017 30.1893C30.2393 28.281 29.4126 29.1197 30.2575 28.472C31.9902 27.1544 30.8527 25.6162 32.8819 24.7558C32.6071 24.1737 32.7006 24.1207 33.5946 22.8812C33.1219 22.6315 32.7929 22.3447 32.4651 22.1155C31.4371 21.3093 32.3705 20.6251 32.4548 20.2294C32.5136 20.0048 32.6019 19.7214 32.6236 19.4347C32.7331 18.7739 32.6715 17.995 33.009 17.6495C33.2576 17.4095 33.3295 16.0953 33.3688 15.9887C33.6413 15.1306 33.5415 15.0155 33.5911 14.4767C33.5991 14.4048 33.6248 14.3473 33.5911 14.268C33.4013 13.7446 33.1687 13.2383 32.9007 12.7366C32.8768 12.6933 32.8591 12.6516 32.8254 12.6431C32.8203 12.6419 32.8135 12.6431 32.8072 12.6431V12.6431ZM31.9976 14.6614C31.8881 15.7378 31.4959 16.4505 31.6184 17.3531C31.1612 17.9147 31.3146 18.962 30.8944 19.5886C30.867 19.6245 30.8299 19.645 30.7855 19.6411C30.2273 19.5487 29.8362 18.8457 29.3612 18.4483C29.3128 18.4101 29.2888 18.3742 29.3048 18.336C29.4981 17.9061 29.9416 17.4751 29.5973 17.0383C29.6144 15.7869 31.1093 15.5856 31.9976 14.6614V14.6614ZM15.9212 14.8678C16.7981 15.3587 17.3574 16.1831 17.7884 16.1951C17.8557 16.2994 17.9515 16.4072 18.0319 16.4916C18.6773 17.2259 18.1653 17.4996 18.7326 18.4415C18.7942 18.5732 18.8215 18.7015 18.7326 18.7818C18.3534 19.112 18.0165 19.4466 17.7018 19.8092C17.2855 20.3144 17.0826 20.1285 16.9594 19.8092C16.8825 19.5726 16.8009 19.3052 16.9075 19.0327C16.9737 18.8828 16.9338 18.7596 16.8209 18.6165C16.6698 18.4044 16.5466 18.1798 16.4275 17.9563C16.3853 17.8725 16.3579 17.8006 16.3414 17.6951C16.1914 16.7664 16.2188 15.3775 15.9212 14.8678ZM26.8144 24.062C26.8783 24.0551 26.9347 24.099 26.9421 24.1629C26.9489 24.2279 26.9011 24.2877 26.8372 24.2946C26.7728 24.3009 26.7163 24.2541 26.7089 24.1891C26.7032 24.1258 26.7511 24.0694 26.8144 24.062V24.062ZM20.8256 24.0728C20.8906 24.0671 20.9465 24.1099 20.9527 24.1749C20.9601 24.2387 20.9117 24.2946 20.8484 24.302C20.7845 24.3094 20.7269 24.2649 20.7212 24.2011C20.7138 24.1367 20.7617 24.0802 20.8256 24.0728V24.0728ZM30.4747 26.6795C30.5694 26.6806 30.5985 26.769 30.5876 26.8591C30.4867 28.1311 29.8938 27.781 28.5391 28.9857C28.185 29.2685 28.3013 29.5433 27.8236 29.9459C27.4233 30.3199 27.0499 30.711 26.7089 31.1951C26.6536 31.2777 26.6131 31.1899 26.608 31.1529C26.5915 31.052 26.5316 30.9379 26.4472 30.8456C26.2232 30.5936 26.5806 30.6249 26.1775 30.0211C26.0105 29.7765 25.8172 30.0918 25.7009 29.695C25.6291 29.439 25.6975 29.565 25.6074 28.9709L25.844 28.7754C25.9552 29.0924 26.1114 29.3575 26.2819 29.5781C26.307 29.6083 26.2602 29.8757 26.3645 30.1112C26.3862 29.7395 26.7186 29.5257 26.2448 28.8586C26.1832 28.7719 26.1513 28.687 26.1285 28.5849C26.1257 28.5741 26.1234 28.5655 26.1211 28.5547C27.0185 27.9715 28.0231 27.4954 28.9713 27.1026C28.9228 27.1567 28.876 27.2109 28.8282 27.2685C28.8065 27.2947 28.8487 27.3044 28.8618 27.2987C28.9194 27.2827 28.9467 27.2901 28.9924 27.2987C29.0226 27.3164 29.0191 27.3477 29.0191 27.3762C29.026 27.4868 28.9376 27.4931 28.9638 27.6163C29.1201 27.4161 29.2689 27.2217 29.4279 27.0393C29.4656 26.9925 29.5146 26.9372 29.5887 26.9458L29.762 26.9686C29.8208 26.9709 29.8772 26.96 29.9416 26.9418C30.0944 26.8819 30.2085 26.8078 30.3544 26.7092C30.4023 26.6863 30.4422 26.6795 30.4747 26.6795V26.6795ZM17.732 26.8819C17.7377 26.8819 17.7474 26.8859 17.7548 26.8893C18.2046 27.1151 18.8181 27.2565 19.1311 27.3882C19.2953 27.4652 19.4721 27.5792 19.5992 27.5986C19.6517 27.602 19.6517 27.5735 19.6254 27.5421C19.5918 27.4891 19.5581 27.4389 19.5245 27.3922C20.2976 27.7508 21.0137 28.167 21.7709 28.6676C21.7686 28.6739 21.7652 28.6796 21.764 28.6858C21.7424 28.7503 21.7207 28.809 21.699 28.862C21.6871 28.8922 21.674 28.9259 21.662 28.9521C21.6523 28.9749 21.6415 28.9989 21.6318 29.0194C21.6141 29.0576 21.5958 29.0998 21.5793 29.1323C21.5576 29.1739 21.5337 29.2229 21.5155 29.2594C21.5098 29.2737 21.5035 29.2868 21.4972 29.301C21.4852 29.3278 21.4721 29.3541 21.4641 29.3791C21.4579 29.3974 21.4533 29.4139 21.4482 29.4322C21.4459 29.4402 21.4425 29.4487 21.4413 29.4584C21.4362 29.4823 21.4351 29.5063 21.4328 29.5325C21.4316 29.557 21.4316 29.5821 21.4328 29.6083C21.4351 29.6363 21.4362 29.6637 21.4413 29.695C21.4505 29.7703 21.4721 29.7993 21.4972 29.8113C21.5046 29.8147 21.5155 29.8159 21.524 29.8182C21.5417 29.8221 21.5765 29.8278 21.5873 29.7993C21.5958 29.7725 21.609 29.7463 21.6209 29.7212C21.6329 29.695 21.6437 29.6711 21.6586 29.6454C21.6859 29.5952 21.7184 29.5451 21.7521 29.4955C21.7589 29.4846 21.7663 29.4727 21.7749 29.4618C21.8359 29.3757 21.9032 29.2931 21.9653 29.2075C21.9716 29.199 21.975 29.1921 21.9813 29.1847C22.0064 29.1477 22.0292 29.1095 22.052 29.0718C22.0605 29.0587 22.0696 29.0445 22.0782 29.0314C22.0999 28.9937 22.1215 28.9567 22.1381 28.9185L22.6221 29.2782C22.5417 29.4749 22.4385 29.7418 22.4083 29.931C22.3519 30.3569 22.0902 30.2612 21.8946 30.0992C21.9066 30.5383 21.9402 30.727 21.6956 31.1118C21.6631 31.1671 21.6329 31.1477 21.613 31.1118C21.0211 29.971 20.4499 30.2429 19.7013 29.0274C19.634 28.8512 19.5068 28.683 19.2617 28.5918C18.3392 28.2286 17.6801 27.9789 17.7018 26.919C17.7029 26.9002 17.7126 26.8819 17.732 26.8819V26.8819ZM25.8691 30.6922C25.9073 30.6945 25.9409 30.727 25.9552 30.7675C26.1416 31.1877 26.3731 31.9266 26.2973 32.1654C26.0236 33.2145 25.2847 33.3884 24.5982 33.2983C24.0834 33.2311 24.0811 33.1102 24.0726 32.7658C24.0737 32.7282 24.1256 32.7139 24.1672 32.702C24.7892 32.5064 25.1633 32.1677 25.1792 31.5212C25.1826 31.4334 25.1935 31.341 25.149 31.2618C25.3229 31.1506 25.4837 31.0354 25.641 30.8912C25.6456 30.8866 25.6519 30.8815 25.6553 30.8758C25.7032 30.7999 25.7573 30.7389 25.832 30.699C25.8451 30.6945 25.8571 30.6911 25.8691 30.6922ZM22.4117 30.7714C22.4323 30.7652 22.4505 30.776 22.4722 30.8011C22.4876 30.8182 22.5092 30.8718 22.5583 30.8718C22.6421 30.9778 22.7589 31.0691 22.869 31.1495C22.8353 31.1825 22.8148 31.2213 22.8017 31.2618C22.7669 31.3615 22.7732 31.5309 22.8017 31.6854C22.8137 31.7766 22.845 31.857 22.8918 31.9363C23.1164 32.2858 23.2761 32.4425 23.5292 32.6153C23.6347 32.6792 23.751 32.7345 23.8856 32.7213C23.9226 32.7162 23.9443 32.7413 23.938 32.7727C23.8975 33.2875 23.6632 33.3223 23.072 33.2493C21.7618 32.9876 21.646 32.1341 22.3553 30.8456C22.3712 30.8 22.3929 30.7771 22.4117 30.7714ZM24.1113 33.5566C24.2921 33.5526 24.4842 33.5589 24.6729 33.5828C24.7014 33.5885 24.7037 33.6125 24.6957 33.6319C24.6689 33.7026 24.5897 33.7926 24.5492 33.8274C24.5241 33.8468 24.4853 33.8542 24.4517 33.8645C24.3103 33.9021 24.0897 33.9186 24.0509 33.9129C24.0161 33.9055 23.9813 33.8924 23.9488 33.8719C23.8257 33.8023 23.7105 33.7219 23.5891 33.6478C23.5629 33.6273 23.5617 33.5959 23.5925 33.5914C23.7561 33.5754 23.9289 33.5612 24.1113 33.5566V33.5566Z" fill="#0053A0"/>
<path fill-rule="evenodd" clip-rule="evenodd" d="M32.6612 13.5957C32.6538 13.5957 32.6464 13.5968 32.6384 13.5991C31.1492 14.1408 29.3019 15.2183 28.3412 16.6483C27.9535 16.9607 27.5562 17.2652 27.1445 17.5326C28.0003 16.3951 26.2927 16.3199 24.2345 16.0964C22.8199 15.9755 21.1317 16.4179 20.5821 16.7195C20.5325 16.748 20.5017 16.8045 20.5411 16.8547C20.6944 17.073 20.7418 17.3302 20.8324 17.5713C20.845 17.5976 20.8193 17.5998 20.7994 17.5822C19.0085 15.9789 16.3328 13.8163 15.4411 13.6031C15.3989 13.5957 15.3607 13.61 15.3391 13.6487C15.2758 13.7816 15.261 13.8203 15.2119 13.952C15.1771 14.0684 15.1133 14.1408 15.0814 14.1727C14.5711 14.6733 15.4651 15.6117 15.5985 17.3279C15.6874 18.0525 15.8625 18.3775 16.0289 18.8758C16.0546 18.9431 16.0711 19.0007 16.082 19.0674C16.3134 19.8667 16.4645 20.6815 16.7718 21.4221C17.1379 22.6114 15.7028 22.4159 15.6441 23.4022C15.6105 24.0716 16.3961 24.4387 16.2621 24.9285C16.2536 24.9593 16.196 24.9929 16.2285 25.0328C16.8334 25.6606 17.0672 25.514 17.3118 26.0346C17.8796 27.0295 18.4965 25.9411 19.5245 27.3921C20.2976 27.7507 21.0137 28.1669 21.7709 28.6675C21.825 28.4982 21.8752 28.2884 21.9208 28.0147C22.0109 27.4736 21.9932 26.9274 21.6511 26.1726C21.5884 26.0625 21.6261 25.8761 21.7372 25.7877C21.7937 25.7455 21.8176 25.729 21.8239 25.8162C21.9197 26.8197 22.7418 27.4964 22.2355 28.4457C22.2173 28.4805 22.1956 28.509 22.2019 28.5655C22.2127 28.6937 22.1865 28.8089 22.1381 28.9184L22.6221 29.2781C22.654 29.2 22.6831 29.1345 22.7014 29.0877C22.9169 27.9725 23.0862 26.1726 23.2481 25.9485C23.263 25.9268 23.2806 25.8932 23.2481 25.8692C23.06 25.6748 22.8485 25.3521 22.9448 25.2546C23.048 25.1765 23.6489 25.4194 23.6455 25.855C23.6204 26.245 23.2401 29.8557 22.7646 30.3654C22.7418 30.3916 22.7504 30.4099 22.7646 30.4293C22.9722 30.7217 22.9277 30.7942 22.8547 30.8312C22.7886 30.8563 22.6506 30.8455 22.5885 30.8683C22.5776 30.8717 22.5668 30.8717 22.5583 30.8717C22.6421 30.9777 22.7589 31.069 22.869 31.1494C22.9351 31.0844 23.0469 31.0365 23.2185 31.0108C23.889 30.8945 24.5287 30.9139 25.0184 31.1454C25.084 31.179 25.125 31.2189 25.149 31.2617C25.3229 31.1505 25.4837 31.0353 25.641 30.8911C25.5954 30.9247 25.4985 30.8922 25.4837 30.8152C25.2151 29.3517 24.9283 29.1259 24.759 28.0221C24.6906 27.6475 24.6581 27.2553 24.7288 26.8961C24.7516 26.7798 24.759 26.6743 24.7288 26.5483C24.6319 26.1874 24.6376 25.8105 24.7185 25.453C24.7733 25.3327 24.9141 25.1719 25.0144 25.0363C25.0977 24.9274 25.1564 24.8002 25.202 24.6622C25.2488 24.5191 25.7129 23.8258 26.1091 23.7164C26.1428 23.7078 26.1473 23.6879 26.1513 23.6565C26.1547 23.6217 26.0897 23.6206 26.0949 23.5676C26.1091 23.2916 27.8441 23.4404 28.7574 23.5254C29.1052 23.4946 29.4525 23.4404 29.7809 23.3794C29.8384 23.3686 29.8424 23.3885 29.8077 23.425C29.5351 23.7249 29.1429 23.8891 28.7877 23.9347C28.7204 23.9444 28.7021 23.9815 28.689 24.0322C28.4861 25.0505 27.0128 25.5425 26.372 25.4228C26.3309 25.4154 26.3298 25.4445 26.3309 25.465C26.3777 25.9867 26.1536 26.0397 25.9592 27.5648C25.9472 27.6498 25.9506 27.7256 25.9637 27.8117C25.9939 28.0592 26.0658 28.2941 26.1211 28.5546C27.0185 27.9714 28.0231 27.4953 28.9713 27.1025C29.1628 26.8858 29.3527 26.6897 29.5517 26.469C29.607 26.396 29.7136 26.3516 29.8145 26.3157C30.5694 25.9987 31.3339 25.5055 31.9075 24.8829C31.924 24.8624 31.9588 24.8287 31.948 24.7894C31.773 23.9706 32.3129 23.7283 32.6527 23.1211C32.704 23.0419 32.6487 23.0214 32.5928 22.9928C32.2194 22.7574 31.8796 22.4324 31.6184 22.1274C31.5569 22.0361 31.5306 21.921 31.509 21.8189C31.2387 20.5475 31.798 20.4546 31.899 19.7191C31.8915 19.353 31.9902 18.9226 32.1053 18.5423C32.241 18.0993 32.302 17.7395 32.4583 17.4921C32.5352 15.2771 33.2228 15.7771 33.0353 14.5963C32.9862 14.3603 32.8614 13.9315 32.7126 13.6368C32.7006 13.6088 32.6823 13.5968 32.6612 13.5957V13.5957ZM32.2376 14.0279C32.2496 14.025 32.2627 14.0267 32.2747 14.0279C32.3539 14.0336 32.4161 14.0923 32.4246 14.1658C32.4389 14.3095 32.4702 14.4418 32.4987 14.5746C31.9868 15.7987 32.2844 17.479 31.6144 18.5087C31.5808 19.4106 31.4679 19.9859 30.932 20.3457C30.9103 20.3622 30.8864 20.3599 30.8607 20.3457C30.0055 19.9277 29.2409 19.0566 28.4946 18.373C29.656 17.6169 28.6041 16.8227 29.4319 15.955C30.3955 14.9373 31.2439 14.8363 32.1247 14.0792C32.1618 14.0478 32.2 14.0313 32.2376 14.0279ZM15.5876 14.0912C15.6931 14.0923 15.8146 14.1487 15.9018 14.2331C16.7599 14.6083 16.6829 14.9515 17.3528 15.2879C17.4954 15.362 17.7394 15.4954 17.9275 15.5382C18.0142 15.8387 18.1556 15.8301 18.4709 16.3678C18.5467 16.4995 18.8238 16.7155 18.8489 16.8957C18.8683 17.0086 18.866 17.1067 18.8574 17.215C18.8489 17.5206 18.7229 17.8125 18.8911 17.9493C19.029 18.02 18.9378 18.0896 19.1875 18.2156C19.3136 18.2766 19.3785 18.3393 19.3113 18.471C19.1117 18.8205 18.8671 19.1084 18.6442 19.4277C18.586 19.5018 18.5011 19.5606 18.415 19.6113C17.9309 19.9015 17.529 20.3097 17.0945 20.6946C17.0672 20.7151 17.0541 20.6946 17.0347 20.6877C16.6185 20.4511 16.5079 20.0384 16.4526 19.4756C16.3089 17.9733 16.0073 19.2726 15.501 14.7993C15.4326 14.5974 15.3584 14.2377 15.4217 14.155C15.4651 14.1105 15.5227 14.09 15.5876 14.0912V14.0912ZM25.3856 17.0046C25.0002 17.719 24.8046 17.6517 24.572 17.9311C24.5549 17.9505 24.5372 17.9744 24.519 17.9984C24.5024 18.0223 24.4842 18.0474 24.4677 18.0765C24.4494 18.105 24.4363 18.1306 24.4289 18.1557C24.4289 18.1569 24.43 18.158 24.4289 18.1592C24.4232 18.1831 24.4192 18.2099 24.4181 18.231C24.4289 18.4642 24.3907 18.5588 24.4517 18.6358C24.4557 18.6415 24.458 18.6478 24.4591 18.6546C24.4625 18.662 24.4625 18.6694 24.4637 18.6763C24.4648 18.6922 24.4614 18.7076 24.4557 18.7185C24.4124 18.6911 24.3451 18.6392 24.2875 18.5879C24.243 18.548 24.206 18.5109 24.1889 18.4784C24.1889 18.4773 24.19 18.4762 24.1889 18.475C24.1843 18.4642 24.182 18.4533 24.182 18.4448C24.182 18.4208 24.1797 18.4055 24.178 18.3918C24.1723 18.3382 24.1569 18.3462 24.1444 18.2874C24.1387 18.2578 24.1313 18.211 24.129 18.1295C24.1279 18.0896 24.129 18.0394 24.129 17.979C24.1244 17.9408 24.1279 17.9214 24.1376 17.9049C24.141 17.8975 24.1461 17.8895 24.1518 17.8821C24.1581 17.8746 24.1638 17.8678 24.1712 17.8593C24.519 17.5018 24.9808 17.2652 25.3856 17.0046V17.0046ZM22.6113 17.0913C22.9756 17.3387 23.385 17.6694 23.7846 18.0018C23.7932 18.0115 23.7989 18.0212 23.8074 18.032C23.8302 18.0668 23.8474 18.1078 23.8377 18.1592C23.8137 18.3102 23.7413 18.4556 23.6837 18.609C23.6814 18.6164 23.6769 18.6198 23.6717 18.625C23.6672 18.6284 23.6632 18.6335 23.6575 18.6358C23.6455 18.6404 23.6313 18.6392 23.6239 18.6318C23.552 18.5406 23.4739 18.4482 23.4089 18.3547C23.3872 18.3262 23.3644 18.2948 23.3644 18.2566C23.3673 18.2264 23.3684 18.1962 23.3684 18.1711C23.3684 18.1449 23.3673 18.1221 23.3644 18.0993C23.3587 18.0571 23.3456 18.02 23.3274 17.991C23.3262 17.9898 23.3274 17.9875 23.3274 17.9875C23.2892 17.9265 23.223 17.8906 23.1176 17.8627C23.0309 17.8376 22.9556 17.7994 22.8918 17.7549C22.8906 17.7538 22.8895 17.7549 22.8884 17.7549C22.7949 17.6876 22.7276 17.5976 22.682 17.4887C22.682 17.4875 22.6786 17.4858 22.6786 17.4847C22.6329 17.3735 22.6124 17.2435 22.6113 17.0913V17.0913ZM27.4376 20.6011C27.5356 20.5965 27.6388 20.6085 27.7409 20.6313C27.8418 20.6541 27.9427 20.6889 28.0288 20.7356C28.0556 20.7522 28.0624 20.7847 28.0328 20.7955C27.8885 20.8343 27.742 20.8833 27.5943 20.942C27.5202 20.9705 27.4484 21.003 27.3726 21.0355C27.0008 21.1997 26.6217 21.405 26.2448 21.5949C26.2049 21.6114 26.1787 21.6057 26.1616 21.5829C26.1559 21.5743 26.1513 21.5658 26.1473 21.5527C26.1388 21.5122 26.1405 21.4723 26.1439 21.4329C26.1462 21.3942 26.1536 21.3548 26.1547 21.3126C26.1582 21.255 26.1941 21.2516 26.2146 21.2225C26.2853 21.1952 26.3452 21.1712 26.3948 21.1484C26.5424 21.08 26.6023 21.0321 26.6525 20.9876C26.6872 20.9574 26.7186 20.9301 26.7619 20.8964C26.8064 20.8639 26.8651 20.8269 26.9609 20.7813C27.0185 20.755 27.0761 20.7311 27.1325 20.7054C27.1901 20.6815 27.2466 20.6575 27.3019 20.6381C27.3452 20.6153 27.3954 20.6022 27.4376 20.6011V20.6011ZM20.1209 20.6792C20.1283 20.6792 20.138 20.6815 20.1437 20.6792C20.1676 20.6877 20.187 20.6974 20.2041 20.7054C20.2207 20.7151 20.2326 20.7248 20.2446 20.7356C20.2891 20.7738 20.3073 20.8172 20.4213 20.8713C20.4487 20.8844 20.4846 20.901 20.5257 20.9158C20.5673 20.9301 20.6169 20.9443 20.6756 20.9614C20.817 21.007 20.9179 21.0333 21.0126 21.0692C21.0149 21.0703 21.0149 21.0726 21.0177 21.0726C21.1112 21.1102 21.2013 21.1558 21.3125 21.2345C21.3513 21.2613 21.3917 21.2927 21.4373 21.3286C21.4818 21.3645 21.5326 21.405 21.5873 21.4517C21.6101 21.47 21.6306 21.482 21.6358 21.5156C21.6369 21.5264 21.6358 21.5373 21.6318 21.5492V21.5527C21.6283 21.5646 21.6232 21.5755 21.6175 21.5874C21.6033 21.6125 21.5839 21.6342 21.5645 21.6513C21.5576 21.6559 21.5514 21.6598 21.5457 21.6621C21.5405 21.6633 21.5308 21.6633 21.5189 21.6621C21.483 21.6547 21.4544 21.6502 21.4254 21.6393C21.3991 21.6296 21.3763 21.6177 21.3547 21.6057C21.3319 21.5937 21.3125 21.5829 21.2948 21.5686C21.2766 21.5538 21.2623 21.5384 21.2458 21.523C21.2121 21.4917 21.1774 21.4592 21.1329 21.4255C21.1124 21.409 21.0896 21.393 21.0616 21.3765C21.0343 21.3605 21.0029 21.344 20.9681 21.3286C20.9322 21.3126 20.9037 21.3092 20.8746 21.3166C20.8649 21.32 20.8541 21.3223 20.845 21.3286C20.8062 21.344 20.7703 21.3257 20.7321 21.3166C20.703 21.3103 20.6705 21.2995 20.6386 21.2875C20.6369 21.2864 20.6357 21.2875 20.6346 21.2875C20.4008 21.1952 20.11 20.9671 20.1089 20.6946C20.1089 20.69 20.1118 20.6855 20.1129 20.6826C20.1152 20.6815 20.1175 20.6792 20.1209 20.6792V20.6792ZM20.6192 23.2893C20.6813 23.2893 20.7463 23.2927 20.8113 23.2962C20.8769 23.3024 20.9442 23.3081 21.0126 23.319C21.0645 23.3275 21.1146 23.3384 21.1677 23.3492C21.1842 23.3538 21.2013 23.3566 21.219 23.3612C21.2503 23.3686 21.2817 23.3777 21.3125 23.3874C21.3535 23.3982 21.3929 23.4102 21.4328 23.425C21.4915 23.445 21.548 23.4666 21.6055 23.4917C21.6557 23.5134 21.7065 23.5373 21.7555 23.563C21.8045 23.5892 21.8541 23.6194 21.902 23.6491C21.9425 23.6742 21.9824 23.701 22.0217 23.7283C22.04 23.7403 22.0577 23.7489 22.0748 23.762C22.1033 23.7836 22.1324 23.8064 22.1609 23.8293C22.1671 23.8338 22.1728 23.8389 22.1791 23.8446C22.1837 23.8486 22.1899 23.8521 22.1945 23.8555C22.2031 23.8629 22.2127 23.8714 22.2213 23.8783C22.2584 23.9108 22.2954 23.9478 22.3325 23.9826C22.3809 24.0282 22.4265 24.075 22.4722 24.1257C22.4756 24.1291 22.479 24.1326 22.4841 24.1366C22.5246 24.1833 22.5628 24.2323 22.6039 24.2825C22.6267 24.3139 22.6506 24.3452 22.6746 24.3766C22.6939 24.404 22.7116 24.4279 22.731 24.4558C22.7732 24.518 22.8114 24.583 22.8513 24.6514C22.8667 24.6776 22.8787 24.7124 22.8775 24.7409C22.8764 24.7506 22.8741 24.758 22.869 24.7677C22.8319 24.847 22.8091 24.9274 22.7909 25.0186C22.7886 25.0317 22.7766 25.0425 22.7646 25.0448C22.7601 25.0448 22.7527 25.0437 22.7493 25.0414C22.6843 25.0015 22.6244 24.9633 22.5657 24.9211C22.5092 24.8806 22.4562 24.8361 22.4049 24.7928C22.4037 24.7928 22.4009 24.7939 22.4009 24.7928C22.3484 24.7495 22.3005 24.7039 22.2509 24.6582C21.8108 24.2517 21.5012 23.8099 20.9082 23.6913C20.9071 23.6901 20.906 23.6913 20.9048 23.6913C20.6397 23.6383 20.3216 23.6514 19.9076 23.7586C19.7697 23.7728 19.6169 23.7728 19.4612 23.762C19.305 23.7511 19.1465 23.7295 18.9954 23.7021C18.9224 23.689 18.8466 23.673 18.7782 23.6565C18.777 23.6565 18.7759 23.6576 18.7748 23.6565C18.7063 23.6405 18.6425 23.6217 18.5838 23.6046C18.5815 23.6035 18.5803 23.6046 18.5792 23.6046C18.4578 23.5687 18.3597 23.5305 18.2913 23.4957C18.6009 23.5014 18.9412 23.498 19.2354 23.4849C19.5296 23.4718 19.7742 23.4524 19.8917 23.4284C19.9316 23.4091 19.9795 23.3925 20.0314 23.3754C20.0793 23.36 20.1346 23.3429 20.1921 23.3309C20.1967 23.3298 20.203 23.3309 20.2075 23.3309C20.2589 23.3201 20.313 23.311 20.3717 23.3047C20.3814 23.3036 20.3888 23.3013 20.3985 23.3013C20.4692 23.2939 20.5422 23.2905 20.6192 23.2893V23.2893ZM27.1553 23.7922C26.8936 23.8076 26.6069 23.9074 26.2819 24.189C25.7898 24.6725 25.3759 25.274 25.0589 25.843C25.0219 25.9126 25.0099 25.9759 25.0253 26.0494C25.3856 27.7074 25.5401 28.533 25.6074 28.9708L25.844 28.7753C25.702 28.3762 25.6291 27.8933 25.6781 27.3128C25.8486 26.8687 25.9375 26.3442 26.0156 25.843C26.2745 25.2934 26.3013 25.0602 26.5516 25.075C26.7762 25.087 27.0088 25.0978 27.2192 25.0522C27.3007 25.0363 27.368 25.0038 27.441 24.9581C27.795 24.7449 28.0972 24.4558 28.3555 24.1291C28.3869 24.0955 28.4057 24.0237 28.3891 23.9912C28.3794 23.9661 28.364 23.953 28.3327 23.953C27.9604 23.9758 27.5932 23.7665 27.1553 23.7922V23.7922ZM27.0356 23.8327C27.1052 23.8315 27.177 23.8469 27.2454 23.8749C27.3834 23.929 27.4843 24.0345 27.5385 24.1594C27.5658 24.2227 27.5812 24.2888 27.5841 24.3583C27.5852 24.4279 27.5733 24.4997 27.5453 24.5682C27.518 24.6366 27.478 24.6953 27.429 24.7449C27.2825 24.8926 27.0533 24.9462 26.848 24.8646C26.8132 24.8504 26.7808 24.8361 26.7511 24.8156C26.7209 24.7962 26.6969 24.7723 26.6719 24.7483C26.5242 24.6018 26.47 24.3766 26.5516 24.1713C26.5624 24.1434 26.5744 24.1195 26.5892 24.0955C26.5915 24.0932 26.5949 24.0909 26.5972 24.0881C26.6034 24.0778 26.608 24.0681 26.6154 24.0585C26.6297 24.0391 26.6456 24.0225 26.661 24.0054L26.6753 23.9912C26.6981 23.9684 26.7209 23.9456 26.7477 23.9273C26.7676 23.9119 26.7916 23.9011 26.8144 23.8891C26.8184 23.888 26.8218 23.888 26.8252 23.8857C26.8326 23.8834 26.8372 23.8771 26.8446 23.8749C26.8737 23.8629 26.9033 23.8543 26.9347 23.8486C26.9672 23.8412 27.002 23.8338 27.0356 23.8327V23.8327ZM21.0514 23.8412C21.1209 23.8389 21.1876 23.8509 21.2577 23.8783C21.2908 23.8914 21.3245 23.9074 21.3547 23.9273C21.3849 23.9467 21.4088 23.9695 21.4328 23.9946C21.459 24.0203 21.4807 24.0442 21.5012 24.0727C21.5394 24.1303 21.5685 24.1941 21.5839 24.2614C21.6055 24.3606 21.5981 24.469 21.5576 24.5722C21.5428 24.6069 21.5274 24.6354 21.508 24.6657C21.508 24.6668 21.5098 24.6679 21.508 24.6691C21.4305 24.7865 21.3079 24.8658 21.1745 24.8949C21.1072 24.9091 21.0377 24.9102 20.9681 24.8983C20.9333 24.8926 20.8974 24.8817 20.8638 24.8686C20.829 24.8538 20.7954 24.8384 20.7657 24.819C20.707 24.7808 20.6585 24.7301 20.6192 24.6725C20.5228 24.5311 20.4955 24.3464 20.5639 24.1748C20.577 24.1411 20.5964 24.1098 20.6158 24.0813C20.6334 24.0533 20.6505 24.0282 20.6716 24.0054C20.6768 24.0009 20.6825 23.9986 20.6876 23.9946C20.7104 23.9718 20.7321 23.9478 20.7583 23.9313C20.78 23.9153 20.8028 23.9045 20.8256 23.8925C20.8267 23.8925 20.8279 23.8903 20.829 23.8891C20.8507 23.8794 20.8746 23.8749 20.8974 23.8675C20.9191 23.8606 20.9419 23.8521 20.9647 23.8486H20.9721C20.9972 23.8435 21.0246 23.8412 21.0514 23.8412V23.8412ZM19.3483 24.1029C19.3614 24.1029 19.3757 24.1052 19.3894 24.1075C19.3917 24.1075 19.3951 24.1063 19.3974 24.1075C19.4213 24.1098 19.4453 24.1183 19.4721 24.1291C19.5006 24.1411 19.5308 24.1554 19.5621 24.1748C19.5941 24.1941 19.6277 24.2158 19.6642 24.242L19.6745 24.2494C19.7058 24.2734 19.7372 24.2973 19.7719 24.3247C19.809 24.3538 19.8438 24.3789 19.8848 24.4114C19.9601 24.4701 20.0433 24.5345 20.1317 24.5984C20.1762 24.6309 20.2218 24.6605 20.2708 24.6919C20.3085 24.7158 20.3467 24.7438 20.3877 24.7677C20.4042 24.7774 20.4225 24.7865 20.439 24.7962C20.4858 24.823 20.5354 24.8481 20.5855 24.872C20.6346 24.896 20.6865 24.9177 20.7389 24.9393C20.756 24.9462 20.7714 24.9559 20.7885 24.9621C20.841 24.9821 20.8963 24.9981 20.9527 25.0146C21.02 25.034 21.0884 25.0534 21.1591 25.0676C21.231 25.0807 21.3045 25.0904 21.3809 25.0961C21.4579 25.1035 21.5383 25.1081 21.6209 25.1081C21.6369 25.1081 21.6489 25.1121 21.6586 25.1189C21.6677 25.1252 21.6751 25.1337 21.6774 25.1491C21.6797 25.2786 21.5611 25.3242 21.4328 25.3327C21.357 25.3339 21.2817 25.3316 21.2047 25.3293C20.9789 25.323 20.7549 25.3054 20.5291 25.2689C20.5052 25.2666 20.4846 25.2609 20.4618 25.2512C20.4402 25.2415 20.4213 25.2284 20.3985 25.213C20.329 25.1657 20.2554 25.1121 20.1813 25.0522C20.1066 24.9918 20.0359 24.9296 19.9675 24.8686C19.8968 24.8059 19.8318 24.7483 19.7754 24.6953C19.7201 24.644 19.6762 24.5995 19.6448 24.5682C19.6123 24.5397 19.5872 24.5157 19.5656 24.4929C19.545 24.4712 19.5274 24.4496 19.5125 24.433C19.4852 24.3994 19.4732 24.3766 19.4578 24.3549C19.4492 24.3441 19.4407 24.3344 19.431 24.3247C19.4014 24.2934 19.3529 24.2597 19.244 24.201C19.2309 24.1953 19.2223 24.1902 19.2212 24.1822C19.22 24.177 19.22 24.1736 19.2246 24.1673C19.2286 24.1616 19.232 24.1542 19.2389 24.1485C19.2508 24.1388 19.2657 24.1314 19.2776 24.1257C19.2885 24.1195 19.2993 24.1138 19.3113 24.1109C19.3232 24.1075 19.3352 24.1041 19.3483 24.1029V24.1029Z" fill="#FDBE11"/>
</g>
<defs>
<clipPath id="clip0_217_3978">
<rect width="48" height="48" fill="white"/>
</clipPath>
</defs>
</svg>
