<svg width="25" height="25" viewBox="0 0 25 25" fill="none" xmlns="http://www.w3.org/2000/svg">
<path d="M9.65722 21.2714V18.2047C9.6572 17.4246 10.2931 16.7908 11.081 16.7856H13.9671C14.7587 16.7856 15.4005 17.4209 15.4005 18.2047V18.2047V21.2809C15.4003 21.9432 15.9343 22.4845 16.603 22.5H18.5271C20.4451 22.5 22 20.9607 22 19.0618V19.0618V10.3378C21.9898 9.59083 21.6355 8.88935 21.038 8.43303L14.4577 3.1853C13.3049 2.27157 11.6662 2.27157 10.5134 3.1853L3.96203 8.44256C3.36226 8.89702 3.00739 9.59967 3 10.3474V19.0618C3 20.9607 4.55488 22.5 6.47291 22.5H8.39696C9.08235 22.5 9.63797 21.9499 9.63797 21.2714V21.2714" stroke="#758494" stroke-width="1.5" stroke-linecap="round" stroke-linejoin="round"/>
</svg>
