<svg width="25" height="25" viewBox="0 0 25 25" fill="none" xmlns="http://www.w3.org/2000/svg">
<path d="M9.63478 21.2733V18.2156C9.63478 17.4351 10.2722 16.8023 11.0584 16.8023H13.9326C14.3102 16.8023 14.6723 16.9512 14.9393 17.2163C15.2063 17.4813 15.3563 17.8408 15.3563 18.2156V21.2733C15.3539 21.5978 15.4821 21.9099 15.7124 22.1402C15.9427 22.3705 16.256 22.5 16.5829 22.5H18.5438C19.4596 22.5024 20.3388 22.1428 20.9872 21.5008C21.6356 20.8588 22 19.987 22 19.0778V10.3669C22 9.63246 21.6721 8.93584 21.1046 8.46467L14.434 3.17587C13.2737 2.24856 11.6111 2.2785 10.4854 3.24698L3.96701 8.46467C3.37274 8.92195 3.01755 9.62064 3 10.3669V19.0689C3 20.9639 4.54738 22.5 6.45617 22.5H8.37229C9.05123 22.5 9.603 21.9562 9.60792 21.2822L9.63478 21.2733Z" fill="#2970FF"/>
</svg>
