<svg width="29" height="29" viewBox="0 0 29 29" fill="none" xmlns="http://www.w3.org/2000/svg">
<path fill-rule="evenodd" clip-rule="evenodd" d="M19.188 9.77651C19.188 12.5668 16.9636 14.8041 14.1895 14.8041C11.4153 14.8041 9.19094 12.5668 9.19094 9.77651C9.19094 6.98519 11.4153 4.75 14.1895 4.75C16.9636 4.75 19.188 6.98519 19.188 9.77651ZM14.1895 23.75C10.1149 23.75 6.63586 23.104 6.63586 20.5202C6.63586 17.9353 10.0926 17.2658 14.1895 17.2658C18.264 17.2658 21.7431 17.9118 21.7431 20.4967C21.7431 23.0805 18.2863 23.75 14.1895 23.75ZM21.324 9.8672C21.324 11.2896 20.8998 12.6147 20.1555 13.7162C20.0789 13.8296 20.147 13.9825 20.282 14.0061C20.4681 14.0381 20.6606 14.0563 20.8562 14.0617C22.8073 14.113 24.5586 12.85 25.0424 10.9484C25.759 8.12397 23.6548 5.58825 20.9753 5.58825C20.6839 5.58825 20.4054 5.61927 20.1342 5.67488C20.097 5.68343 20.0577 5.70055 20.0364 5.7337C20.0109 5.77434 20.03 5.82888 20.0555 5.86417C20.8605 6.99888 21.324 8.38278 21.324 9.8672ZM24.5554 16.0462C25.8664 16.3039 26.7288 16.8301 27.086 17.5948C27.388 18.2225 27.388 18.9509 27.086 19.5776C26.5395 20.7636 24.7776 21.1443 24.0929 21.2427C23.9514 21.2641 23.8377 21.1411 23.8526 20.9989C24.2024 17.7124 21.4197 16.1542 20.6999 15.7959C20.6691 15.7799 20.6627 15.7553 20.6659 15.7403C20.668 15.7296 20.6808 15.7125 20.7041 15.7093C22.2619 15.6804 23.9366 15.8943 24.5554 16.0462ZM7.64407 14.0616C7.83971 14.0562 8.03111 14.0391 8.21824 14.0059C8.35328 13.9824 8.42133 13.8295 8.34478 13.7161C7.60047 12.6146 7.17622 11.2895 7.17622 9.8671C7.17622 8.38267 7.63981 6.99878 8.44473 5.86407C8.47024 5.82878 8.48832 5.77423 8.46386 5.73359C8.4426 5.70151 8.40219 5.68333 8.36604 5.67477C8.09384 5.61916 7.81526 5.58814 7.52392 5.58814C4.84442 5.58814 2.74017 8.12386 3.45789 10.9483C3.94169 12.8498 5.69293 14.1129 7.64407 14.0616ZM7.83386 15.7397C7.83705 15.7557 7.83067 15.7792 7.8009 15.7963C7.07999 16.1546 4.29736 17.7128 4.64718 20.9983C4.66207 21.1416 4.54936 21.2635 4.40794 21.2432C3.72318 21.1448 1.96131 20.764 1.41478 19.578C1.11174 18.9502 1.11174 18.223 1.41478 17.5952C1.77204 16.8305 2.63331 16.3043 3.94435 16.0455C4.56425 15.8947 6.23786 15.6808 7.79665 15.7097C7.82004 15.7129 7.83174 15.73 7.83386 15.7397Z" fill="#758494"/>
</svg>
