<svg width="29" height="29" viewBox="0 0 29 29" fill="none" xmlns="http://www.w3.org/2000/svg">
<g clip-path="url(#clip0_217_3782)">
<path d="M12 6.0001C12 5.36358 12.2529 4.75313 12.703 4.30304C13.1531 3.85295 13.7635 3.6001 14.4 3.6001C15.0366 3.6001 15.647 3.85295 16.0971 4.30304C16.5472 4.75313 16.8 5.36358 16.8 6.0001C18.1781 6.65173 19.3529 7.66609 20.1985 8.93446C21.0441 10.2028 21.5286 11.6774 21.6 13.2001V16.8001C21.6904 17.5461 21.9546 18.2606 22.3714 18.8858C22.7883 19.5111 23.3461 20.0298 24 20.4001H4.80005C5.45398 20.0298 6.01182 19.5111 6.42867 18.8858C6.84553 18.2606 7.10974 17.5461 7.20005 16.8001V13.2001C7.27152 11.6774 7.75601 10.2028 8.60159 8.93446C9.44717 7.66609 10.622 6.65173 12 6.0001" stroke="#758494" stroke-width="1.5" stroke-linecap="round" stroke-linejoin="round"/>
<path d="M10.8 20.3999V21.5999C10.8 22.5547 11.1793 23.4704 11.8545 24.1455C12.5296 24.8206 13.4453 25.1999 14.4 25.1999C15.3548 25.1999 16.2705 24.8206 16.9456 24.1455C17.6208 23.4704 18 22.5547 18 21.5999V20.3999" stroke="#758494" stroke-width="1.5" stroke-linecap="round" stroke-linejoin="round"/>
<circle cx="21.6" cy="7.1999" r="4.05" fill="#FF0000" stroke="white" stroke-width="1.5"/>
</g>
<defs>
<clipPath id="clip0_217_3782">
<rect width="28.8" height="28.8" fill="white"/>
</clipPath>
</defs>
</svg>
