<svg width="25" height="24" viewBox="0 0 25 24" fill="none" xmlns="http://www.w3.org/2000/svg">
<path fill-rule="evenodd" clip-rule="evenodd" d="M20.9023 13.58C21.26 13.77 21.536 14.07 21.7301 14.37C22.1083 14.99 22.0776 15.75 21.7097 16.42L20.9943 17.62C20.6162 18.26 19.911 18.66 19.1855 18.66C18.8278 18.66 18.4292 18.56 18.1022 18.36C17.8365 18.19 17.5299 18.13 17.2029 18.13C16.1911 18.13 15.3429 18.96 15.3122 19.95C15.3122 21.1 14.372 22 13.1968 22H11.8069C10.6215 22 9.68125 21.1 9.68125 19.95C9.66081 18.96 8.81259 18.13 7.80085 18.13C7.46361 18.13 7.15702 18.19 6.90153 18.36C6.5745 18.56 6.16572 18.66 5.81825 18.66C5.08245 18.66 4.37729 18.26 3.99917 17.62L3.29402 16.42C2.9159 15.77 2.89546 14.99 3.27358 14.37C3.43709 14.07 3.74368 13.77 4.09115 13.58C4.37729 13.44 4.56125 13.21 4.73498 12.94C5.24596 12.08 4.93937 10.95 4.07071 10.44C3.05897 9.87 2.73194 8.6 3.31446 7.61L3.99917 6.43C4.59191 5.44 5.85913 5.09 6.88109 5.67C7.77019 6.15 8.925 5.83 9.4462 4.98C9.60972 4.7 9.70169 4.4 9.68125 4.1C9.66081 3.71 9.77323 3.34 9.9674 3.04C10.3455 2.42 11.0302 2.02 11.7763 2H13.2172C13.9735 2 14.6582 2.42 15.0363 3.04C15.2203 3.34 15.3429 3.71 15.3122 4.1C15.2918 4.4 15.3838 4.7 15.5473 4.98C16.0685 5.83 17.2233 6.15 18.1226 5.67C19.1344 5.09 20.4118 5.44 20.9943 6.43L21.679 7.61C22.2718 8.6 21.9447 9.87 20.9228 10.44C20.0541 10.95 19.7475 12.08 20.2687 12.94C20.4322 13.21 20.6162 13.44 20.9023 13.58ZM9.60972 12.01C9.60972 13.58 10.9076 14.83 12.5121 14.83C14.1165 14.83 15.3838 13.58 15.3838 12.01C15.3838 10.44 14.1165 9.18 12.5121 9.18C10.9076 9.18 9.60972 10.44 9.60972 12.01Z" fill="#2E90FA"/>
</svg>
