<svg width="20" height="20" viewBox="0 0 20 20" fill="none" xmlns="http://www.w3.org/2000/svg">
<g clip-path="url(#clip0_217_3812)">
<path d="M14.2417 9.16667H18.2917C18.1584 7.825 17.7 6.575 17.0084 5.5C15.5667 6.19167 14.5167 7.54167 14.2417 9.16667Z" fill="#758494"/>
<path d="M5.75837 9.16667C5.48337 7.54167 4.43337 6.19167 2.99171 5.5C2.30004 6.575 1.84171 7.825 1.70837 9.16667H5.75837Z" fill="#758494"/>
<path d="M12.5584 9.16683C12.825 7.0085 14.125 5.17516 15.9417 4.16683C14.6084 2.8085 12.825 1.9085 10.8334 1.7085V9.16683H12.5584Z" fill="#758494"/>
<path d="M7.44168 9.16683H9.16668V1.7085C7.17502 1.9085 5.38335 2.8085 4.05835 4.16683C5.87502 5.17516 7.17502 7.0085 7.44168 9.16683Z" fill="#758494"/>
<path d="M12.5584 10.8335H10.8334V18.2918C12.825 18.0918 14.6167 17.1918 15.9417 15.8335C14.125 14.8252 12.825 12.9918 12.5584 10.8335Z" fill="#758494"/>
<path d="M2.99171 14.5002C4.42504 13.8085 5.48337 12.4502 5.75837 10.8335H1.70837C1.84171 12.1752 2.30004 13.4252 2.99171 14.5002Z" fill="#758494"/>
<path d="M14.2417 10.8335C14.5167 12.4585 15.5667 13.8085 17.0084 14.5002C17.7 13.4252 18.1584 12.1752 18.2917 10.8335H14.2417V10.8335Z" fill="#758494"/>
<path d="M7.44168 10.8335C7.17502 12.9918 5.87502 14.8252 4.05835 15.8335C5.39168 17.1918 7.17502 18.0918 9.16668 18.2918V10.8335H7.44168Z" fill="#758494"/>
</g>
<defs>
<clipPath id="clip0_217_3812">
<rect width="20" height="20" fill="white"/>
</clipPath>
</defs>
</svg>
