<svg width="20" height="20" viewBox="0 0 20 20" fill="none" xmlns="http://www.w3.org/2000/svg">
<g clip-path="url(#clip0_217_3803)">
<path d="M12.5417 10.6747L5.46666 3.59971C5.14166 3.27471 4.61666 3.27471 4.29166 3.59971L1.93333 5.95804C1.60833 6.28304 1.60833 6.80804 1.93333 7.13304L9.00833 14.208C9.33333 14.533 9.85833 14.533 10.1833 14.208L12.5417 11.8497C12.8667 11.5247 12.8667 10.9997 12.5417 10.6747Z" fill="#758494"/>
<path d="M13.1296 13.6179L11.951 14.7964L15.4866 18.3319L16.6651 17.1534L13.1296 13.6179Z" fill="#758494"/>
<path d="M15.4167 7.49984C17.0275 7.49984 18.3333 6.194 18.3333 4.58317C18.3333 2.97234 17.0275 1.6665 15.4167 1.6665C13.8058 1.6665 12.5 2.97234 12.5 4.58317C12.5 6.194 13.8058 7.49984 15.4167 7.49984Z" fill="#758494"/>
</g>
<defs>
<clipPath id="clip0_217_3803">
<rect width="20" height="20" fill="white"/>
</clipPath>
</defs>
</svg>
