<svg width="20" height="20" viewBox="0 0 20 20" fill="none" xmlns="http://www.w3.org/2000/svg">
<g clip-path="url(#clip0_217_3792)">
<path d="M3.17496 5.2334C2.22496 6.5834 1.66663 8.22506 1.66663 10.0001C1.66663 11.7751 2.22496 13.4167 3.17496 14.7667C5.19163 14.1251 6.66663 12.2334 6.66663 10.0001C6.66663 7.76673 5.19163 5.87507 3.17496 5.2334Z" fill="#758494"/>
<path d="M16.8249 5.2334C14.8083 5.87507 13.3333 7.76673 13.3333 10.0001C13.3333 12.2334 14.8083 14.1251 16.8249 14.7667C17.7749 13.4167 18.3333 11.7751 18.3333 10.0001C18.3333 8.22506 17.7749 6.5834 16.8249 5.2334Z" fill="#758494"/>
<path d="M11.6667 9.99984C11.6667 7.2665 13.3083 4.92484 15.6583 3.8915C14.175 2.5165 12.1917 1.6665 10 1.6665C7.80834 1.6665 5.82501 2.5165 4.34167 3.8915C6.69167 4.92484 8.33334 7.2665 8.33334 9.99984C8.33334 12.7332 6.69167 15.0748 4.34167 16.1082C5.82501 17.4832 7.80834 18.3332 10 18.3332C12.1917 18.3332 14.175 17.4832 15.6583 16.1082C13.3083 15.0748 11.6667 12.7332 11.6667 9.99984Z" fill="#758494"/>
</g>
<defs>
<clipPath id="clip0_217_3792">
<rect width="20" height="20" fill="white"/>
</clipPath>
</defs>
</svg>
