<svg width="20" height="20" viewBox="0 0 20 20" fill="none" xmlns="http://www.w3.org/2000/svg">
<g clip-path="url(#clip0_217_3776)">
<path d="M9.99996 1.6665C5.39996 1.6665 1.66663 5.39984 1.66663 9.99984C1.66663 14.5998 5.39996 18.3332 9.99996 18.3332C14.6 18.3332 18.3333 14.5998 18.3333 9.99984C18.3333 5.39984 14.6 1.6665 9.99996 1.6665ZM10.8333 4.4165L11.9583 3.62484C13.475 4.0915 14.7666 5.0915 15.6083 6.40817L15.2833 7.52484L14.1583 7.90817L10.8333 5.58317V4.4165ZM8.04163 3.62484L9.16663 4.4165V5.58317L5.84163 7.90817L4.71663 7.52484L4.39163 6.40817C5.23329 5.09984 6.52496 4.09984 8.04163 3.62484ZM5.89996 14.2582L4.94996 14.3415C3.94163 13.1748 3.33329 11.6582 3.33329 9.99984C3.33329 9.89984 3.34163 9.80817 3.34996 9.70817L4.18329 9.09984L5.33329 9.49984L6.54996 13.1165L5.89996 14.2582ZM12.0833 16.3248C11.425 16.5415 10.725 16.6665 9.99996 16.6665C9.27496 16.6665 8.57496 16.5415 7.91663 16.3248L7.34163 15.0832L7.87496 14.1665H12.1333L12.6666 15.0915L12.0833 16.3248ZM11.8916 12.4998H8.10829L6.98329 9.14984L9.99996 7.03317L13.025 9.14984L11.8916 12.4998ZM15.05 14.3415L14.1 14.2582L13.4416 13.1165L14.6583 9.49984L15.8166 9.10817L16.65 9.7165C16.6583 9.80817 16.6666 9.89984 16.6666 9.99984C16.6666 11.6582 16.0583 13.1748 15.05 14.3415Z" fill="#758494"/>
</g>
<defs>
<clipPath id="clip0_217_3776">
<rect width="20" height="20" fill="white"/>
</clipPath>
</defs>
</svg>
