<svg width="20" height="20" viewBox="0 0 20 20" fill="none" xmlns="http://www.w3.org/2000/svg">
<g clip-path="url(#clip0_217_3833)">
<path d="M2.51667 13.0171C2.45 15.0338 2.78333 16.6338 3.075 16.9254C3.36667 17.2171 4.975 17.5588 6.98333 17.4838L2.51667 13.0171Z" fill="#758494"/>
<path d="M10.8999 2.7334C8.95828 3.0834 6.90828 3.85007 5.38328 5.3834C3.85828 6.91673 3.08328 8.9584 2.73328 10.9001L9.09161 17.2584C11.0416 16.9167 13.0833 16.1417 14.6083 14.6084C16.1333 13.0751 16.9083 11.0334 17.2583 9.09173L10.8999 2.7334ZM8.24994 12.9167L7.08328 11.7501L11.7499 7.0834L12.9166 8.25006L8.24994 12.9167Z" fill="#758494"/>
<path d="M17.4834 6.98351C17.5501 4.96684 17.2167 3.36684 16.9251 3.07517C16.6334 2.78351 15.0251 2.44184 13.0167 2.51684L17.4834 6.98351Z" fill="#758494"/>
</g>
<defs>
<clipPath id="clip0_217_3833">
<rect width="20" height="20" fill="white"/>
</clipPath>
</defs>
</svg>
