<svg width="20" height="20" viewBox="0 0 20 20" fill="none" xmlns="http://www.w3.org/2000/svg">
<g clip-path="url(#clip0_217_3841)">
<path d="M4.99996 3.3418C2.98329 4.8668 1.66663 7.27513 1.66663 10.0001C1.66663 11.2168 1.93329 12.3751 2.40829 13.4251L4.99996 11.9251V3.3418Z" fill="#758494"/>
<path d="M9.16663 9.51683V1.7085C8.28329 1.80016 7.44163 2.02516 6.66663 2.36683V10.9668L9.16663 9.51683Z" fill="#758494"/>
<path d="M9.99991 10.9585L3.24158 14.8585C3.74991 15.5585 4.35824 16.1835 5.05824 16.6918L12.4999 12.4085L9.99991 10.9585Z" fill="#758494"/>
<path d="M10.8333 6.6333V9.51663L17.5916 13.4166C17.9416 12.6416 18.1749 11.8083 18.2749 10.9333L10.8333 6.6333Z" fill="#758494"/>
<path d="M6.72498 17.6667C7.73331 18.0917 8.83331 18.3334 9.99998 18.3334C12.7833 18.3334 15.2416 16.9584 16.7583 14.8667L14.1666 13.3667L6.72498 17.6667Z" fill="#758494"/>
<path d="M18.2666 9.0085C17.8083 5.15016 14.7166 2.09183 10.8333 1.7085V4.7085L18.2666 9.0085Z" fill="#758494"/>
</g>
<defs>
<clipPath id="clip0_217_3841">
<rect width="20" height="20" fill="white"/>
</clipPath>
</defs>
</svg>
