<svg width="25" height="25" viewBox="0 0 25 25" fill="none" xmlns="http://www.w3.org/2000/svg">
<path fill-rule="evenodd" clip-rule="evenodd" d="M18.1023 8.8818H22.3334C22.3334 5.48459 20.2978 3.5 16.8489 3.5H7.81782C4.36893 3.5 2.33337 5.48459 2.33337 8.83847V16.1615C2.33337 19.5154 4.36893 21.5 7.81782 21.5H16.8489C20.2978 21.5 22.3334 19.5154 22.3334 16.1615V15.8495H18.1023C16.1386 15.8495 14.5467 14.2975 14.5467 12.383C14.5467 10.4685 16.1386 8.91647 18.1023 8.91647V8.8818ZM18.1023 10.3724H21.5867C21.9991 10.3724 22.3334 10.6983 22.3334 11.1004V13.631C22.3286 14.0311 21.9971 14.3543 21.5867 14.3589H18.1823C17.1882 14.372 16.3189 13.7084 16.0934 12.7643C15.9805 12.1783 16.139 11.5736 16.5264 11.1122C16.9139 10.6509 17.4907 10.3801 18.1023 10.3724ZM18.2534 13.033H18.5823C19.0045 13.033 19.3467 12.6993 19.3467 12.2877C19.3467 11.8761 19.0045 11.5424 18.5823 11.5424H18.2534C18.0515 11.5401 17.857 11.6166 17.7134 11.755C17.5697 11.8934 17.4889 12.0821 17.4889 12.279C17.4889 12.6921 17.8297 13.0282 18.2534 13.033ZM7.07115 8.8818H12.7156C13.1378 8.8818 13.48 8.54812 13.48 8.13649C13.48 7.72487 13.1378 7.39119 12.7156 7.39119H7.07115C6.65241 7.39116 6.31158 7.7196 6.30671 8.12783C6.30668 8.54087 6.64753 8.87705 7.07115 8.8818Z" fill="#2970FF"/>
</svg>
